<svg xmlns="http://www.w3.org/2000/svg" viewBox="0 0 17 10.64">
  <defs>
    <style>
      .cls-1 {
        fill: #4f4f4f;
      }
    </style>
  </defs>
  <title>Asset 5</title>
  <g id="Layer_2" data-name="Layer 2">
    <g id="content">
      <path class="cls-1" d="M15.45,0a1.68,1.68,0,0,0-1.55,1.77,1.71,1.71,0,0,0,.05.45L11.22,5.38a1.33,1.33,0,0,0-.8,0l-2-2.26a1.78,1.78,0,0,0,.05-.46A1.68,1.68,0,0,0,7,.89,1.68,1.68,0,0,0,5.41,2.66a1.78,1.78,0,0,0,.05.46l-3.52,4a1.16,1.16,0,0,0-.39-.06A1.68,1.68,0,0,0,0,8.86a1.68,1.68,0,0,0,1.55,1.77A1.68,1.68,0,0,0,3.09,8.86,1.71,1.71,0,0,0,3,8.41l3.52-4a1.33,1.33,0,0,0,.8,0l2,2.26a1.78,1.78,0,0,0-.05.46,1.68,1.68,0,0,0,1.55,1.77,1.68,1.68,0,0,0,1.55-1.77,1.78,1.78,0,0,0-.05-.46l2.75-3.15a1.16,1.16,0,0,0,.39.06A1.68,1.68,0,0,0,17,1.77,1.68,1.68,0,0,0,15.45,0Z"/>
    </g>
  </g>
</svg>
