<svg xmlns="http://www.w3.org/2000/svg" viewBox="0 0 16.7 14.6">
  <defs>
    <style>
      .cls-1 {
        fill: #3a3a3a;
      }
    </style>
  </defs>
  <title>Asset 4</title>
  <g id="Layer_2" data-name="Layer 2">
    <g id="content">
      <path class="cls-1" d="M16.62,5.59a.36.36,0,0,0-.27-.12h-.74V1.76a.48.48,0,0,0-.49-.46H6.57L5.88.22A.5.5,0,0,0,5.45,0H1.61a.48.48,0,0,0-.49.46v5H.35a.36.36,0,0,0-.27.11A.32.32,0,0,0,0,5.86l1.37,8.46a.35.35,0,0,0,.35.28H15a.35.35,0,0,0,.35-.28L16.7,5.86A.32.32,0,0,0,16.62,5.59ZM1.67.52H5.42L6.11,1.6a.5.5,0,0,0,.42.22h8.52V5.48h-.28v-1H14.5V3.65h-.28V2.87H2.51v.78H2.23v.78H2v1H1.67ZM2.51,5H14.22v.52H2.51Zm.28-.78H13.94v.26H2.79Zm10.87-.52H3.07V3.39H13.66ZM14.8,14.08H1.9L.59,6H16.11Z"/>
    </g>
  </g>
</svg>
