<svg xmlns="http://www.w3.org/2000/svg" viewBox="0 0 17.33 16.41">
  <defs>
    <style>
      .cls-1 {
        fill: #3a3a3a;
      }
    </style>
  </defs>
  <title>Asset 7</title>
  <g id="Layer_2" data-name="Layer 2">
    <g id="content">
      <g>
        <path class="cls-1" d="M9.16,7a.5.5,0,0,0,0,.7,2.08,2.08,0,0,1,0,2.9L5,14.83a2,2,0,0,1-2.85,0l-.62-.63a2.08,2.08,0,0,1,0-2.9L5.69,7.1a.5.5,0,0,0,0-.7A.48.48,0,0,0,5,6.4L.88,10.6a3.07,3.07,0,0,0,0,4.29l.62.63a3,3,0,0,0,4.22,0l4.13-4.2A3.08,3.08,0,0,0,9.85,7,.48.48,0,0,0,9.16,7Z"/>
        <path class="cls-1" d="M16.46,1.52,15.84.89a3,3,0,0,0-4.22,0L7.49,5.09a3.08,3.08,0,0,0,0,4.29.48.48,0,0,0,.69,0,.5.5,0,0,0,0-.7,2.08,2.08,0,0,1,0-2.9l4.13-4.2a2,2,0,0,1,2.85,0l.62.63a2.08,2.08,0,0,1,0,2.9l-4.13,4.2a.5.5,0,0,0,0,.7.48.48,0,0,0,.34.15.47.47,0,0,0,.34-.15l4.13-4.2a3.07,3.07,0,0,0,0-4.29Z"/>
      </g>
    </g>
  </g>
</svg>
