<svg xmlns="http://www.w3.org/2000/svg" viewBox="0 0 14.71 16.21">
  <defs>
    <style>
      .cls-1 {
        fill: #3a3a3a;
      }
    </style>
  </defs>
  <title>Asset 8</title>
  <g id="Layer_2" data-name="Layer 2">
    <g id="content">
      <g>
        <path class="cls-1" d="M7.36,14a.29.29,0,0,0,.31-.27V4.67a.31.31,0,0,0-.61,0v9.07A.29.29,0,0,0,7.36,14Z"/>
        <path class="cls-1" d="M4.29,14a.29.29,0,0,0,.31-.27V4.67a.31.31,0,0,0-.61,0v9.07A.29.29,0,0,0,4.29,14Z"/>
        <path class="cls-1" d="M10.42,14a.29.29,0,0,0,.31-.27V4.67a.31.31,0,0,0-.61,0v9.07A.29.29,0,0,0,10.42,14Z"/>
        <path class="cls-1" d="M14.41,1.65H10.1A2.06,2.06,0,0,0,9.55.35a1.38,1.38,0,0,0-1-.35H5.52a1.38,1.38,0,0,0-1,.35A2.06,2.06,0,0,0,4,1.65H.31A.29.29,0,0,0,0,1.92a.29.29,0,0,0,.31.27H.93l.59,12.65A1.4,1.4,0,0,0,3,16.21h8.67a1.4,1.4,0,0,0,1.5-1.36L13.78,2.2h.63a.29.29,0,0,0,.31-.27A.29.29,0,0,0,14.41,1.65ZM5,.74A.74.74,0,0,1,5.52.55H8.58a.74.74,0,0,1,.52.19,1.52,1.52,0,0,1,.38.91H4.61A1.52,1.52,0,0,1,5,.74Zm7.59,14.1a.83.83,0,0,1-.89.83H3a.84.84,0,0,1-.89-.84L1.55,2.2H13.17Z"/>
      </g>
    </g>
  </g>
</svg>
