<svg xmlns="http://www.w3.org/2000/svg" viewBox="0 0 18.8 16.3">
  <defs>
    <style>
      .cls-1 {
        fill: #3a3a3a;
      }
    </style>
  </defs>
  <title>Asset 3</title>
  <g id="Layer_2" data-name="Layer 2">
    <g id="content">
      <g>
        <path class="cls-1" d="M18.26,7.95a.52.52,0,0,0-.54.5V13a2.34,2.34,0,0,1-2.41,2.26H3.49A2.34,2.34,0,0,1,1.08,13V8.38a.52.52,0,0,0-.54-.5.52.52,0,0,0-.54.5V13A3.39,3.39,0,0,0,3.49,16.3H15.31A3.39,3.39,0,0,0,18.8,13V8.45A.52.52,0,0,0,18.26,7.95Z"/>
        <path class="cls-1" d="M6.36,4.06,8.86,1.72V11.94a.54.54,0,0,0,1.08,0V1.72l2.51,2.34a.56.56,0,0,0,.38.15.54.54,0,0,0,.38-.15.48.48,0,0,0,0-.71L9.78.15A.56.56,0,0,0,9.4,0,.54.54,0,0,0,9,.15L5.6,3.35a.48.48,0,0,0,0,.71A.57.57,0,0,0,6.36,4.06Z"/>
      </g>
    </g>
  </g>
</svg>
