<svg xmlns="http://www.w3.org/2000/svg" viewBox="0 0 16.83 15.6">
  <defs>
    <style>
      .cls-1 {
        fill: #f1f3f5;
      }
    </style>
  </defs>
  <title>Asset 5</title>
  <g id="Layer_2" data-name="Layer 2">
    <g id="header">
      <g>
        <path class="cls-1" d="M16.35,7.6a.48.48,0,0,0-.48.48v4.39a2.16,2.16,0,0,1-2.16,2.16H3.13A2.16,2.16,0,0,1,1,12.47V8A.48.48,0,0,0,0,8v4.46A3.13,3.13,0,0,0,3.13,15.6H13.71a3.13,3.13,0,0,0,3.13-3.13V8.09A.48.48,0,0,0,16.35,7.6Z"/>
        <path class="cls-1" d="M5.69,3.89,7.93,1.65v9.78a.48.48,0,0,0,1,0V1.65l2.24,2.24a.49.49,0,0,0,.34.14.46.46,0,0,0,.34-.14.48.48,0,0,0,0-.68L8.75.14A.49.49,0,0,0,8.42,0a.47.47,0,0,0-.34.14L5,3.21a.48.48,0,0,0,.68.68Z"/>
      </g>
    </g>
  </g>
</svg>
