<svg xmlns="http://www.w3.org/2000/svg" viewBox="0 0 20.24 26.09">
  <title>locker</title>
  <g id="Layer_2" data-name="Layer 2">
    <g id="content">
      <g>
        <path d="M10.13,0A7.43,7.43,0,0,0,2.71,7.42v3.7H2.39A2.39,2.39,0,0,0,0,13.51V23.7a2.39,2.39,0,0,0,2.39,2.39H17.86a2.39,2.39,0,0,0,2.39-2.39V13.51a2.39,2.39,0,0,0-2.39-2.39h-.32V7.41A7.4,7.4,0,0,0,10.13,0ZM4.55,7.41a5.57,5.57,0,0,1,11.15,0v3.71H4.55V7.41Zm13.86,6.1V23.7a.54.54,0,0,1-.55.55H2.4a.54.54,0,0,1-.55-.55V13.51A.54.54,0,0,1,2.4,13H17.87A.55.55,0,0,1,18.41,13.51Z"/>
        <path d="M10.4,16a1.56,1.56,0,0,0-1.69.9,1.51,1.51,0,0,0,.51,1.87.34.34,0,0,1,.15.31v2h0a.77.77,0,0,0,1.16.67.72.72,0,0,0,.37-.68h0V19a.35.35,0,0,1,.16-.33,1.48,1.48,0,0,0,.63-1.24A1.57,1.57,0,0,0,10.4,16Z"/>
      </g>
    </g>
  </g>
</svg>
