<svg xmlns="http://www.w3.org/2000/svg" viewBox="0 0 49.55 49.53">
  <defs>
    <style>
      .cls-1 {
        fill: #355ff2;
      }
    </style>
  </defs>
  <title>spinning-locker</title>
  <g id="Layer_2" data-name="Layer 2">
    <g id="content">
      <g>
        <path class="cls-1" d="M2.33,33.75a1.13,1.13,0,0,0,.31-.05.92.92,0,0,0,.56-1.17A22.94,22.94,0,0,1,40.81,8.35l.14.14-2.77,0a.92.92,0,0,0,0,1.84h0l5-.06a.92.92,0,0,0,.65-.27.91.91,0,0,0,.26-.65l-.06-5a.92.92,0,0,0-.93-.91.93.93,0,0,0-.91.93l0,2.77L42.09,7A24.78,24.78,0,0,0,1.46,33.16.94.94,0,0,0,2.33,33.75Z"/>
        <path class="cls-1" d="M41.18,40.79a23,23,0,0,1-32.43.36L8.6,41l2.77,0a.92.92,0,0,0,0-1.84h0l-5,.07a.93.93,0,0,0-.91.93l.06,5a.92.92,0,0,0,.92.91h0a.93.93,0,0,0,.91-.93l0-2.77.14.14A24.78,24.78,0,0,0,48.1,16.37a.92.92,0,1,0-1.73.62A22.81,22.81,0,0,1,41.18,40.79Z"/>
      </g>
    </g>
  </g>
</svg>
