<svg xmlns="http://www.w3.org/2000/svg" viewBox="0 0 1366.35 589.73">
  <defs>
    <style>
      .cls-1 {
        fill: #1e1e1e;
      }

      .cls-2 {
        fill: #202333;
      }
    </style>
  </defs>
  <title>Asset 4</title>
  <g id="Layer_2" data-name="Layer 2">
    <g id="header">
      <g>
        <rect class="cls-1" width="1366" height="589.73"/>
        <g>
          <polygon class="cls-2" points="78.41 394.87 131.41 363.7 185.07 394.87 131.74 425.7 78.41 394.87"/>
          <polygon class="cls-2" points="142.41 433.53 195.41 402.37 249.07 433.53 195.74 464.37 142.41 433.53"/>
          <polygon class="cls-2" points="207.16 394.87 260.16 363.7 313.82 394.87 260.49 425.7 207.16 394.87"/>
          <polygon class="cls-2" points="781.16 174.22 887.48 111.7 995.13 174.22 888.14 236.07 781.16 174.22"/>
          <polygon class="cls-2" points="905.07 244.43 1011.39 181.9 1119.05 244.43 1012.06 306.28 905.07 244.43"/>
          <polygon class="cls-2" points="1028.46 174.22 1134.78 111.7 1242.44 174.22 1135.45 236.07 1028.46 174.22"/>
          <polygon class="cls-2" points="788.07 317.41 894.39 254.88 1002.05 317.41 895.06 379.26 788.07 317.41"/>
          <polygon class="cls-2" points="1028.46 314.07 1134.78 251.55 1242.44 314.07 1135.45 375.93 1028.46 314.07"/>
          <polygon class="cls-2" points="1152.38 387.41 1258.7 324.88 1366.35 387.41 1259.37 449.26 1152.38 387.41"/>
          <polygon class="cls-2" points="1035.38 460.6 1141.7 398.07 1249.35 460.6 1142.37 522.45 1035.38 460.6"/>
          <polygon class="cls-2" points="668.07 387.41 774.39 324.88 882.05 387.41 775.06 449.26 668.07 387.41"/>
          <polygon class="cls-2" points="549.07 457.22 655.39 394.7 763.05 457.22 656.06 519.07 549.07 457.22"/>
          <polygon class="cls-2" points="408.26 325.22 514.58 262.7 622.24 325.22 515.25 387.07 408.26 325.22"/>
          <polygon class="cls-2" points="131.74 162.87 184.74 131.7 238.41 162.87 185.07 193.7 131.74 162.87"/>
          <polygon class="cls-2" points="198.41 124.49 251.41 93.32 305.07 124.49 251.74 155.32 198.41 124.49"/>
          <polygon class="cls-2" points="132.99 85.24 185.99 54.07 239.66 85.24 186.32 116.07 132.99 85.24"/>
          <polygon class="cls-2" points="195.74 48.41 248.74 17.24 302.41 48.41 249.07 79.24 195.74 48.41"/>
        </g>
      </g>
    </g>
  </g>
</svg>
