<svg xmlns="http://www.w3.org/2000/svg" viewBox="0 0 212 25.91">
  <defs>
    <style>
      .cls-1, .cls-5 {
        opacity: 0.88;
      }

      .cls-1 {
        font-size: 28.79px;
        font-family: Anurati-Regular, Anurati;
      }

      .cls-1, .cls-6 {
        fill: #262626;
      }

      .cls-2 {
        letter-spacing: -0.11em;
      }

      .cls-3 {
        letter-spacing: -0.15em;
      }

      .cls-4 {
        letter-spacing: -0.12em;
      }
    </style>
  </defs>
  <title>logo</title>
  <g id="Layer_2" data-name="Layer 2">
    <g id="header">
      <g>
        <text class="cls-1" transform="translate(0 25.91)"><tspan class="cls-2">C</tspan><tspan x="17.45" y="0" xml:space="preserve">RYPT    </tspan><tspan class="cls-3" x="130.86" y="0">S</tspan><tspan x="149.61" y="0">E</tspan><tspan class="cls-4" x="167.92" y="0">N</tspan><tspan x="188.11" y="0">D</tspan></text>
        <g>
          <g class="cls-5">
            <ellipse class="cls-6" cx="119.12" cy="8.96" rx="1.49" ry="1.46"/>
          </g>
          <g class="cls-5">
            <path class="cls-6" d="M125.76,10.14a13.26,13.26,0,0,0-2.93-4.51,13.33,13.33,0,0,0-4.57-2.81,3.81,3.81,0,0,0-4,.82l-3.66,3.56a3.59,3.59,0,0,0-.78,4c.19.42.4.84.62,1.24l-8,7.86a.9.9,0,0,0-.27.64v4a.92.92,0,0,0,.93.91h4.1a.92.92,0,0,0,.93-.91V23.36h1.68a.92.92,0,0,0,.93-.91V20.81h1.68a.91.91,0,1,0,0-1.82h-2.61a.92.92,0,0,0-.93.91v1.64H107.2a.92.92,0,0,0-.93.91v1.64H104V21.37l8.26-8.08a.9.9,0,0,0,.14-1.12,14.64,14.64,0,0,1-.88-1.65,1.79,1.79,0,0,1,.39-2l3.66-3.56a1.91,1.91,0,0,1,2-.41,11.45,11.45,0,0,1,3.92,2.4A11.44,11.44,0,0,1,124,10.81a1.78,1.78,0,0,1-.42,1.95l-3.7,3.61a1.91,1.91,0,0,1-2.05.39,12.2,12.2,0,0,1-1.68-.84.94.94,0,0,0-1.28.3.9.9,0,0,0,.31,1.25,14.08,14.08,0,0,0,1.94,1,3.79,3.79,0,0,0,4.08-.78l3.7-3.61A3.58,3.58,0,0,0,125.76,10.14Z"/>
          </g>
        </g>
      </g>
    </g>
  </g>
</svg>
