<svg xmlns="http://www.w3.org/2000/svg" viewBox="0 0 180.04 23.03">
  <defs>
    <style>
      .cls-1 {
        opacity: 0.88;
      }

      .cls-2 {
        fill: #262626;
      }
    </style>
  </defs>
  <title>Asset 1</title>
  <g id="Layer_2" data-name="Layer 2">
    <g id="header">
      <g class="cls-1">
        <path class="cls-2" d="M6.71,13.45a6.48,6.48,0,0,1-4.75-2A6.59,6.59,0,0,1,0,6.71,6.5,6.5,0,0,1,2,2,6.39,6.39,0,0,1,6.71,0V3.86a2.88,2.88,0,0,0-1.12.2,2.62,2.62,0,0,0-1,.63,2.8,2.8,0,0,0-.81,2,2.83,2.83,0,0,0,.81,2,2.78,2.78,0,0,0,2.07.86h5.73a6.48,6.48,0,0,1,4.75,2,6.67,6.67,0,0,1,0,9.5,6.47,6.47,0,0,1-4.75,2V19.18a2.88,2.88,0,0,0,1.12-.2,2.67,2.67,0,0,0,1-.6,2.57,2.57,0,0,0,.6-.92,2.91,2.91,0,0,0,.23-1.12,2.86,2.86,0,0,0-.86-2,2.76,2.76,0,0,0-2-.86Z"/>
        <path class="cls-2" d="M34.09,0V3.86H22.57L18.74,0ZM22.57,9.62H34.09v3.83H18.74V9.62Zm0,9.56H34.09V23H18.74v-.32Z"/>
        <path class="cls-2" d="M56.2,0V23L37.06,5.82V0L52.37,13.79V0Z"/>
        <path class="cls-2" d="M76.42,11.52A10.89,10.89,0,0,1,75.52,16,12.56,12.56,0,0,1,73,19.64a11.69,11.69,0,0,1-3.69,2.48A11.06,11.06,0,0,1,64.9,23H57.24l3.83-3.86H64.9a7.93,7.93,0,0,0,3-.58,7.55,7.55,0,0,0,2.45-1.67A8.32,8.32,0,0,0,72,14.48a7.58,7.58,0,0,0,0-5.93A7.88,7.88,0,0,0,70.31,6.1a8,8,0,0,0-2.45-1.67,7.89,7.89,0,0,0-3-.58H61.07L57.24,0H64.9a11.16,11.16,0,0,1,4.46.92A11.89,11.89,0,0,1,73,3.4a12.11,12.11,0,0,1,2.5,3.69A10.89,10.89,0,0,1,76.42,11.52Z"/>
        <path class="cls-2" d="M84.54,19.64A12,12,0,0,1,82.06,16a11.13,11.13,0,0,1-.92-4.43A11.3,11.3,0,0,1,82.06,7,11.76,11.76,0,0,1,84.54,3.4,11.53,11.53,0,0,1,88.22.92a11.43,11.43,0,0,1,8.93,0,11.94,11.94,0,0,1,3.69,2.5L98.1,6.08a7.46,7.46,0,0,0-5.41-2.22,7.93,7.93,0,0,0-3,.58A7.26,7.26,0,0,0,87.24,6.1,7.83,7.83,0,0,0,85.6,8.52a7.72,7.72,0,0,0,0,6,7.44,7.44,0,0,0,1.67,2.42,7.44,7.44,0,0,0,2.42,1.67,8,8,0,0,0,3,.58l4.46,3a11.43,11.43,0,0,1-8.93,0A12,12,0,0,1,84.54,19.64Z"/>
        <path class="cls-2" d="M111.63,14.77,116.35,23h-4.41l-6.68-11.55,3.43,0a3.66,3.66,0,0,0,2.68-1.12,3.66,3.66,0,0,0,1.15-2.74A3.58,3.58,0,0,0,111.37,5a3.65,3.65,0,0,0-2.68-1.12H101l-.43-.43L98.59,0h10.11a7.39,7.39,0,0,1,5.41,2.25,7.44,7.44,0,0,1,2.25,5.41A7.28,7.28,0,0,1,115,12,7.43,7.43,0,0,1,111.63,14.77Z"/>
        <path class="cls-2" d="M132,14.66v0L125.42,23H120.5l9-11.52L120.5,0h4.92L132,8.41,138.52,0h4.87l-9,11.52Zm0,0L125.42,23,132,14.63Z"/>
        <path class="cls-2" d="M165.24,7.69A7.35,7.35,0,0,1,163,13.13a7.39,7.39,0,0,1-5.41,2.25H149.9V23h-3.83V11.52h11.52a3.66,3.66,0,0,0,2.68-1.12,3.7,3.7,0,0,0,1.15-2.71A3.64,3.64,0,0,0,160.26,5a3.66,3.66,0,0,0-2.68-1.12H149.9L146.07,0h11.52A7.39,7.39,0,0,1,163,2.25,7.5,7.5,0,0,1,165.24,7.69Z"/>
        <path class="cls-2" d="M180,0V3.86h-7.66V23h-3.86V0Z"/>
      </g>
    </g>
  </g>
</svg>
