<svg xmlns="http://www.w3.org/2000/svg" viewBox="0 0 207.28 23.33">
  <defs>
    <style>
      .cls-1 {
        opacity: 0.88;
      }

      .cls-2 {
        fill: #262626;
      }
    </style>
  </defs>
  <title>Asset 9</title>
  <g id="Layer_2" data-name="Layer 2">
    <g id="header">
      <g>
        <g class="cls-1">
          <path class="cls-2" d="M3.4,19.94A12,12,0,0,1,.92,16.25,11.13,11.13,0,0,1,0,11.82,11.3,11.3,0,0,1,.92,7.32,11.76,11.76,0,0,1,3.4,3.7,11.53,11.53,0,0,1,7.08,1.22,11.06,11.06,0,0,1,11.55.3,11,11,0,0,1,16,1.19a11.94,11.94,0,0,1,3.69,2.5L17,6.37a7.46,7.46,0,0,0-5.41-2.22,7.93,7.93,0,0,0-3,.58A7.26,7.26,0,0,0,6.1,6.4,7.83,7.83,0,0,0,4.46,8.82a7.72,7.72,0,0,0,0,6,7.44,7.44,0,0,0,1.67,2.42A7.44,7.44,0,0,0,8.55,18.9a8,8,0,0,0,3,.58l4.46,3a11,11,0,0,1-4.46.89,11.06,11.06,0,0,1-4.46-.92A12,12,0,0,1,3.4,19.94Z"/>
          <path class="cls-2" d="M30.49,15.07l4.72,8.26H30.81L24.13,11.79l3.43,0a3.66,3.66,0,0,0,2.68-1.12A3.66,3.66,0,0,0,31.38,8a3.58,3.58,0,0,0-1.15-2.68,3.65,3.65,0,0,0-2.68-1.12H19.87l-.43-.43L17.45.3H27.56A7.39,7.39,0,0,1,33,2.54,7.44,7.44,0,0,1,35.21,8a7.28,7.28,0,0,1-1.35,4.35A7.43,7.43,0,0,1,30.49,15.07Z"/>
          <path class="cls-2" d="M50.82,15v0l-6.54,8.41H39.36l9-11.52L39.36.3h4.92l6.54,8.41L57.38.3h4.87l-9,11.52Zm0,0-6.54,8.38,6.54-8.41Z"/>
          <path class="cls-2" d="M84.1,8a7.35,7.35,0,0,1-2.25,5.44,7.39,7.39,0,0,1-5.41,2.25H68.76v7.66H64.93V11.82H76.45a3.66,3.66,0,0,0,2.68-1.12A3.7,3.7,0,0,0,80.28,8a3.64,3.64,0,0,0-1.15-2.71,3.66,3.66,0,0,0-2.68-1.12H68.76L64.93.3H76.45a7.39,7.39,0,0,1,5.41,2.25A7.5,7.5,0,0,1,84.1,8Z"/>
          <path class="cls-2" d="M98.9.3V4.16H91.25V23.33H87.39V.3Z"/>
          <path class="cls-2" d="M137.57,13.74a6.48,6.48,0,0,1-4.75-2,6.59,6.59,0,0,1-2-4.78,6.5,6.5,0,0,1,2-4.72,6.39,6.39,0,0,1,4.75-2V4.16a2.88,2.88,0,0,0-1.12.2,2.62,2.62,0,0,0-1,.63,2.8,2.8,0,0,0-.81,2,2.83,2.83,0,0,0,.81,2,2.78,2.78,0,0,0,2.07.86h5.73A6.73,6.73,0,0,1,150,16.62a6.73,6.73,0,0,1-6.74,6.71V19.47a2.88,2.88,0,0,0,1.12-.2,2.67,2.67,0,0,0,1-.6,2.57,2.57,0,0,0,.6-.92,2.91,2.91,0,0,0,.23-1.12,2.86,2.86,0,0,0-.86-2,2.76,2.76,0,0,0-2-.86Z"/>
          <path class="cls-2" d="M165,.3V4.16H153.44L149.61.3ZM153.44,9.92H165v3.83H149.61V9.92Zm0,9.56H165v3.86H149.61V23Z"/>
          <path class="cls-2" d="M187.07.3v23L167.92,6.11V.3l15.32,13.79V.3Z"/>
          <path class="cls-2" d="M207.28,11.82a10.89,10.89,0,0,1-.89,4.43,12.56,12.56,0,0,1-2.48,3.69,11.69,11.69,0,0,1-3.69,2.48,11.06,11.06,0,0,1-4.46.92h-7.66l3.83-3.86h3.83a7.93,7.93,0,0,0,3-.58,7.55,7.55,0,0,0,2.45-1.67,8.32,8.32,0,0,0,1.64-2.45,7.58,7.58,0,0,0,0-5.93,7.88,7.88,0,0,0-1.67-2.45,8,8,0,0,0-2.45-1.67,7.89,7.89,0,0,0-3-.58h-3.83L188.11.3h7.66a11.16,11.16,0,0,1,4.46.92,11.89,11.89,0,0,1,3.66,2.48,12.11,12.11,0,0,1,2.5,3.69A10.89,10.89,0,0,1,207.28,11.82Z"/>
        </g>
        <g>
          <g class="cls-1">
            <ellipse class="cls-2" cx="119.12" cy="6.38" rx="1.49" ry="1.46"/>
          </g>
          <g class="cls-1">
            <path class="cls-2" d="M125.76,7.56a13.26,13.26,0,0,0-2.93-4.51A13.33,13.33,0,0,0,118.26.24a3.81,3.81,0,0,0-4,.82l-3.66,3.56a3.59,3.59,0,0,0-.78,4c.19.42.4.84.62,1.24l-8,7.86a.9.9,0,0,0-.27.64v4a.92.92,0,0,0,.93.91h4.1a.92.92,0,0,0,.93-.91V20.78h1.68a.92.92,0,0,0,.93-.91V18.23h1.68a.91.91,0,1,0,0-1.82h-2.61a.92.92,0,0,0-.93.91V19H107.2a.92.92,0,0,0-.93.91v1.64H104V18.79l8.26-8.08a.9.9,0,0,0,.14-1.12,14.64,14.64,0,0,1-.88-1.65,1.79,1.79,0,0,1,.39-2l3.66-3.56a1.91,1.91,0,0,1,2-.41,11.45,11.45,0,0,1,3.92,2.4A11.44,11.44,0,0,1,124,8.23a1.78,1.78,0,0,1-.42,1.95l-3.7,3.61a1.91,1.91,0,0,1-2.05.39,12.2,12.2,0,0,1-1.68-.84.94.94,0,0,0-1.28.3.9.9,0,0,0,.31,1.25,14.08,14.08,0,0,0,1.94,1,3.79,3.79,0,0,0,4.08-.78l3.7-3.61A3.58,3.58,0,0,0,125.76,7.56Z"/>
          </g>
        </g>
      </g>
    </g>
  </g>
</svg>
