<svg xmlns="http://www.w3.org/2000/svg" viewBox="0 0 136.65 251.03">
  <defs>
    <style>
      .cls-1 {
        opacity: 1;
      }

      .cls-2 {
        fill: #121820;
      }

      .cls-3 {
        fill: #253040;
      }

      .cls-4 {
        fill: #0b111a;
      }

      .cls-5 {
        fill: #0c2c9f;
      }

      .cls-6 {
        opacity: 0.42;
      }
    </style>
  </defs>
  <title>Asset 1</title>
  <g id="Layer_2" data-name="Layer 2">
    <g id="header">
      <g class="cls-1">
        <polygon class="cls-2" points="49.69 251.03 136.65 200.82 136.65 28.69 49.69 78.89 49.69 251.03"/>
        <polygon class="cls-3" points="57.97 83.67 128.37 43.03 128.37 196.04 57.97 236.68 57.97 83.67"/>
        <polygon class="cls-4" points="49.69 251.03 0 222.34 0 50.2 49.69 78.89 49.69 251.03"/>
        <polygon class="cls-3" points="0 50.2 86.96 0 136.65 28.69 49.69 78.89 0 50.2"/>
        <path class="cls-5" d="M43.34,166.69a3.85,3.85,0,0,0-1.61-3.07h0c-.89-.51-1.61,0-1.61,1.22v64.44a3.84,3.84,0,0,0,1.61,3.07h0c.89.51,1.61,0,1.61-1.21Z"/>
        <path class="cls-5" d="M34.55,161.61a3.85,3.85,0,0,0-1.61-3.07h0c-.89-.51-1.61,0-1.61,1.21V224.2a3.85,3.85,0,0,0,1.61,3.07h0c.89.51,1.61,0,1.61-1.22Z"/>
        <path class="cls-5" d="M25.76,156.54a3.84,3.84,0,0,0-1.61-3.07h0c-.89-.51-1.61,0-1.61,1.21v64.44a3.85,3.85,0,0,0,1.61,3.07h0c.89.51,1.61,0,1.61-1.22Z"/>
        <path class="cls-5" d="M17,151.47a3.85,3.85,0,0,0-1.61-3.07h0c-.89-.51-1.61,0-1.61,1.21v64.44a3.84,3.84,0,0,0,1.61,3.07h0c.89.51,1.61,0,1.61-1.21Z"/>
        <path class="cls-5" d="M8.18,146.4a3.84,3.84,0,0,0-1.61-3.07h0c-.89-.51-1.61,0-1.61,1.21V209a3.85,3.85,0,0,0,1.61,3.07h0c.89.51,1.61,0,1.61-1.22Z"/>
        <g class="cls-6">
          <g>
            <polygon points="73.89 103.17 73.89 92.64 83 87.38 83 97.9 73.89 103.17"/>
            <polygon points="84.29 97.15 84.29 86.63 93.4 81.36 93.4 91.89 84.29 97.15"/>
            <polygon points="94.69 91.14 94.69 80.61 103.8 75.35 103.8 85.87 94.69 91.14"/>
            <polygon points="105.09 85.12 105.09 74.6 114.21 69.33 114.21 79.86 105.09 85.12"/>
            <polygon points="115.49 79.11 115.49 68.58 124.61 63.32 124.61 73.84 115.49 79.11"/>
            <path d="M68.77,101.3c0-2.45-1.49-3.58-3.33-2.52a8,8,0,0,0-3.33,6.36c0,2.45,1.49,3.58,3.33,2.52A8,8,0,0,0,68.77,101.3Z"/>
          </g>
          <g>
            <polygon points="73.89 115.86 73.89 105.33 83 100.07 83 110.6 73.89 115.86"/>
            <polygon points="84.29 109.84 84.29 99.32 93.4 94.06 93.4 104.58 84.29 109.84"/>
            <polygon points="94.69 103.83 94.69 93.3 103.8 88.04 103.8 98.57 94.69 103.83"/>
            <polygon points="105.09 97.81 105.09 87.29 114.21 82.03 114.21 92.55 105.09 97.81"/>
            <polygon points="115.49 91.8 115.49 81.27 124.61 76.01 124.61 86.53 115.49 91.8"/>
            <path d="M68.77,114c0-2.45-1.49-3.58-3.33-2.52a8,8,0,0,0-3.33,6.36c0,2.45,1.49,3.58,3.33,2.52A8,8,0,0,0,68.77,114Z"/>
          </g>
          <g>
            <polygon points="73.89 135.78 73.89 125.26 83 120 83 130.52 73.89 135.78"/>
            <polygon points="84.29 129.77 84.29 119.24 93.4 113.98 93.4 124.51 84.29 129.77"/>
            <polygon points="94.69 123.75 94.69 113.23 103.8 107.97 103.8 118.49 94.69 123.75"/>
            <polygon points="105.09 117.74 105.09 107.21 114.21 101.95 114.21 112.47 105.09 117.74"/>
            <polygon points="115.49 111.72 115.49 101.2 124.61 95.94 124.61 106.46 115.49 111.72"/>
            <path d="M68.77,133.91c0-2.45-1.49-3.58-3.33-2.52a8,8,0,0,0-3.33,6.36c0,2.45,1.49,3.58,3.33,2.52A8,8,0,0,0,68.77,133.91Z"/>
          </g>
          <g>
            <polygon points="73.89 148.48 73.89 137.95 83 132.69 83 143.22 73.89 148.48"/>
            <polygon points="84.29 142.46 84.29 131.94 93.4 126.67 93.4 137.2 84.29 142.46"/>
            <polygon points="94.69 136.44 94.69 125.92 103.8 120.66 103.8 131.18 94.69 136.44"/>
            <polygon points="105.09 130.43 105.09 119.91 114.21 114.64 114.21 125.17 105.09 130.43"/>
            <polygon points="115.49 124.41 115.49 113.89 124.61 108.63 124.61 119.15 115.49 124.41"/>
            <path d="M68.77,146.61c0-2.45-1.49-3.58-3.33-2.52a8,8,0,0,0-3.33,6.36c0,2.45,1.49,3.58,3.33,2.52A8,8,0,0,0,68.77,146.61Z"/>
          </g>
          <g>
            <polygon points="73.89 168.4 73.89 157.88 83 152.62 83 163.14 73.89 168.4"/>
            <polygon points="84.29 162.38 84.29 151.86 93.4 146.6 93.4 157.12 84.29 162.38"/>
            <polygon points="94.69 156.37 94.69 145.84 103.8 140.58 103.8 151.11 94.69 156.37"/>
            <polygon points="105.09 150.35 105.09 139.83 114.21 134.57 114.21 145.09 105.09 150.35"/>
            <polygon points="115.49 144.34 115.49 133.81 124.61 128.55 124.61 139.08 115.49 144.34"/>
            <path d="M68.77,166.53c0-2.45-1.49-3.58-3.33-2.52a8,8,0,0,0-3.33,6.36c0,2.45,1.49,3.58,3.33,2.52A8,8,0,0,0,68.77,166.53Z"/>
          </g>
          <g>
            <polygon points="73.89 181.09 73.89 170.57 83 165.31 83 175.83 73.89 181.09"/>
            <polygon points="84.29 175.08 84.29 164.55 93.4 159.29 93.4 169.82 84.29 175.08"/>
            <polygon points="94.69 169.06 94.69 158.54 103.8 153.28 103.8 163.8 94.69 169.06"/>
            <polygon points="105.09 163.05 105.09 152.52 114.21 147.26 114.21 157.78 105.09 163.05"/>
            <polygon points="115.49 157.03 115.49 146.51 124.61 141.24 124.61 151.77 115.49 157.03"/>
            <path d="M68.77,179.22c0-2.45-1.49-3.58-3.33-2.52a8,8,0,0,0-3.33,6.36c0,2.45,1.49,3.58,3.33,2.52A8,8,0,0,0,68.77,179.22Z"/>
          </g>
          <g>
            <polygon points="73.89 200.36 73.89 189.83 83 184.57 83 195.09 73.89 200.36"/>
            <polygon points="84.29 194.34 84.29 183.81 93.4 178.55 93.4 189.08 84.29 194.34"/>
            <polygon points="94.69 188.32 94.69 177.8 103.8 172.54 103.8 183.06 94.69 188.32"/>
            <polygon points="105.09 182.31 105.09 171.78 114.21 166.52 114.21 177.05 105.09 182.31"/>
            <polygon points="115.49 176.29 115.49 165.77 124.61 160.51 124.61 171.03 115.49 176.29"/>
            <path d="M68.77,198.48c0-2.45-1.49-3.58-3.33-2.51a8,8,0,0,0-3.33,6.36c0,2.45,1.49,3.58,3.33,2.52A8,8,0,0,0,68.77,198.48Z"/>
          </g>
          <g>
            <polygon points="73.89 213.05 73.89 202.52 83 197.26 83 207.78 73.89 213.05"/>
            <polygon points="84.29 207.03 84.29 196.51 93.4 191.25 93.4 201.77 84.29 207.03"/>
            <polygon points="94.69 201.02 94.69 190.49 103.8 185.23 103.8 195.76 94.69 201.02"/>
            <polygon points="105.09 195 105.09 184.48 114.21 179.22 114.21 189.74 105.09 195"/>
            <polygon points="115.49 188.99 115.49 178.46 124.61 173.2 124.61 183.72 115.49 188.99"/>
            <path d="M68.77,211.18c0-2.45-1.49-3.58-3.33-2.52A8,8,0,0,0,62.11,215c0,2.45,1.49,3.58,3.33,2.52A8,8,0,0,0,68.77,211.18Z"/>
          </g>
        </g>
      </g>
    </g>
  </g>
</svg>
