<svg xmlns="http://www.w3.org/2000/svg" viewBox="0 0 186 186">
  <defs>
    <style>
      .cls-1, .cls-6 {
        fill: #474646;
      }

      .cls-2 {
        fill: #a5a5a5;
      }

      .cls-3 {
        fill: #495f7f;
      }

      .cls-4 {
        fill: #355ff2;
      }

      .cls-5 {
        fill: #f13e41;
      }

      .cls-6 {
        opacity: 0.15;
        isolation: isolate;
      }
    </style>
  </defs>
  <title>crypto-icon</title>
  <g id="Layer_2" data-name="Layer 2">
    <g id="section">
      <g>
        <rect class="cls-1" x="15.5" y="83.7" width="12.4" height="6.2"/>
        <path class="cls-1" d="M65.1,55.8H58.9V12.4H15.5V6.2H62a3.1,3.1,0,0,1,3.1,3.1Z"/>
        <rect class="cls-1" x="37.2" y="43.4" width="6.2" height="20.2"/>
        <path class="cls-1" d="M99.2,86.8H93V9.3a3.1,3.1,0,0,1,3.1-3.1h46.5v6.2H99.2Z"/>
      </g>
      <path class="cls-2" d="M99.2,105.4V89.9a37.2,37.2,0,0,0-74.4,0v15.5H15.5v77.5h93V105.4Zm-18.6,0H43.4V89.9a18.6,18.6,0,0,1,37.2,0Z"/>
      <path class="cls-3" d="M62,120.9A12.36,12.36,0,0,0,55.8,144V167.4H68.2V144A12.36,12.36,0,0,0,62,120.9Z"/>
      <g>
        <rect class="cls-1" x="136.4" y="40.3" width="6.2" height="15.5"/>
        <path class="cls-1" d="M176.7,89.9h-6.2V83.7h3.1V46.5h6.2V86.8A3.1,3.1,0,0,1,176.7,89.9Z"/>
      </g>
      <g>
        <circle class="cls-4" cx="9.3" cy="86.8" r="9.3"/>
        <circle class="cls-4" cx="40.3" cy="37.2" r="9.3"/>
        <circle class="cls-4" cx="9.3" cy="9.3" r="9.3"/>
        <circle class="cls-4" cx="148.8" cy="9.3" r="9.3"/>
        <circle class="cls-4" cx="139.5" cy="34.1" r="9.3"/>
        <circle class="cls-4" cx="176.7" cy="40.3" r="9.3"/>
      </g>
      <g>
        <path class="cls-1" d="M111.6,52.7h-6.2V31a3.09,3.09,0,0,1,.91-2.19l9.3-9.3a3.09,3.09,0,0,1,2.19-.91H124v6.2h-4.92l-7.48,7.48Z"/>
        <rect class="cls-1" x="71.3" width="6.2" height="37.2"/>
        <path class="cls-1" d="M21.7,71.3H15.5v-14L1.16,45.82A3.1,3.1,0,0,1,0,43.4V24.8H6.2V41.91L20.54,53.38A3.1,3.1,0,0,1,21.7,55.8V71.3Z"/>
        <path class="cls-1" d="M186,24.8h-6.2V6.2H164.3V0h18.6A3.1,3.1,0,0,1,186,3.1Z"/>
      </g>
      <path class="cls-5" d="M170.5,167.4H151.9v-6.2h9.3a3.1,3.1,0,0,0,3.1-3.1V145.7a3.1,3.1,0,0,0-3.1-3.1h-9.3v-24a34.1,34.1,0,1,0-24.8,0V182.9a3.1,3.1,0,0,0,3.1,3.1h40.3a3.1,3.1,0,0,0,3.1-3.1V170.5A3.1,3.1,0,0,0,170.5,167.4Zm-31-96.1A15.5,15.5,0,1,1,124,86.8,15.5,15.5,0,0,1,139.5,71.3Z"/>
      <g>
        <path class="cls-6" d="M155,86.8a15.45,15.45,0,0,1-13.95,15.35c.52,0,1,.16,1.55.16a15.5,15.5,0,1,0,0-31c-.53,0-1,.11-1.55.16A15.45,15.45,0,0,1,155,86.8Z"/>
        <path class="cls-6" d="M130.2,182.9V118.57a34.08,34.08,0,0,1,10.85-65.8c-.52,0-1-.08-1.55-.08a34.1,34.1,0,0,0-12.4,65.87V182.9a3.1,3.1,0,0,0,3.1,3.1h3.1A3.1,3.1,0,0,1,130.2,182.9Z"/>
        <path class="cls-6" d="M96.1,89.9v15.5h3.1V89.9A37.24,37.24,0,0,0,62,52.7c-.52,0-1,.06-1.55.08A37.21,37.21,0,0,1,96.1,89.9Z"/>
        <rect class="cls-6" x="105.4" y="105.4" width="3.1" height="77.5"/>
        <path class="cls-6" d="M40.3,89.9v15.5h3.1V89.9a18.6,18.6,0,0,1,17-18.52c-.51,0-1-.08-1.55-.08A18.6,18.6,0,0,0,40.3,89.9Z"/>
        <path class="cls-6" d="M62,120.9a12.9,12.9,0,0,0-1.55.16A12.32,12.32,0,0,1,65.1,144v23.4h3.1V144A12.36,12.36,0,0,0,62,120.9Z"/>
      </g>
    </g>
  </g>
</svg>
