<svg xmlns="http://www.w3.org/2000/svg" viewBox="0 0 69.98 69.98">
  <defs>
    <style>
      .cls-1 {
        fill: none;
        stroke: #495f7f;
        stroke-miterlimit: 10;
        stroke-width: 2px;
      }

      .cls-1, .cls-2 {
        opacity: 0.41;
      }

      .cls-3 {
        fill: #495f7f;
      }
    </style>
  </defs>
  <title>Asset 7</title>
  <g id="Layer_2" data-name="Layer 2">
    <g id="section">
      <g>
        <rect class="cls-1" x="1" y="1" width="67.98" height="67.98"/>
        <g class="cls-2">
          <g>
            <path class="cls-3" d="M15.47,31.78h0C15.45,31.93,15.44,32,15.47,31.78Z"/>
            <polygon class="cls-3" points="15.47 31.77 15.47 31.77 15.47 31.77 15.47 31.77"/>
            <path class="cls-3" d="M54.19,30.25c-.18,1.34-.37,2-.56,2.08,0,0-.07-7.18-2.45-9.57.41,4.19,0,2.5,0,2.52a18.66,18.66,0,0,0-30.52-2.61l-.09-.09c-.54-.49-.85-2.85-.85-2.85v0s0,0,0,0h0l0,0,0,0,0,0,0,0,0,0,0,0,0,0,0,0,0,0,0,0,0,0,0,0a8.76,8.76,0,0,0-1.36,2.75c-.24,1.14,0,0,0,0v0h0A16.72,16.72,0,0,0,17.68,27l0,0a8.83,8.83,0,0,0-2.06,4l-.11.78h0c0,.06,0,.12,0,.18l0,0a1.81,1.81,0,0,0,.06.45l1.06-.86c0,.1,0,.2-.05.3a13,13,0,0,0-.7,2.94,15.61,15.61,0,0,0,2,9.34s.67,1.21,1.08,1.79l.16.25h0a19.1,19.1,0,0,0,29.64,1.59h.07c.23-.28.45-.57.67-.86a19.76,19.76,0,0,0,1.61-2.3h0A21.59,21.59,0,0,0,54,36.94,13.41,13.41,0,0,0,54.19,30.25ZM20.65,22.7v0l0,0v0l.08.07Zm28.16,6.7a2.81,2.81,0,0,0-1.59-1.22q1.24,4.83.24,8a6,6,0,0,0-1.26-2.53q.79,6.47-2.13,9.58a8.52,8.52,0,0,0,.43-3.13q-3.42,5.12-7.78,5.29a10.92,10.92,0,0,1-3.26-.52H33.4l-.3-.11h0l-.26-.1-.25-.11-.25-.11-.23-.12-.23-.12L31.67,44l-.22-.13-.21-.13-.2-.14-.2-.14-.19-.15-.19-.15-.19-.15-.18-.15-.18-.16-.17-.16-.17-.16-.13-.13h2l.14,0,.15,0,.14,0,.14,0,.15,0,.15,0,.15,0,.15,0,.15,0,.15,0L33,42l.16,0,.15,0,.16-.06.16-.06.16-.06.16-.06.17-.08.17-.08.17-.08.08,0,.11-.07.19-.12L35,41l.19-.12.19-.12.19-.12.19-.12.19-.12.19-.12.19-.12.19-.12.19-.12.19-.12.09-.06h0a1.13,1.13,0,0,1,.92,0c.61-.08.82-.41.62-.95a4,4,0,0,0-1.31-1.09,3.69,3.69,0,0,0-3.89.31A3.38,3.38,0,0,1,29.63,38a10.85,10.85,0,0,1-2.29-2.18l-.3-.43a.25.25,0,0,0,0,.05.29.29,0,0,1,0-.06h0s0,0,0,0a2.46,2.46,0,0,1,0-.3,2,2,0,0,1,.08-.33,1.31,1.31,0,0,1,.24-.44,1.15,1.15,0,0,1,.52-.35l.26-.06H28l-.37,0-.37,0h-.38l-.3,0h-.08l-.3,0h.34l.5,0,1.05.08a15.33,15.33,0,0,1,2.79.56,4.54,4.54,0,0,0-.69-3.13v0a1.5,1.5,0,0,0-.23-.36l.1.11a1.56,1.56,0,0,1,.13.21l0,.07.08-.07.12-.11.13-.11.13-.11.12-.11.12-.11.13-.1.13-.1.12-.1.12-.1.13-.1.13-.1.12-.09.12-.09.13-.09.12-.09.12-.09.13-.08.13-.08.12-.08.12-.08,0,0L33,29.2l.12-.08a1,1,0,0,0,.13-.13,1,1,0,0,0,.12-.19,1.22,1.22,0,0,0,.12-.34l0,0h0l0,0c.19-.28.13-.52-.2-.72a18.16,18.16,0,0,1-2.08-.12h0a6,6,0,0,1-2.53-2.11l0,0-.05-.07h.09v-.06s0,0,0,0c-.31-2.49,3-4.13,3-4.13s-3.93,1.1-5.16,2.53h0v0h-.05l-.07,0a7.38,7.38,0,0,0-4.32.28h-.15a2.61,2.61,0,0,1-.93-.79,18.12,18.12,0,0,1,25.61-2.53A10.11,10.11,0,0,0,45,20a22.41,22.41,0,0,0-5.7-.82,11.25,11.25,0,0,1,2.44.73l.12,0a3.6,3.6,0,0,1,1.85,1.65,4.65,4.65,0,0,0-2.56.18Q49.24,25,48.81,29.39Z"/>
            <path class="cls-3" d="M15.56,31.08a4.71,4.71,0,0,0-.09.66l.1-.69Z"/>
            <path class="cls-3" d="M15.48,31.74a.25.25,0,0,1,0,0h0A.2.2,0,0,1,15.48,31.74Z"/>
          </g>
        </g>
      </g>
    </g>
  </g>
</svg>
