<svg xmlns="http://www.w3.org/2000/svg" viewBox="0 0 222.77 242.69">
  <defs>
    <style>
      .cls-1 {
        fill: #1e1e1e;
      }

      .cls-2 {
        fill: #3a3a3a;
      }

      .cls-3 {
        fill: #6f89e5;
      }

      .cls-4 {
        fill: #666;
      }

      .cls-5 {
        fill: #005875;
      }

      .cls-6 {
        fill: #2c9ab7;
      }

      .cls-7 {
        opacity: 0.63;
      }

      .cls-8 {
        fill: #fff;
      }
    </style>
  </defs>
  <title>laptop</title>
  <g id="Layer_2" data-name="Layer 2">
    <g id="section">
      <g>
        <g>
          <g>
            <path class="cls-1" d="M141.89,110.22c.14-2,0-4,0-5.83V9a3.67,3.67,0,0,0-2.24-3.66c-1.06-.63-2.14-1.3-3.25-1.85s-2.15-1.3-3.25-1.85S130.57-.19,129.27,0a5.16,5.16,0,0,0-1.68.75L114.31,8.43,88.64,23.26,57.72,41.11l-29,16.76L8.7,69.41,4.33,71.94a9.2,9.2,0,0,0-4.33,8v81.81H0s0,2.54,0,2.84v16.37c0,.1,0,.2,0,.3a6,6,0,0,0,.07.69c0,.05,0,.11,0,.16s0,.15.06.22a2.83,2.83,0,0,0,1,1.66,19.5,19.5,0,0,0,3,1.72c1.13.67,2.26,1.35,3.41,2S9.79,189,11,189.57a1.8,1.8,0,0,0,.18.07l0,0a2.4,2.4,0,0,0,.62.2,2.63,2.63,0,0,0,2-.33l.09-.05a29.23,29.23,0,0,0,2.59-1.5l1.12-.65,16.49-9.52L43,172.65l.58-.34,1.58-.91L62,161.68l3.55-2,8-4.6,29-16.76,6.86-4,18.46-10.66.23-.13,8.19-4.73.12-.07,1.56-.9a7.45,7.45,0,0,0,3.51-5A12,12,0,0,0,141.89,110.22Z"/>
            <path class="cls-2" d="M138,6.07,13.79,77.79C11.63,79,9.88,82.38,9.88,85.26V186.58c0,2.88,1.75,4.2,3.91,3L138,117.81c2.16-1.25,3.91-4.59,3.91-7.47V9C141.92,6.15,140.16,4.83,138,6.07Z"/>
            <polygon class="cls-3" points="14.66 84.04 137.13 13.34 137.13 109.9 14.66 180.61 14.66 84.04"/>
          </g>
          <g>
            <path class="cls-4" d="M12.25,192.48l126.12-69.84c3.44-2,9.46-1.74,13.43.56l67.67,38.91c1.29.74,2.74-1.64,3.27-.74,0,0,0,4.58,0,5.25a4,4,0,0,1-2.32,3.25L96.64,241.35c-3.44,2-9.45,1.74-13.43-.56L15.54,201.88c-2.05-1.19-3.16-2.69-3.28-4.13S12.25,192.48,12.25,192.48Z"/>
            <path class="cls-1" d="M83.21,235.93c4,2.3,10,2.55,13.43.56L220.44,165c3.44-2,3-5.46-1-7.76l-67.67-38.91c-4-2.3-10-2.54-13.43-.56L14.57,189.26c-3.44,2-3,5.46,1,7.75Z"/>
            <g>
              <path class="cls-5" d="M156,139.24,151,142.08a2.13,2.13,0,0,1-1.92-.08l-5.68-3.28a.81.81,0,0,1-.47-.61s0,0,0,0,0,0,0,0,0,0,0,0,0,0,0,0,0,0,0,0,0,0,0,0,0,0,0,0,0,0,0,0,0,0,0,0,0,0,0,0,0,0,0,0,0,0,0,0,0,0,0,0,0,0,0,0,0,0,0,0,0,0,0,0,0,0,0,0,0,0,0,0,0,0,0,0,0,0,0,0,0,0,0,0,0,0,0,0,0,0,0,0,0,0,0,0,0,0,0,0,0,0,0,0,0,0,0,0,0,0,0,0,0,0,0,0,0,0,0,0a.55.55,0,0,1,.33-.54l4.92-2.84a2.13,2.13,0,0,1,1.92.08l5.68,3.28a.8.8,0,0,1,.47.6s0,0,0,0,0,0,0,0,0,0,0,0,0,0,0,0,0,0,0,0,0,0,0,0,0,0,0,0,0,0,0,0,0,0,0,0,0,0,0,0,0,0,0,0,0,0,0,0,0,0,0,0,0,0,0,0,0,0,0,0,0,0,0,0,0,0,0,0,0,0,0,0,0,0,0,0,0,0,0,0,0,0,0,0,0,0,0,0,0,0,0,0,0,0,0,0,0,0,0,0,0,0,0,0,0,0,0,0,0,0,0,0,0,0,0,0,0,0,0,0A.55.55,0,0,1,156,139.24Z"/>
              <path class="cls-5" d="M96.52,173.57l-4.92,2.84a2.13,2.13,0,0,1-1.92-.08L84,173a.81.81,0,0,1-.46-.61s0,0,0,0,0,0,0,0,0,0,0,0,0,0,0,0,0,0,0,0,0,0,0,0,0,0,0,0,0,0,0,0,0,0,0,0,0,0,0,0,0,0,0,0,0,0,0,0,0,0,0,0,0,0,0,0,0,0,0,0,0,0,0,0,0,0,0,0,0,0,0,0,0,0,0,0,0,0,0,0,0,0,0,0,0,0,0,0,0,0,0,0,0,0,0,0,0,0,0,0,0,0,0,0,0,0,0,0,0,0,0,0,0,0,0,0,0,0,0,0a.55.55,0,0,1,.33-.54l4.92-2.84a2.14,2.14,0,0,1,1.92.08l5.68,3.28a.8.8,0,0,1,.46.61s0,0,0,0,0,0,0,0,0,0,0,0,0,0,0,0,0,0,0,0,0,0,0,0,0,0,0,0,0,0,0,0,0,0,0,0,0,0,0,0,0,0,0,0,0,0,0,0,0,0,0,0,0,0,0,0,0,0,0,0,0,0,0,0,0,0,0,0,0,0,0,0,0,0,0,0,0,0,0,0,0,0,0,0,0,0,0,0,0,0,0,0,0,0,0,0,0,0,0,0,0,0,0,0,0,0,0,0,0,0,0,0,0,0,0,0,0,0,0,0A.55.55,0,0,1,96.52,173.57Z"/>
              <path class="cls-5" d="M174.63,140.21,169.71,143a2.13,2.13,0,0,1-1.92-.08l-5.68-3.28a.8.8,0,0,1-.46-.6s0,0,0,0,0,0,0,0,0,0,0,0,0,0,0,0,0,0,0,0,0,0,0,0,0,0,0,0,0,0,0,0,0,0,0,0,0,0,0,0,0,0,0,0,0,0,0,0,0,0,0,0,0,0,0,0,0,0,0,0,0,0,0,0,0,0,0,0,0,0,0,0,0,0,0,0,0,0,0,0,0,0,0,0,0,0,0,0,0,0,0,0,0,0,0,0,0,0,0,0,0,0,0,0,0,0,0,0,0,0,0,0,0,0,0,0,0,0,0,0a.55.55,0,0,1,.33-.54l4.92-2.84a2.13,2.13,0,0,1,1.92.08l5.68,3.28a.79.79,0,0,1,.46.6.22.22,0,0,1,0,0,.22.22,0,0,1,0,0,.2.2,0,0,1,0,0,.23.23,0,0,1,0,0,.22.22,0,0,1,0,0,.23.23,0,0,1,0,0,.22.22,0,0,1,0,0,.2.2,0,0,1,0,0,.23.23,0,0,1,0,0,.22.22,0,0,1,0,0,.22.22,0,0,1,0,0,.22.22,0,0,1,0,0,.22.22,0,0,1,0,0,.22.22,0,0,1,0,0,.23.23,0,0,1,0,0,.2.2,0,0,1,0,0,.23.23,0,0,1,0,0,.22.22,0,0,1,0,0,.22.22,0,0,1,0,0,.23.23,0,0,1,0,0,.22.22,0,0,1,0,0,.2.2,0,0,1,0,0,.22.22,0,0,1,0,0,.22.22,0,0,1,0,0,.23.23,0,0,1,0,0,.2.2,0,0,1,0,0,.22.22,0,0,1,0,0,.23.23,0,0,1,0,0,.23.23,0,0,1,0,0,.22.22,0,0,1,0,0A.55.55,0,0,1,174.63,140.21Z"/>
              <path class="cls-5" d="M166.13,145.11,161.22,148a2.14,2.14,0,0,1-1.92-.08l-5.68-3.28a.8.8,0,0,1-.46-.61s0,0,0,0,0,0,0,0,0,0,0,0,0,0,0,0,0,0,0,0a.39.39,0,0,1,0,0s0,0,0,0,0,0,0,0,0,0,0,0,0,0,0,0,0,0,0,0,0,0,0,0,0,0,0,0,0,0,0,0,0,0,0,0,0,0,0,0,0,0,0,0,0,0,0,0,0,0,0,0,0,0,0,0,0,0,0,0,0,0,0,0,0,0,0,0,0,0,0,0,0,0,0,0,0,0,0,0,0,0,0,0,0,0,0,0,0,0,0,0,0,0,0,0a.55.55,0,0,1,.33-.54l4.92-2.84a2.13,2.13,0,0,1,1.92.08l5.68,3.28a.8.8,0,0,1,.46.61.23.23,0,0,1,0,0,.23.23,0,0,1,0,0,.2.2,0,0,1,0,0,.22.22,0,0,1,0,0,.22.22,0,0,1,0,0,.23.23,0,0,1,0,0,.22.22,0,0,1,0,0,.22.22,0,0,1,0,0,.22.22,0,0,1,0,0,.22.22,0,0,1,0,0,.23.23,0,0,1,0,0,.22.22,0,0,1,0,0,.22.22,0,0,1,0,0,.22.22,0,0,1,0,0,.2.2,0,0,1,0,0,.22.22,0,0,1,0,0,.23.23,0,0,1,0,0,.22.22,0,0,1,0,0,.22.22,0,0,1,0,0,.23.23,0,0,1,0,0,.22.22,0,0,1,0,0,.29.29,0,0,1,0,0,.22.22,0,0,1,0,0,.22.22,0,0,1,0,0,.22.22,0,0,1,0,0,.2.2,0,0,1,0,0,.23.23,0,0,1,0,0,.22.22,0,0,1,0,0,.22.22,0,0,1,0,0,.22.22,0,0,1,0,0A.54.54,0,0,1,166.13,145.11Z"/>
              <path class="cls-5" d="M157.64,150l-4.92,2.84a2.12,2.12,0,0,1-1.92-.08l-5.68-3.28a.79.79,0,0,1-.47-.61.22.22,0,0,1,0,0,.22.22,0,0,1,0,0,.22.22,0,0,1,0,0,.22.22,0,0,1,0,0,.23.23,0,0,1,0,0,.22.22,0,0,1,0,0,.22.22,0,0,1,0,0,.22.22,0,0,1,0,0,.2.2,0,0,1,0,0,.23.23,0,0,1,0,0,.22.22,0,0,1,0,0,.22.22,0,0,1,0,0,.22.22,0,0,1,0,0,.22.22,0,0,1,0,0,.23.23,0,0,1,0,0,.22.22,0,0,1,0,0,.22.22,0,0,1,0,0,.22.22,0,0,1,0,0,.22.22,0,0,1,0,0,.22.22,0,0,1,0,0,.22.22,0,0,1,0,0,.22.22,0,0,1,0,0,.22.22,0,0,1,0,0,.22.22,0,0,1,0,0,.23.23,0,0,1,0,0,.22.22,0,0,1,0,0,.22.22,0,0,1,0,0,.22.22,0,0,1,0,0,.22.22,0,0,1,0,0,.23.23,0,0,1,0,0,.55.55,0,0,1,.33-.54l4.92-2.84a2.13,2.13,0,0,1,1.92.08l5.68,3.28a.8.8,0,0,1,.47.61s0,0,0,0,0,0,0,0,0,0,0,0,0,0,0,0,0,0,0,0,0,0,0,0,0,0,0,0,0,0,0,0,0,0,0,0,0,0,0,0,0,0,0,0,0,0,0,0,0,0,0,0,0,0,0,0,0,0,0,0,0,0,0,0,0,0,0,0,0,0,0,0,0,0,0,0,0,0,0,0,0,0,0,0,0,0,0,0,0,0,0,0,0,0,0,0,0,0,0,0,0,0,0,0,0,0,0,0,0,0,0,0,0,0,0,0,0,0,0,0A.55.55,0,0,1,157.64,150Z"/>
              <path class="cls-5" d="M149.15,154.92l-4.92,2.84a2.13,2.13,0,0,1-1.92-.08l-5.68-3.28a.81.81,0,0,1-.47-.61s0,0,0,0,0,0,0,0,0,0,0,0,0,0,0,0,0,0,0,0,0,0,0,0,0,0,0,0,0,0,0,0,0,0,0,0,0,0,0,0,0,0,0,0,0,0,0,0,0,0,0,0,0,0,0,0,0,0,0,0,0,0,0,0,0,0,0,0,0,0,0,0,0,0,0,0,0,0,0,0,0,0,0,0,0,0,0,0,0,0,0,0,0,0,0,0,0,0,0,0,0,0,0,0,0,0,0,0,0,0,0,0,0,0,0,0,0,0,0,0a.55.55,0,0,1,.33-.54l4.92-2.84a2.13,2.13,0,0,1,1.92.08l5.68,3.28a.79.79,0,0,1,.46.6.26.26,0,0,1,0,0,.2.2,0,0,1,0,0,.24.24,0,0,1,0,0,.23.23,0,0,1,0,0,.23.23,0,0,1,0,0,.23.23,0,0,1,0,0,.23.23,0,0,1,0,0,.23.23,0,0,1,0,0,.23.23,0,0,1,0,0,.24.24,0,0,1,0,0,.23.23,0,0,1,0,0,.23.23,0,0,1,0,0,.23.23,0,0,1,0,0,.23.23,0,0,1,0,0,.23.23,0,0,1,0,0,.24.24,0,0,1,0,0,.23.23,0,0,1,0,0,.23.23,0,0,1,0,0,.23.23,0,0,1,0,0,.23.23,0,0,1,0,0,.24.24,0,0,1,0,0,.23.23,0,0,1,0,0,.23.23,0,0,1,0,0,.23.23,0,0,1,0,0,.23.23,0,0,1,0,0,.24.24,0,0,1,0,0,.23.23,0,0,1,0,0,.23.23,0,0,1,0,0,.23.23,0,0,1,0,0,.23.23,0,0,1,0,0A.55.55,0,0,1,149.15,154.92Z"/>
              <path class="cls-5" d="M140.66,159.82l-4.92,2.84a2.13,2.13,0,0,1-1.92-.08l-5.68-3.28a.8.8,0,0,1-.47-.6s0,0,0,0,0,0,0,0,0,0,0,0,0,0,0,0,0,0,0,0,0,0,0,0,0,0,0,0,0,0,0,0,0,0,0,0,0,0,0,0,0,0,0,0,0,0,0,0,0,0,0,0,0,0,0,0,0,0,0,0,0,0,0,0,0,0,0,0,0,0,0,0,0,0,0,0,0,0,0,0,0,0,0,0,0,0,0,0,0,0,0,0,0,0,0,0,0,0,0,0,0,0,0,0,0,0,0,0,0,0,0,0,0,0,0,0,0,0,0,0a.55.55,0,0,1,.33-.54l4.92-2.84a2.14,2.14,0,0,1,1.92.08l5.68,3.28a.8.8,0,0,1,.47.6.23.23,0,0,1,0,0,.24.24,0,0,1,0,0,.23.23,0,0,1,0,0,.23.23,0,0,1,0,0,.23.23,0,0,1,0,0,.23.23,0,0,1,0,0,.23.23,0,0,1,0,0,.24.24,0,0,1,0,0,.23.23,0,0,1,0,0,.23.23,0,0,1,0,0,.23.23,0,0,1,0,0,.23.23,0,0,1,0,0,.24.24,0,0,1,0,0,.23.23,0,0,1,0,0,.23.23,0,0,1,0,0,.23.23,0,0,1,0,0,.23.23,0,0,1,0,0,.24.24,0,0,1,0,0,.21.21,0,0,1,0,0,.24.24,0,0,1,0,0,.23.23,0,0,1,0,0,.23.23,0,0,1,0,0,.23.23,0,0,1,0,0,.24.24,0,0,1,0,0,.23.23,0,0,1,0,0,.23.23,0,0,1,0,0,.23.23,0,0,1,0,0,.21.21,0,0,1,0,0,.26.26,0,0,1,0,0s0,0,0,0A.55.55,0,0,1,140.66,159.82Z"/>
              <path class="cls-5" d="M132.16,164.72l-4.92,2.84a2.13,2.13,0,0,1-1.92-.08l-5.68-3.28a.81.81,0,0,1-.47-.6s0,0,0,0,0,0,0,0,0,0,0,0,0,0,0,0,0,0,0,0,0,0,0,0,0,0,0,0,0,0,0,0,0,0,0,0,0,0,0,0,0,0,0,0,0,0,0,0,0,0,0,0,0,0,0,0,0,0,0,0,0,0,0,0,0,0,0,0,0,0,0,0,0,0,0,0,0,0,0,0,0,0,0,0,0,0,0,0,0,0,0,0,0,0,0,0,0,0,0,0,0,0,0,0,0,0,0,0,0,0,0,0,0,0,0,0,0,0,0,0a.55.55,0,0,1,.33-.54l4.92-2.84a2.14,2.14,0,0,1,1.92.08l5.68,3.28a.79.79,0,0,1,.46.61s0,0,0,0,0,0,0,0,0,0,0,0,0,0,0,0,0,0,0,0,0,0,0,0,0,0,0,0,0,0,0,0,0,0,0,0,0,0,0,0,0,0,0,0,0,0,0,0,0,0,0,0,0,0,0,0,0,0,0,0a.26.26,0,0,1,0,0s0,0,0,0,0,0,0,0,0,0,0,0,0,0,0,0,0,0,0,0,0,0,0,0,0,0,0,0,0,0,0,0,0,0,0,0,0,0,0,0,0,0,0,0,0,0,0,0,0,0,0,0,0,0,0,0A.54.54,0,0,1,132.16,164.72Z"/>
              <path class="cls-5" d="M123.67,169.63l-4.92,2.84a2.13,2.13,0,0,1-1.92-.08l-5.68-3.28a.79.79,0,0,1-.46-.61.22.22,0,0,1,0,0,.23.23,0,0,1,0,0,.22.22,0,0,1,0,0,.22.22,0,0,1,0,0,.22.22,0,0,1,0,0,.22.22,0,0,1,0,0,.23.23,0,0,1,0,0,.22.22,0,0,1,0,0,.22.22,0,0,1,0,0,.22.22,0,0,1,0,0,.2.2,0,0,1,0,0,.23.23,0,0,1,0,0,.23.23,0,0,1,0,0,.22.22,0,0,1,0,0,.22.22,0,0,1,0,0,.2.2,0,0,1,0,0,.23.23,0,0,1,0,0,.22.22,0,0,1,0,0,.22.22,0,0,1,0,0,.22.22,0,0,1,0,0,.22.22,0,0,1,0,0,.22.22,0,0,1,0,0,.22.22,0,0,1,0,0,.22.22,0,0,1,0,0,.22.22,0,0,1,0,0,.22.22,0,0,1,0,0,.23.23,0,0,1,0,0,.22.22,0,0,1,0,0,.22.22,0,0,1,0,0,.22.22,0,0,1,0,0,.54.54,0,0,1,.33-.54l4.92-2.84a2.14,2.14,0,0,1,1.92.08l5.68,3.28a.81.81,0,0,1,.47.61s0,0,0,0,0,0,0,0,0,0,0,0,0,0,0,0,0,0,0,0,0,0,0,0,0,0,0,0,0,0,0,0,0,0,0,0,0,0,0,0,0,0,0,0,0,0,0,0,0,0,0,0,0,0,0,0,0,0,0,0,0,0,0,0,0,0,0,0,0,0,0,0,0,0,0,0,0,0,0,0,0,0,0,0,0,0,0,0,0,0,0,0,0,0,0,0,0,0,0,0,0,0,0,0,0,0,0,0,0,0,0,0,0,0,0,0,0,0,0,0A.55.55,0,0,1,123.67,169.63Z"/>
              <path class="cls-5" d="M98.19,184.34l-4.92,2.84a2.13,2.13,0,0,1-1.92-.08l-5.68-3.28a.8.8,0,0,1-.46-.61.2.2,0,0,1,0,0,.23.23,0,0,1,0,0,.22.22,0,0,1,0,0,.2.2,0,0,1,0,0,.22.22,0,0,1,0,0,.24.24,0,0,1,0,0,.2.2,0,0,1,0,0,.22.22,0,0,1,0,0,.23.23,0,0,1,0,0,.22.22,0,0,1,0,0,.2.2,0,0,1,0,0,.22.22,0,0,1,0,0,.22.22,0,0,1,0,0,.22.22,0,0,1,0,0,.22.22,0,0,1,0,0,.23.23,0,0,1,0,0,.22.22,0,0,1,0,0,.24.24,0,0,1,0,0,.19.19,0,0,1,0,0,.22.22,0,0,1,0,0,.23.23,0,0,1,0,0,.22.22,0,0,1,0,0,.22.22,0,0,1,0,0,.22.22,0,0,1,0,0,.22.22,0,0,1,0,0,.23.23,0,0,1,0,0,.22.22,0,0,1,0,0,.22.22,0,0,1,0,0,.22.22,0,0,1,0,0,.22.22,0,0,1,0,0,.55.55,0,0,1,.33-.54l4.92-2.84a2.12,2.12,0,0,1,1.92.08L98.06,182a.81.81,0,0,1,.47.61s0,0,0,0,0,0,0,0,0,0,0,0,0,0,0,0,0,0,0,0,0,0,0,0,0,0,0,0,0,0,0,0,0,0,0,0,0,0,0,0,0,0,0,0,0,0,0,0,0,0,0,0,0,0,0,0,0,0,0,0,0,0,0,0,0,0,0,0,0,0,0,0,0,0,0,0,0,0,0,0,0,0,0,0,0,0,0,0,0,0,0,0,0,0,0,0,0,0,0,0,0,0,0,0,0,0,0,0,0,0,0,0,0,0,0,0,0,0,0,0A.55.55,0,0,1,98.19,184.34Z"/>
              <path class="cls-5" d="M89.7,189.24l-4.92,2.84a2.14,2.14,0,0,1-1.92-.08l-5.68-3.28a.8.8,0,0,1-.46-.61s0,0,0,0,0,0,0,0a.23.23,0,0,1,0,0,.24.24,0,0,1,0,0,.23.23,0,0,1,0,0,.23.23,0,0,1,0,0,.23.23,0,0,1,0,0,.23.23,0,0,1,0,0,.24.24,0,0,1,0,0,.23.23,0,0,1,0,0,.23.23,0,0,1,0,0,.23.23,0,0,1,0,0,.23.23,0,0,1,0,0,.24.24,0,0,1,0,0,.23.23,0,0,1,0,0,.23.23,0,0,1,0,0,.23.23,0,0,1,0,0,.23.23,0,0,1,0,0,.23.23,0,0,1,0,0,.23.23,0,0,1,0,0,.23.23,0,0,1,0,0,.23.23,0,0,1,0,0,.21.21,0,0,1,0,0,.26.26,0,0,1,0,0,.23.23,0,0,1,0,0,.22.22,0,0,1,0,0,.24.24,0,0,1,0,0,.23.23,0,0,1,0,0,.23.23,0,0,1,0,0,.23.23,0,0,1,0,0,.54.54,0,0,1,.33-.54L82,183.52a2.12,2.12,0,0,1,1.92.08l5.68,3.28a.8.8,0,0,1,.46.61s0,0,0,0,0,0,0,0,0,0,0,0,0,0,0,0,0,0,0,0,0,0,0,0,0,0,0,0,0,0,0,0,0,0,0,0,0,0,0,0,0,0,0,0,0,0,0,0,0,0,0,0,0,0,0,0,0,0,0,0,0,0,0,0,0,0,0,0,0,0,0,0,0,0,0,0,0,0,0,0,0,0,0,0,0,0,0,0,0,0,0,0,0,0,0,0,0,0,0,0,0,0,0,0,0,0,0,0,0,0,0,0,0,0,0,0,0,0,0,0A.55.55,0,0,1,89.7,189.24Z"/>
              <path class="cls-5" d="M81.21,194.15,76.29,197a2.13,2.13,0,0,1-1.92-.08l-5.68-3.28a.8.8,0,0,1-.46-.61.26.26,0,0,1,0,0,.23.23,0,0,1,0,0,.22.22,0,0,1,0,0,.24.24,0,0,1,0,0,.23.23,0,0,1,0,0,.23.23,0,0,1,0,0,.23.23,0,0,1,0,0,.23.23,0,0,1,0,0,.23.23,0,0,1,0,0,.24.24,0,0,1,0,0,.22.22,0,0,1,0,0,.24.24,0,0,1,0,0,.23.23,0,0,1,0,0,.23.23,0,0,1,0,0,.23.23,0,0,1,0,0,.23.23,0,0,1,0,0,.24.24,0,0,1,0,0,.21.21,0,0,1,0,0,.23.23,0,0,1,0,0,.24.24,0,0,1,0,0,.23.23,0,0,1,0,0,.24.24,0,0,1,0,0,.23.23,0,0,1,0,0,.22.22,0,0,1,0,0,.23.23,0,0,1,0,0,.23.23,0,0,1,0,0,.24.24,0,0,1,0,0,.23.23,0,0,1,0,0,.21.21,0,0,1,0,0,.23.23,0,0,1,0,0,.55.55,0,0,1,.33-.54l4.92-2.84a2.13,2.13,0,0,1,1.92.08l5.68,3.28a.8.8,0,0,1,.47.61.22.22,0,0,1,0,0,.24.24,0,0,1,0,0,.21.21,0,0,1,0,0,.24.24,0,0,1,0,0,.23.23,0,0,1,0,0,.22.22,0,0,1,0,0,.24.24,0,0,1,0,0,.24.24,0,0,1,0,0,.22.22,0,0,1,0,0,.24.24,0,0,1,0,0,.23.23,0,0,1,0,0,.23.23,0,0,1,0,0,.23.23,0,0,1,0,0,.23.23,0,0,1,0,0,.2.2,0,0,1,0,0s0,0,0,0,0,0,0,0,0,0,0,0a.24.24,0,0,1,0,0,.23.23,0,0,1,0,0,.23.23,0,0,1,0,0,.24.24,0,0,1,0,0,.23.23,0,0,1,0,0,.21.21,0,0,1,0,0,.23.23,0,0,1,0,0,.23.23,0,0,1,0,0,.24.24,0,0,1,0,0,.23.23,0,0,1,0,0,.24.24,0,0,1,0,0,.21.21,0,0,1,0,0A.55.55,0,0,1,81.21,194.15Z"/>
              <path class="cls-5" d="M184.79,146.08l-4.92,2.84a2.13,2.13,0,0,1-1.92-.08l-5.68-3.28a.81.81,0,0,1-.46-.6s0,0,0,0,0,0,0,0,0,0,0,0,0,0,0,0,0,0,0,0,0,0,0,0,0,0,0,0,0,0,0,0,0,0,0,0,0,0,0,0,0,0,0,0,0,0,0,0,0,0,0,0,0,0,0,0,0,0,0,0,0,0,0,0,0,0,0,0,0,0,0,0,0,0,0,0,0,0,0,0,0,0,0,0,0,0,0,0,0,0,0,0,0,0,0,0,0,0,0,0,0,0,0,0,0,0,0,0,0,0,0,0,0,0,0,0,0,0,0,0a.55.55,0,0,1,.33-.54l4.92-2.84a2.14,2.14,0,0,1,1.92.08l5.68,3.28a.8.8,0,0,1,.47.6.23.23,0,0,1,0,0,.24.24,0,0,1,0,0,.23.23,0,0,1,0,0,.23.23,0,0,1,0,0,.23.23,0,0,1,0,0,.23.23,0,0,1,0,0,.24.24,0,0,1,0,0,.23.23,0,0,1,0,0,.23.23,0,0,1,0,0,.23.23,0,0,1,0,0,.23.23,0,0,1,0,0,.24.24,0,0,1,0,0,.23.23,0,0,1,0,0,.23.23,0,0,1,0,0,.23.23,0,0,1,0,0,.23.23,0,0,1,0,0,.23.23,0,0,1,0,0,.23.23,0,0,1,0,0,.23.23,0,0,1,0,0,.21.21,0,0,1,0,0,.23.23,0,0,1,0,0,.26.26,0,0,1,0,0,.22.22,0,0,1,0,0,.24.24,0,0,1,0,0,.23.23,0,0,1,0,0,.21.21,0,0,1,0,0,.23.23,0,0,1,0,0,.27.27,0,0,1,0,0,.23.23,0,0,1,0,0,.2.2,0,0,1,0,0A.55.55,0,0,1,184.79,146.08Z"/>
              <path class="cls-5" d="M176.3,151l-4.92,2.84a2.13,2.13,0,0,1-1.92-.08l-5.68-3.28a.79.79,0,0,1-.46-.61.2.2,0,0,1,0,0,.23.23,0,0,1,0,0,.22.22,0,0,1,0,0,.22.22,0,0,1,0,0,.23.23,0,0,1,0,0,.22.22,0,0,1,0,0,.19.19,0,0,1,0,0,.22.22,0,0,1,0,0,.26.26,0,0,1,0,0,.2.2,0,0,1,0,0,.37.37,0,0,1,0,0,.24.24,0,0,1,0,0,.19.19,0,0,1,0,0,.26.26,0,0,1,0,0,.35.35,0,0,1,0,0,.22.22,0,0,1,0,0,.23.23,0,0,1,0,0,.22.22,0,0,1,0,0,.22.22,0,0,1,0,0,.23.23,0,0,1,0,0,.2.2,0,0,1,0,0,.22.22,0,0,1,0,0,.22.22,0,0,1,0,0,.23.23,0,0,1,0,0,.22.22,0,0,1,0,0,.22.22,0,0,1,0,0,.22.22,0,0,1,0,0,.22.22,0,0,1,0,0,.23.23,0,0,1,0,0,.22.22,0,0,1,0,0,.54.54,0,0,1,.33-.54l4.92-2.84a2.13,2.13,0,0,1,1.92.08l5.68,3.28a.8.8,0,0,1,.47.61.29.29,0,0,1,0,0,.29.29,0,0,1,0,0,.29.29,0,0,1,0,0,.31.31,0,0,1,0,0,.29.29,0,0,1,0,0,.29.29,0,0,1,0,0,.29.29,0,0,1,0,0,.29.29,0,0,1,0,0,.29.29,0,0,1,0,0,.29.29,0,0,1,0,0,.29.29,0,0,1,0,0,.29.29,0,0,1,0,0,.29.29,0,0,1,0,0,.29.29,0,0,1,0,0,.29.29,0,0,1,0,0,.31.31,0,0,1,0,0,.29.29,0,0,1,0,0,.29.29,0,0,1,0,0,.29.29,0,0,1,0,0,.29.29,0,0,1,0,0,.29.29,0,0,1,0,0,.29.29,0,0,1,0,0,.29.29,0,0,1,0,0,.29.29,0,0,1,0,0,.31.31,0,0,1,0,0,.29.29,0,0,1,0,0,.29.29,0,0,1,0,0,.29.29,0,0,1,0,0,.31.31,0,0,1,0,0s0,0,0,0A.55.55,0,0,1,176.3,151Z"/>
              <path class="cls-5" d="M167.81,155.89l-4.92,2.84a2.13,2.13,0,0,1-1.92-.08l-5.68-3.28a.8.8,0,0,1-.46-.6s0,0,0,0,0,0,0,0a.23.23,0,0,1,0,0,.23.23,0,0,1,0,0,.23.23,0,0,1,0,0,.23.23,0,0,1,0,0,.24.24,0,0,1,0,0,.23.23,0,0,1,0,0,.23.23,0,0,1,0,0,.23.23,0,0,1,0,0,.23.23,0,0,1,0,0,.24.24,0,0,1,0,0,.23.23,0,0,1,0,0,.23.23,0,0,1,0,0,.21.21,0,0,1,0,0,.23.23,0,0,1,0,0,.24.24,0,0,1,0,0,.23.23,0,0,1,0,0,.24.24,0,0,1,0,0,.23.23,0,0,1,0,0,.22.22,0,0,1,0,0,.24.24,0,0,1,0,0,.23.23,0,0,1,0,0,.23.23,0,0,1,0,0,.23.23,0,0,1,0,0,.21.21,0,0,1,0,0,.24.24,0,0,1,0,0,.23.23,0,0,1,0,0,.23.23,0,0,1,0,0,.23.23,0,0,1,0,0,.55.55,0,0,1,.33-.54l4.92-2.84a2.13,2.13,0,0,1,1.92.08l5.68,3.28a.8.8,0,0,1,.47.61s0,0,0,0,0,0,0,0,0,0,0,0,0,0,0,0,0,0,0,0,0,0,0,0,0,0,0,0,0,0,0,0,0,0,0,0,0,0,0,0,0,0,0,0,0,0,0,0,0,0,0,0,0,0,0,0,0,0,0,0,0,0,0,0,0,0,0,0,0,0,0,0,0,0,0,0,0,0,0,0,0,0,0,0,0,0,0,0,0,0,0,0,0,0,0,0,0,0,0,0,0,0,0,0,0,0,0,0,0,0,0,0,0,0,0,0,0,0,0,0A.55.55,0,0,1,167.81,155.89Z"/>
              <path class="cls-5" d="M159.32,160.79l-4.92,2.84a2.13,2.13,0,0,1-1.92-.08l-5.68-3.28a.79.79,0,0,1-.47-.6s0,0,0,0,0,0,0,0,0,0,0,0,0,0,0,0,0,0,0,0,0,0,0,0,0,0,0,0,0,0,0,0,0,0,0,0,0,0,0,0,0,0,0,0,0,0,0,0,0,0,0,0,0,0,0,0,0,0,0,0,0,0,0,0,0,0,0,0,0,0,0,0,0,0,0,0,0,0,0,0,0,0,0,0,0,0,0,0,0,0,0,0,0,0,0,0,0,0,0,0,0,0,0,0,0,0,0,0,0,0,0,0,0,0,0,0,0,0,0,0a.55.55,0,0,1,.33-.54l4.92-2.84a2.13,2.13,0,0,1,1.92.08l5.68,3.28a.8.8,0,0,1,.46.61.2.2,0,0,1,0,0,.26.26,0,0,1,0,0,.22.22,0,0,1,0,0,.23.23,0,0,1,0,0,.24.24,0,0,1,0,0,.22.22,0,0,1,0,0,.23.23,0,0,1,0,0,.24.24,0,0,1,0,0,.23.23,0,0,1,0,0,.23.23,0,0,1,0,0,.23.23,0,0,1,0,0,.23.23,0,0,1,0,0,.23.23,0,0,1,0,0,.24.24,0,0,1,0,0,.23.23,0,0,1,0,0,.23.23,0,0,1,0,0,.23.23,0,0,1,0,0,.23.23,0,0,1,0,0,.24.24,0,0,1,0,0,.23.23,0,0,1,0,0,.23.23,0,0,1,0,0,.22.22,0,0,1,0,0,.24.24,0,0,1,0,0,.24.24,0,0,1,0,0,.23.23,0,0,1,0,0,.23.23,0,0,1,0,0,.22.22,0,0,1,0,0,.23.23,0,0,1,0,0,.24.24,0,0,1,0,0,.23.23,0,0,1,0,0A.54.54,0,0,1,159.32,160.79Z"/>
              <path class="cls-5" d="M150.82,165.69l-4.92,2.84a2.13,2.13,0,0,1-1.92-.08l-5.68-3.28a.8.8,0,0,1-.46-.6s0,0,0,0a.37.37,0,0,1,0,0s0,0,0,0a.39.39,0,0,1,0,0,.4.4,0,0,1,0,0,.39.39,0,0,1,0,0,.39.39,0,0,1,0,0,.39.39,0,0,1,0,0s0,0,0,0a.35.35,0,0,1,0,0,.39.39,0,0,1,0,0s0,0,0,0,0,0,0,0a.37.37,0,0,1,0,0,.39.39,0,0,1,0,0,.39.39,0,0,1,0,0,.39.39,0,0,1,0,0s0,0,0,0a.39.39,0,0,1,0,0,.39.39,0,0,1,0,0,.39.39,0,0,1,0,0,.4.4,0,0,1,0,0s0,0,0,0a.39.39,0,0,1,0,0,.39.39,0,0,1,0,0,.39.39,0,0,1,0,0,.4.4,0,0,1,0,0s0,0,0,0a.39.39,0,0,1,0,0,.39.39,0,0,1,0,0,.55.55,0,0,1,.33-.54l4.92-2.84a2.14,2.14,0,0,1,1.92.08l5.68,3.28a.79.79,0,0,1,.47.6.22.22,0,0,1,0,0,.22.22,0,0,1,0,0,.22.22,0,0,1,0,0,.22.22,0,0,1,0,0,.23.23,0,0,1,0,0,.22.22,0,0,1,0,0,.22.22,0,0,1,0,0,.22.22,0,0,1,0,0,.22.22,0,0,1,0,0,.22.22,0,0,1,0,0,.23.23,0,0,1,0,0,.19.19,0,0,1,0,0,.24.24,0,0,1,0,0,.22.22,0,0,1,0,0,.2.2,0,0,1,0,0,.24.24,0,0,1,0,0,.22.22,0,0,1,0,0,.19.19,0,0,1,0,0,.22.22,0,0,1,0,0,.24.24,0,0,1,0,0,.2.2,0,0,1,0,0,.23.23,0,0,1,0,0,.2.2,0,0,1,0,0,.22.22,0,0,1,0,0,.23.23,0,0,1,0,0,.23.23,0,0,1,0,0,.2.2,0,0,1,0,0,.23.23,0,0,1,0,0,.22.22,0,0,1,0,0,.2.2,0,0,1,0,0A.55.55,0,0,1,150.82,165.69Z"/>
              <path class="cls-5" d="M142.33,170.59l-4.92,2.84a2.13,2.13,0,0,1-1.92-.08l-5.68-3.28a.8.8,0,0,1-.46-.61.24.24,0,0,1,0,0,.23.23,0,0,1,0,0,.23.23,0,0,1,0,0,.22.22,0,0,1,0,0,.24.24,0,0,1,0,0,.24.24,0,0,1,0,0,.21.21,0,0,1,0,0,.24.24,0,0,1,0,0,.22.22,0,0,1,0,0,.23.23,0,0,1,0,0,.26.26,0,0,1,0,0,.22.22,0,0,1,0,0,.21.21,0,0,1,0,0,.26.26,0,0,1,0,0,.2.2,0,0,1,0,0,.24.24,0,0,1,0,0,.26.26,0,0,1,0,0,.2.2,0,0,1,0,0,.23.23,0,0,1,0,0,.24.24,0,0,1,0,0,.23.23,0,0,1,0,0,.23.23,0,0,1,0,0,.24.24,0,0,1,0,0,.22.22,0,0,1,0,0,.23.23,0,0,1,0,0,.26.26,0,0,1,0,0,.21.21,0,0,1,0,0,.23.23,0,0,1,0,0,.23.23,0,0,1,0,0,.23.23,0,0,1,0,0,.54.54,0,0,1,.33-.54l4.92-2.84a2.13,2.13,0,0,1,1.92.08l5.68,3.28a.79.79,0,0,1,.46.61.2.2,0,0,1,0,0,.23.23,0,0,1,0,0,.22.22,0,0,1,0,0,.22.22,0,0,1,0,0,.23.23,0,0,1,0,0,.22.22,0,0,1,0,0,.2.2,0,0,1,0,0,.23.23,0,0,1,0,0,.22.22,0,0,1,0,0,.22.22,0,0,1,0,0,.22.22,0,0,1,0,0,.2.2,0,0,1,0,0,.23.23,0,0,1,0,0,.22.22,0,0,1,0,0,.22.22,0,0,1,0,0s0,0,0,0a.4.4,0,0,1,0,0,.23.23,0,0,1,0,0,.22.22,0,0,1,0,0s0,0,0,0,0,0,0,0a.22.22,0,0,1,0,0,.23.23,0,0,1,0,0,.22.22,0,0,1,0,0,.22.22,0,0,1,0,0,.22.22,0,0,1,0,0,.22.22,0,0,1,0,0,.23.23,0,0,1,0,0,.22.22,0,0,1,0,0,.2.2,0,0,1,0,0A.54.54,0,0,1,142.33,170.59Z"/>
              <path class="cls-5" d="M133.84,175.5l-4.92,2.84a2.13,2.13,0,0,1-1.92-.08L121.32,175a.79.79,0,0,1-.46-.6.22.22,0,0,1,0,0,.22.22,0,0,1,0,0,.22.22,0,0,1,0,0,.23.23,0,0,1,0,0,.22.22,0,0,1,0,0,.22.22,0,0,1,0,0,.22.22,0,0,1,0,0,.22.22,0,0,1,0,0,.23.23,0,0,1,0,0,.22.22,0,0,1,0,0,.22.22,0,0,1,0,0,.22.22,0,0,1,0,0,.22.22,0,0,1,0,0,.23.23,0,0,1,0,0,.22.22,0,0,1,0,0,.22.22,0,0,1,0,0,.22.22,0,0,1,0,0,.22.22,0,0,1,0,0,.23.23,0,0,1,0,0,.22.22,0,0,1,0,0,.22.22,0,0,1,0,0,.22.22,0,0,1,0,0,.2.2,0,0,1,0,0,.23.23,0,0,1,0,0,.22.22,0,0,1,0,0,.22.22,0,0,1,0,0,.22.22,0,0,1,0,0,.22.22,0,0,1,0,0,.22.22,0,0,1,0,0,.23.23,0,0,1,0,0,.55.55,0,0,1,.33-.54l4.92-2.84a2.13,2.13,0,0,1,1.92.08l5.68,3.28a.8.8,0,0,1,.47.61.37.37,0,0,1,0,0,.39.39,0,0,1,0,0,.39.39,0,0,1,0,0,.39.39,0,0,1,0,0s0,0,0,0a.4.4,0,0,1,0,0,.37.37,0,0,1,0,0,.39.39,0,0,1,0,0,.39.39,0,0,1,0,0s0,0,0,0a.4.4,0,0,1,0,0,.37.37,0,0,1,0,0,.39.39,0,0,1,0,0,.39.39,0,0,1,0,0s0,0,0,0a.39.39,0,0,1,0,0,.39.39,0,0,1,0,0,.4.4,0,0,1,0,0,.39.39,0,0,1,0,0s0,0,0,0a.39.39,0,0,1,0,0,.39.39,0,0,1,0,0,.4.4,0,0,1,0,0,.39.39,0,0,1,0,0s0,0,0,0a.39.39,0,0,1,0,0,.39.39,0,0,1,0,0,.4.4,0,0,1,0,0,.39.39,0,0,1,0,0s0,0,0,0A.55.55,0,0,1,133.84,175.5Z"/>
              <path class="cls-5" d="M125.34,180.4l-4.92,2.84a2.14,2.14,0,0,1-1.92-.08l-5.68-3.28a.81.81,0,0,1-.47-.6s0,0,0,0,0,0,0,0,0,0,0,0,0,0,0,0,0,0,0,0,0,0,0,0,0,0,0,0,0,0,0,0,0,0,0,0,0,0,0,0,0,0,0,0,0,0,0,0,0,0,0,0,0,0,0,0,0,0,0,0,0,0,0,0,0,0,0,0,0,0,0,0,0,0,0,0,0,0,0,0,0,0,0,0,0,0,0,0,0,0,0,0,0,0,0,0,0,0,0,0,0,0,0,0,0,0,0,0,0,0,0,0,0,0,0,0,0,0,0,0a.55.55,0,0,1,.33-.54l4.92-2.84a2.13,2.13,0,0,1,1.92.08l5.68,3.28a.8.8,0,0,1,.46.61.37.37,0,0,1,0,0s0,0,0,0a.4.4,0,0,1,0,0,.37.37,0,0,1,0,0s0,0,0,0a.37.37,0,0,1,0,0s0,0,0,0a.39.39,0,0,1,0,0,.39.39,0,0,1,0,0,.39.39,0,0,1,0,0,.4.4,0,0,1,0,0s0,0,0,0a.39.39,0,0,1,0,0,.39.39,0,0,1,0,0,.39.39,0,0,1,0,0,.4.4,0,0,1,0,0s0,0,0,0a.39.39,0,0,1,0,0,.39.39,0,0,1,0,0,.37.37,0,0,1,0,0,.39.39,0,0,1,0,0s0,0,0,0a.39.39,0,0,1,0,0s0,0,0,0a.37.37,0,0,1,0,0,.39.39,0,0,1,0,0s0,0,0,0a.39.39,0,0,1,0,0,.4.4,0,0,1,0,0,.39.39,0,0,1,0,0A.55.55,0,0,1,125.34,180.4Z"/>
              <path class="cls-5" d="M116.85,185.31l-4.92,2.84a2.12,2.12,0,0,1-1.92-.08l-5.68-3.28a.79.79,0,0,1-.47-.61s0,0,0,0,0,0,0,0,0,0,0,0,0,0,0,0,0,0,0,0,0,0,0,0,0,0,0,0,0,0,0,0,0,0,0,0,0,0,0,0,0,0,0,0,0,0,0,0,0,0,0,0,0,0,0,0,0,0,0,0,0,0,0,0,0,0,0,0,0,0,0,0,0,0,0,0,0,0,0,0,0,0,0,0,0,0,0,0,0,0,0,0,0,0,0,0,0,0,0,0,0,0,0,0,0,0,0,0,0,0,0,0,0,0,0,0,0,0,0,0a.55.55,0,0,1,.33-.54l4.92-2.84a2.14,2.14,0,0,1,1.92.08l5.68,3.28a.8.8,0,0,1,.47.61.23.23,0,0,1,0,0,.23.23,0,0,1,0,0,.23.23,0,0,1,0,0,.24.24,0,0,1,0,0,.23.23,0,0,1,0,0,.23.23,0,0,1,0,0,.23.23,0,0,1,0,0,.23.23,0,0,1,0,0,.23.23,0,0,1,0,0,.24.24,0,0,1,0,0,.23.23,0,0,1,0,0,.2.2,0,0,1,0,0,.26.26,0,0,1,0,0,.24.24,0,0,1,0,0,.2.2,0,0,1,0,0s0,0,0,0,0,0,0,0,0,0,0,0a.27.27,0,0,1,0,0,.2.2,0,0,1,0,0,.23.23,0,0,1,0,0,.24.24,0,0,1,0,0,.21.21,0,0,1,0,0,.24.24,0,0,1,0,0,.24.24,0,0,1,0,0,.22.22,0,0,1,0,0,.23.23,0,0,1,0,0,.23.23,0,0,1,0,0,.26.26,0,0,1,0,0,.22.22,0,0,1,0,0A.55.55,0,0,1,116.85,185.31Z"/>
              <path class="cls-5" d="M108.36,190.21,103.44,193a2.13,2.13,0,0,1-1.92-.08l-5.68-3.28a.81.81,0,0,1-.47-.61s0,0,0,0,0,0,0,0,0,0,0,0,0,0,0,0,0,0,0,0,0,0,0,0,0,0,0,0,0,0,0,0,0,0,0,0,0,0,0,0,0,0,0,0,0,0,0,0,0,0,0,0,0,0,0,0,0,0,0,0,0,0,0,0,0,0,0,0,0,0,0,0,0,0,0,0,0,0,0,0,0,0,0,0,0,0,0,0,0,0,0,0,0,0,0,0,0,0,0,0,0,0,0,0,0,0,0,0,0,0,0,0,0,0,0,0,0,0,0,0a.55.55,0,0,1,.33-.54l4.92-2.84a2.14,2.14,0,0,1,1.92.08l5.68,3.28a.8.8,0,0,1,.46.61.24.24,0,0,1,0,0,.23.23,0,0,1,0,0,.21.21,0,0,1,0,0,.24.24,0,0,1,0,0,.23.23,0,0,1,0,0,.22.22,0,0,1,0,0,.26.26,0,0,1,0,0,.23.23,0,0,1,0,0,.21.21,0,0,1,0,0,.24.24,0,0,1,0,0,.24.24,0,0,1,0,0,.2.2,0,0,1,0,0,.23.23,0,0,1,0,0,.26.26,0,0,1,0,0,.2.2,0,0,1,0,0,.24.24,0,0,1,0,0,.24.24,0,0,1,0,0,.22.22,0,0,1,0,0,.23.23,0,0,1,0,0,.24.24,0,0,1,0,0,.23.23,0,0,1,0,0,.23.23,0,0,1,0,0,.23.23,0,0,1,0,0,.23.23,0,0,1,0,0,.23.23,0,0,1,0,0,.24.24,0,0,1,0,0,.23.23,0,0,1,0,0,.23.23,0,0,1,0,0,.23.23,0,0,1,0,0,.23.23,0,0,1,0,0A.55.55,0,0,1,108.36,190.21Z"/>
              <path class="cls-5" d="M99.87,195.11,94.95,198a2.13,2.13,0,0,1-1.92-.08l-5.68-3.28a.79.79,0,0,1-.47-.6s0,0,0,0,0,0,0,0,0,0,0,0,0,0,0,0,0,0,0,0,0,0,0,0,0,0,0,0,0,0,0,0,0,0,0,0,0,0,0,0,0,0,0,0,0,0,0,0,0,0,0,0,0,0,0,0a.38.38,0,0,1,0,0s0,0,0,0,0,0,0,0,0,0,0,0,0,0,0,0,0,0,0,0,0,0,0,0,0,0,0,0,0,0,0,0,0,0,0,0,0,0,0,0,0,0,0,0,0,0,0,0,0,0,0,0,0,0,0,0,0,0,0,0a.55.55,0,0,1,.33-.55l4.92-2.84a2.13,2.13,0,0,1,1.92.08l5.68,3.28a.8.8,0,0,1,.47.6s0,0,0,0,0,0,0,0,0,0,0,0,0,0,0,0,0,0,0,0,0,0,0,0,0,0,0,0,0,0,0,0,0,0,0,0,0,0,0,0,0,0,0,0,0,0,0,0,0,0,0,0,0,0,0,0,0,0,0,0,0,0,0,0,0,0,0,0,0,0,0,0,0,0,0,0,0,0,0,0,0,0,0,0,0,0,0,0,0,0,0,0,0,0,0,0,0,0,0,0,0,0,0,0,0,0,0,0,0,0,0,0,0,0,0,0,0,0,0,0A.55.55,0,0,1,99.87,195.11Z"/>
              <path class="cls-5" d="M91.37,200l-4.92,2.84a2.13,2.13,0,0,1-1.92-.08l-5.68-3.28a.8.8,0,0,1-.46-.61s0,0,0,0,0,0,0,0,0,0,0,0,0,0,0,0,0,0,0,0,0,0,0,0,0,0,0,0,0,0,0,0,0,0,0,0,0,0,0,0,0,0,0,0,0,0,0,0,0,0,0,0,0,0,0,0,0,0,0,0,0,0,0,0,0,0,0,0,0,0,0,0,0,0,0,0,0,0,0,0,0,0,0,0,0,0,0,0,0,0,0,0,0,0,0,0,0,0,0,0,0,0,0,0,0,0,0,0,0,0,0,0,0,0,0,0,0,0,0,0a.55.55,0,0,1,.33-.54l4.92-2.84a2.13,2.13,0,0,1,1.92.08l5.68,3.28a.8.8,0,0,1,.46.61s0,0,0,0,0,0,0,0,0,0,0,0,0,0,0,0,0,0,0,0,0,0,0,0,0,0,0,0,0,0,0,0,0,0,0,0,0,0,0,0,0,0,0,0,0,0,0,0,0,0,0,0,0,0,0,0,0,0,0,0,0,0,0,0,0,0,0,0,0,0,0,0,0,0,0,0,0,0,0,0,0,0,0,0,0,0,0,0,0,0,0,0,0,0,0,0,0,0,0,0,0,0,0,0,0,0,0,0,0,0,0,0,0,0,0,0,0,0,0,0A.54.54,0,0,1,91.37,200Z"/>
              <path class="cls-5" d="M82.88,204.92,78,207.76a2.12,2.12,0,0,1-1.92-.08l-5.68-3.28a.8.8,0,0,1-.47-.6.26.26,0,0,1,0,0s0,0,0,0,0,0,0,0,0,0,0,0,0,0,0,0,0,0,0,0,0,0,0,0,0,0,0,0,0,0,0,0,0,0,0,0,0,0,0,0,0,0,0,0,0,0,0,0,0,0,0,0,0,0,0,0,0,0,0,0,0,0,0,0,0,0,0,0,0,0,0,0,0,0,0,0,0,0,0,0,0,0,0,0,0,0,0,0,0,0,0,0,0,0,0,0,0,0,0,0,0,0,0,0,0,0,0,0,0,0,0,0,0,0,0,0a.55.55,0,0,1,.33-.54l4.92-2.84a2.14,2.14,0,0,1,1.92.08l5.68,3.28a.79.79,0,0,1,.46.61.23.23,0,0,1,0,0,.24.24,0,0,1,0,0,.23.23,0,0,1,0,0,.23.23,0,0,1,0,0,.23.23,0,0,1,0,0,.23.23,0,0,1,0,0,.24.24,0,0,1,0,0,.23.23,0,0,1,0,0,.23.23,0,0,1,0,0,.23.23,0,0,1,0,0,.23.23,0,0,1,0,0,.24.24,0,0,1,0,0,.21.21,0,0,1,0,0,.23.23,0,0,1,0,0,.21.21,0,0,1,0,0,.24.24,0,0,1,0,0,.24.24,0,0,1,0,0,.23.23,0,0,1,0,0,.23.23,0,0,1,0,0,.23.23,0,0,1,0,0,.23.23,0,0,1,0,0,.24.24,0,0,1,0,0,.22.22,0,0,1,0,0,.23.23,0,0,1,0,0,.23.23,0,0,1,0,0,.23.23,0,0,1,0,0,.23.23,0,0,1,0,0,.24.24,0,0,1,0,0,.23.23,0,0,1,0,0,.23.23,0,0,1,0,0A.54.54,0,0,1,82.88,204.92Z"/>
              <path class="cls-5" d="M182,150.83a.23.23,0,0,1,0,0,.22.22,0,0,1,0,0,.23.23,0,0,1,0,0,.22.22,0,0,1,0,0,.22.22,0,0,1,0,0,.22.22,0,0,1,0,0,.22.22,0,0,1,0,0,.23.23,0,0,1,0,0,.22.22,0,0,1,0,0,.22.22,0,0,1,0,0,.22.22,0,0,1,0,0,.2.2,0,0,1,0,0,.23.23,0,0,1,0,0,.22.22,0,0,1,0,0,.22.22,0,0,1,0,0,.22.22,0,0,1,0,0,.22.22,0,0,1,0,0,.23.23,0,0,1,0,0,.22.22,0,0,1,0,0,.22.22,0,0,1,0,0,.22.22,0,0,1,0,0,.22.22,0,0,1,0,0,.23.23,0,0,1,0,0,.22.22,0,0,1,0,0,.22.22,0,0,1,0,0,.22.22,0,0,1,0,0,.22.22,0,0,1,0,0,.22.22,0,0,1,0,0,.23.23,0,0,1,0,0,.22.22,0,0,1,0,0,.55.55,0,0,1,.33-.54l4.92-2.84a2.13,2.13,0,0,1,1.92.08l5.68,3.28a.8.8,0,0,1,.46.61.23.23,0,0,1,0,0,.23.23,0,0,1,0,0,.23.23,0,0,1,0,0,.23.23,0,0,1,0,0,.23.23,0,0,1,0,0,.24.24,0,0,1,0,0,.23.23,0,0,1,0,0,.23.23,0,0,1,0,0,.23.23,0,0,1,0,0,.23.23,0,0,1,0,0,.24.24,0,0,1,0,0,.23.23,0,0,1,0,0,.23.23,0,0,1,0,0,.23.23,0,0,1,0,0,.23.23,0,0,1,0,0,.24.24,0,0,1,0,0,.23.23,0,0,1,0,0,.21.21,0,0,1,0,0,.23.23,0,0,1,0,0,.23.23,0,0,1,0,0,.26.26,0,0,1,0,0,.23.23,0,0,1,0,0,.21.21,0,0,1,0,0,.23.23,0,0,1,0,0,.23.23,0,0,1,0,0,.24.24,0,0,1,0,0,.23.23,0,0,1,0,0,.23.23,0,0,1,0,0,.21.21,0,0,1,0,0,.23.23,0,0,1,0,0,.54.54,0,0,1-.33.54L190,154.79a2.13,2.13,0,0,1-1.92-.08l-5.68-3.28A.8.8,0,0,1,182,150.83Z"/>
              <path class="cls-5" d="M173.49,155.73a.23.23,0,0,1,0,0,.22.22,0,0,1,0,0,.22.22,0,0,1,0,0,.22.22,0,0,1,0,0,.22.22,0,0,1,0,0,.23.23,0,0,1,0,0,.22.22,0,0,1,0,0,.2.2,0,0,1,0,0,.22.22,0,0,1,0,0,.23.23,0,0,1,0,0,.22.22,0,0,1,0,0,.2.2,0,0,1,0,0,.22.22,0,0,1,0,0,.23.23,0,0,1,0,0,.22.22,0,0,1,0,0,.23.23,0,0,1,0,0,.2.2,0,0,1,0,0,.22.22,0,0,1,0,0,.22.22,0,0,1,0,0,.22.22,0,0,1,0,0,.23.23,0,0,1,0,0,.22.22,0,0,1,0,0,.22.22,0,0,1,0,0,.22.22,0,0,1,0,0,.22.22,0,0,1,0,0,.23.23,0,0,1,0,0,.22.22,0,0,1,0,0,.22.22,0,0,1,0,0,.22.22,0,0,1,0,0,.22.22,0,0,1,0,0,.55.55,0,0,1,.33-.54l4.92-2.84a2.14,2.14,0,0,1,1.92.08l5.68,3.28a.8.8,0,0,1,.46.61.22.22,0,0,1,0,0,.23.23,0,0,1,0,0,.22.22,0,0,1,0,0,.2.2,0,0,1,0,0,.23.23,0,0,1,0,0,.22.22,0,0,1,0,0,.2.2,0,0,1,0,0,.24.24,0,0,1,0,0,.19.19,0,0,1,0,0,.22.22,0,0,1,0,0,.21.21,0,0,1,0,0,.23.23,0,0,1,0,0,.22.22,0,0,1,0,0,.22.22,0,0,1,0,0,.22.22,0,0,1,0,0,.24.24,0,0,1,0,0,.19.19,0,0,1,0,0,.23.23,0,0,1,0,0,.22.22,0,0,1,0,0,.22.22,0,0,1,0,0,.22.22,0,0,1,0,0,.22.22,0,0,1,0,0,.23.23,0,0,1,0,0,.22.22,0,0,1,0,0,.22.22,0,0,1,0,0,.22.22,0,0,1,0,0,.22.22,0,0,1,0,0,.23.23,0,0,1,0,0,.22.22,0,0,1,0,0,.22.22,0,0,1,0,0,.55.55,0,0,1-.33.54l-4.92,2.84a2.13,2.13,0,0,1-1.92-.08L174,156.33A.8.8,0,0,1,173.49,155.73Z"/>
              <path class="cls-5" d="M122.74,185.55a.6.6,0,0,1-.2-.49.26.26,0,0,1,0,0,.23.23,0,0,1,0,0,.22.22,0,0,1,0,0,.23.23,0,0,1,0,0,.23.23,0,0,1,0,0,.23.23,0,0,1,0,0,.23.23,0,0,1,0,0,.23.23,0,0,1,0,0,.23.23,0,0,1,0,0,.23.23,0,0,1,0,0,.24.24,0,0,1,0,0,.23.23,0,0,1,0,0,.23.23,0,0,1,0,0,.23.23,0,0,1,0,0,.23.23,0,0,1,0,0,.24.24,0,0,1,0,0,.23.23,0,0,1,0,0,.23.23,0,0,1,0,0,.23.23,0,0,1,0,0,.23.23,0,0,1,0,0,.23.23,0,0,1,0,0,.24.24,0,0,1,0,0,.23.23,0,0,1,0,0,.23.23,0,0,1,0,0,.23.23,0,0,1,0,0,.23.23,0,0,1,0,0,.24.24,0,0,1,0,0,.23.23,0,0,1,0,0,.23.23,0,0,1,0,0,.23.23,0,0,1,0,0,.56.56,0,0,1,.32-.46l4.92-2.84,3.57-2.06,4.92-2.84,3.57-2.06,4.92-2.84,3.57-2.06,4.92-2.84,3.57-2.06,4.92-2.84,8.49-4.9a2.13,2.13,0,0,1,1.92.08l5.68,3.28a.8.8,0,0,1,.47.6s0,0,0,0,0,0,0,0,0,0,0,0,0,0,0,0,0,0,0,0,0,0,0,0,0,0,0,0,0,0,0,0,0,0,0,0,0,0,0,0,0,0,0,0,0,0,0,0,0,0,0,0,0,0,0,0,0,0,0,0,0,0,0,0,0,0,0,0,0,0,0,0,0,0,0,0,0,0,0,0,0,0,0,0,0,0,0,0,0,0,0,0,0,0,0,0,0,0,0,0,0,0,0,0,0,0,0,0,0,0,0,0,0,0,0,0,0,0,0,0a.55.55,0,0,1-.33.54l-8.49,4.9-4.92,2.84L161,171.56l-4.92,2.84-3.57,2.06-4.92,2.84L144,181.37l-4.92,2.84-3.57,2.06-4.92,2.84a2.13,2.13,0,0,1-1.92-.08L123,185.75C122.79,185.64,122.73,185.6,122.74,185.55Z"/>
              <path class="cls-5" d="M114,190.05a.29.29,0,0,1,0,0,.27.27,0,0,1,0,0,.27.27,0,0,1,0,0,.27.27,0,0,1,0,0,.27.27,0,0,1,0,0,.27.27,0,0,1,0,0,.29.29,0,0,1,0,0,.27.27,0,0,1,0,0,.27.27,0,0,1,0,0,.27.27,0,0,1,0,0,.25.25,0,0,1,0,0,.27.27,0,0,1,0,0,.29.29,0,0,1,0,0,.27.27,0,0,1,0,0,.25.25,0,0,1,0,0,.29.29,0,0,1,0,0,.29.29,0,0,1,0,0,.26.26,0,0,1,0,0,.29.29,0,0,1,0,0,.27.27,0,0,1,0,0,.26.26,0,0,1,0,0,.29.29,0,0,1,0,0,.27.27,0,0,1,0,0,.27.27,0,0,1,0,0,.27.27,0,0,1,0,0,.27.27,0,0,1,0,0,.29.29,0,0,1,0,0,.27.27,0,0,1,0,0,.27.27,0,0,1,0,0,.27.27,0,0,1,0,0,.55.55,0,0,1,.33-.54l4.92-2.84a2.13,2.13,0,0,1,1.92.08l5.68,3.28a.81.81,0,0,1,.47.61s0,0,0,0,0,0,0,0,0,0,0,0,0,0,0,0,0,0,0,0,0,0,0,0,0,0,0,0,0,0,0,0,0,0,0,0,0,0,0,0,0,0,0,0,0,0,0,0,0,0,0,0,0,0,0,0,0,0,0,0,0,0,0,0,0,0,0,0,0,0,0,0,0,0,0,0,0,0,0,0,0,0,0,0,0,0,0,0,0,0,0,0,0,0,0,0,0,0,0,0,0,0,0,0,0,0,0,0,0,0,0,0,0,0,0,0,0,0,0,0a.55.55,0,0,1-.33.54L122.1,194a2.13,2.13,0,0,1-1.92-.08l-5.68-3.28A.8.8,0,0,1,114,190.05Z"/>
              <path class="cls-5" d="M105.55,195s0,0,0,0,0,0,0,0a.23.23,0,0,1,0,0,.24.24,0,0,1,0,0,.23.23,0,0,1,0,0,.23.23,0,0,1,0,0,.23.23,0,0,1,0,0,.23.23,0,0,1,0,0,.24.24,0,0,1,0,0,.23.23,0,0,1,0,0,.23.23,0,0,1,0,0,.23.23,0,0,1,0,0,.23.23,0,0,1,0,0,.23.23,0,0,1,0,0,.24.24,0,0,1,0,0,.22.22,0,0,1,0,0,.23.23,0,0,1,0,0,.23.23,0,0,1,0,0,.23.23,0,0,1,0,0,.24.24,0,0,1,0,0,.23.23,0,0,1,0,0,.21.21,0,0,1,0,0,.24.24,0,0,1,0,0,.23.23,0,0,1,0,0,.24.24,0,0,1,0,0,.23.23,0,0,1,0,0,.21.21,0,0,1,0,0,.23.23,0,0,1,0,0,.23.23,0,0,1,0,0,.24.24,0,0,1,0,0,.54.54,0,0,1,.33-.54l4.92-2.84a2.13,2.13,0,0,1,1.92.08l5.68,3.28a.79.79,0,0,1,.46.61.23.23,0,0,1,0,0,.23.23,0,0,1,0,0,.21.21,0,0,1,0,0,.26.26,0,0,1,0,0,.23.23,0,0,1,0,0,.23.23,0,0,1,0,0,.23.23,0,0,1,0,0,.23.23,0,0,1,0,0,.23.23,0,0,1,0,0,.23.23,0,0,1,0,0,.23.23,0,0,1,0,0,.23.23,0,0,1,0,0,.23.23,0,0,1,0,0,.23.23,0,0,1,0,0,.23.23,0,0,1,0,0,.24.24,0,0,1,0,0,.23.23,0,0,1,0,0,.23.23,0,0,1,0,0,.23.23,0,0,1,0,0,.23.23,0,0,1,0,0,.23.23,0,0,1,0,0,.23.23,0,0,1,0,0,.23.23,0,0,1,0,0,.24.24,0,0,1,0,0,.23.23,0,0,1,0,0,.23.23,0,0,1,0,0,.23.23,0,0,1,0,0,.23.23,0,0,1,0,0,.23.23,0,0,1,0,0,.24.24,0,0,1,0,0,.54.54,0,0,1-.33.54l-4.92,2.84a2.13,2.13,0,0,1-1.92-.08L106,195.56A.8.8,0,0,1,105.55,195Z"/>
              <path class="cls-5" d="M97.05,199.86a.23.23,0,0,1,0,0,.23.23,0,0,1,0,0,.2.2,0,0,1,0,0,.22.22,0,0,1,0,0,.22.22,0,0,1,0,0,.22.22,0,0,1,0,0,.23.23,0,0,1,0,0,.22.22,0,0,1,0,0,.22.22,0,0,1,0,0,.22.22,0,0,1,0,0,.22.22,0,0,1,0,0,.22.22,0,0,1,0,0,.23.23,0,0,1,0,0,.22.22,0,0,1,0,0,.22.22,0,0,1,0,0,.2.2,0,0,1,0,0,.23.23,0,0,1,0,0,.23.23,0,0,1,0,0,.22.22,0,0,1,0,0,.22.22,0,0,1,0,0,.22.22,0,0,1,0,0,.2.2,0,0,1,0,0,.23.23,0,0,1,0,0,.22.22,0,0,1,0,0,.22.22,0,0,1,0,0,.22.22,0,0,1,0,0,.2.2,0,0,1,0,0,.23.23,0,0,1,0,0,.22.22,0,0,1,0,0,.22.22,0,0,1,0,0,.55.55,0,0,1,.33-.54l4.92-2.84a2.13,2.13,0,0,1,1.92.08l5.68,3.28a.8.8,0,0,1,.47.6.31.31,0,0,1,0,0,.29.29,0,0,1,0,0,.29.29,0,0,1,0,0,.29.29,0,0,1,0,0,.29.29,0,0,1,0,0,.31.31,0,0,1,0,0,.29.29,0,0,1,0,0,.29.29,0,0,1,0,0,.29.29,0,0,1,0,0,.29.29,0,0,1,0,0,.31.31,0,0,1,0,0,.29.29,0,0,1,0,0,.29.29,0,0,1,0,0,.29.29,0,0,1,0,0,.29.29,0,0,1,0,0,.31.31,0,0,1,0,0,.29.29,0,0,1,0,0,.29.29,0,0,1,0,0,.29.29,0,0,1,0,0,.29.29,0,0,1,0,0,.31.31,0,0,1,0,0,.29.29,0,0,1,0,0,.29.29,0,0,1,0,0,.29.29,0,0,1,0,0,.29.29,0,0,1,0,0,.29.29,0,0,1,0,0,.29.29,0,0,1,0,0,.29.29,0,0,1,0,0,.29.29,0,0,1,0,0,.29.29,0,0,1,0,0,.55.55,0,0,1-.33.54l-4.92,2.84a2.14,2.14,0,0,1-1.92-.08l-5.68-3.28A.8.8,0,0,1,97.05,199.86Z"/>
              <path class="cls-5" d="M88.56,204.76s0,0,0,0,0,0,0,0,0,0,0,0,0,0,0,0,0,0,0,0,0,0,0,0,0,0,0,0,0,0,0,0,0,0,0,0,0,0,0,0,0,0,0,0,0,0,0,0,0,0,0,0,0,0,0,0,0,0,0,0,0,0,0,0,0,0,0,0,0,0,0,0,0,0,0,0,0,0,0,0,0,0,0,0,0,0,0,0,0,0,0,0,0,0,0,0,0,0,0,0,0,0,0,0,0,0,0,0,0,0,0,0,0,0,0,0,0,0,0,0a.55.55,0,0,1,.33-.54l4.92-2.84a2.13,2.13,0,0,1,1.92.08l5.68,3.28a.8.8,0,0,1,.46.6.22.22,0,0,1,0,0,.22.22,0,0,1,0,0,.23.23,0,0,1,0,0,.22.22,0,0,1,0,0,.22.22,0,0,1,0,0,.22.22,0,0,1,0,0,.22.22,0,0,1,0,0,.23.23,0,0,1,0,0,.22.22,0,0,1,0,0,.22.22,0,0,1,0,0,.22.22,0,0,1,0,0,.22.22,0,0,1,0,0,.23.23,0,0,1,0,0,.22.22,0,0,1,0,0,.2.2,0,0,1,0,0,.23.23,0,0,1,0,0,.22.22,0,0,1,0,0,.22.22,0,0,1,0,0,.2.2,0,0,1,0,0,.24.24,0,0,1,0,0,.22.22,0,0,1,0,0,.2.2,0,0,1,0,0,.23.23,0,0,1,0,0,.23.23,0,0,1,0,0,.22.22,0,0,1,0,0,.22.22,0,0,1,0,0,.19.19,0,0,1,0,0,.23.23,0,0,1,0,0,.24.24,0,0,1,0,0,.19.19,0,0,1,0,0,.54.54,0,0,1-.33.54l-4.92,2.84a2.13,2.13,0,0,1-1.92-.08L89,205.37A.8.8,0,0,1,88.56,204.76Z"/>
              <path class="cls-5" d="M80.07,209.66s0,0,0,0,0,0,0,0,0,0,0,0,0,0,0,0,0,0,0,0,0,0,0,0,0,0,0,0,0,0,0,0,0,0,0,0,0,0,0,0,0,0,0,0,0,0,0,0,0,0,0,0,0,0,0,0,0,0,0,0,0,0,0,0,0,0,0,0,0,0,0,0,0,0,0,0,0,0,0,0,0,0,0,0,0,0,0,0,0,0,0,0,0,0,0,0,0,0,0,0,0,0,0,0,0,0,0,0,0,0,0,0,0,0,0,0,0,0,0,0a.55.55,0,0,1,.33-.54l4.92-2.84a2.12,2.12,0,0,1,1.92.08l5.68,3.28a.8.8,0,0,1,.47.61s0,0,0,0,0,0,0,0,0,0,0,0,0,0,0,0,0,0,0,0,0,0,0,0,0,0,0,0,0,0,0,0,0,0,0,0,0,0,0,0,0,0,0,0,0,0,0,0,0,0,0,0,0,0,0,0,0,0,0,0,0,0,0,0,0,0,0,0,0,0,0,0,0,0,0,0,0,0,0,0,0,0,0,0,0,0,0,0,0,0,0,0,0,0,0,0,0,0,0,0,0,0,0,0,0,0,0,0,0,0,0,0,0,0,0,0,0,0,0,0a.55.55,0,0,1-.33.54l-4.92,2.84a2.13,2.13,0,0,1-1.92-.08l-5.68-3.28A.8.8,0,0,1,80.07,209.66Z"/>
              <path class="cls-5" d="M71.57,214.57s0,0,0,0,0,0,0,0,0,0,0,0,0,0,0,0,0,0,0,0,0,0,0,0v0s0,0,0,0,0,0,0,0,0,0,0,0,0,0,0,0,0,0,0,0,0,0,0,0,0,0,0,0v0s0,0,0,0,0,0,0,0,0,0,0,0,0,0,0,0,0,0,0,0,0,0,0,0,0,0,0,0,0,0,0,0,0,0,0,0,0,0,0,0,0,0,0,0,0,0,0,0,0,0,0,0,0,0,0,0,0,0,0,0a.55.55,0,0,1,.33-.54L76.82,210a2.13,2.13,0,0,1,1.92.08l5.68,3.28a.79.79,0,0,1,.46.61s0,0,0,0,0,0,0,0,0,0,0,0,0,0,0,0,0,0,0,0,0,0,0,0,0,0,0,0,0,0,0,0,0,0,0,0,0,0,0,0,0,0,0,0,0,0,0,0,0,0,0,0,0,0,0,0,0,0,0,0,0,0,0,0,0,0,0,0,0,0,0,0,0,0,0,0,0,0,0,0,0,0,0,0,0,0,0,0,0,0,0,0,0,0,0,0,0,0,0,0,0,0,0,0,0,0,0,0,0,0,0,0,0,0,0,0,0,0,0,0a.54.54,0,0,1-.33.54l-4.92,2.84a2.13,2.13,0,0,1-1.92-.08L72,215.17A.8.8,0,0,1,71.57,214.57Z"/>
              <path class="cls-5" d="M41.07,196.91s0,0,0,0a.23.23,0,0,1,0,0,.23.23,0,0,1,0,0,.23.23,0,0,1,0,0,.24.24,0,0,1,0,0,.23.23,0,0,1,0,0,.23.23,0,0,1,0,0,.21.21,0,0,1,0,0,.24.24,0,0,1,0,0,.24.24,0,0,1,0,0,.2.2,0,0,1,0,0,.26.26,0,0,1,0,0,.23.23,0,0,1,0,0,.2.2,0,0,1,0,0,.24.24,0,0,1,0,0,.24.24,0,0,1,0,0,.21.21,0,0,1,0,0,.23.23,0,0,1,0,0,.23.23,0,0,1,0,0,.24.24,0,0,1,0,0,.23.23,0,0,1,0,0,.23.23,0,0,1,0,0,.23.23,0,0,1,0,0,.23.23,0,0,1,0,0,.24.24,0,0,1,0,0,.23.23,0,0,1,0,0,.23.23,0,0,1,0,0,.23.23,0,0,1,0,0,.23.23,0,0,1,0,0,.54.54,0,0,1,.33-.54l4.92-2.84a2.13,2.13,0,0,1,1.92.08l5.68,3.28a.8.8,0,0,1,.47.61.22.22,0,0,1,0,0,.22.22,0,0,1,0,0,.23.23,0,0,1,0,0,.2.2,0,0,1,0,0,.23.23,0,0,1,0,0,.22.22,0,0,1,0,0,.22.22,0,0,1,0,0,.23.23,0,0,1,0,0,.22.22,0,0,1,0,0,.2.2,0,0,1,0,0,.22.22,0,0,1,0,0,.22.22,0,0,1,0,0,.23.23,0,0,1,0,0,.22.22,0,0,1,0,0,.2.2,0,0,1,0,0,.22.22,0,0,1,0,0,.23.23,0,0,1,0,0,.23.23,0,0,1,0,0,.22.22,0,0,1,0,0,.22.22,0,0,1,0,0,.2.2,0,0,1,0,0,.22.22,0,0,1,0,0,.23.23,0,0,1,0,0,.22.22,0,0,1,0,0,.22.22,0,0,1,0,0,.22.22,0,0,1,0,0,.22.22,0,0,1,0,0,.23.23,0,0,1,0,0,.22.22,0,0,1,0,0,.22.22,0,0,1,0,0,.55.55,0,0,1-.33.54l-4.92,2.84a2.13,2.13,0,0,1-1.92-.08l-5.68-3.28a.79.79,0,0,1-.46-.6S41.07,196.93,41.07,196.91Z"/>
              <path class="cls-5" d="M42.75,207.69s0,0,0,0,0,0,0,0,0,0,0,0,0,0,0,0,0,0,0,0,0,0,0,0,0,0,0,0,0,0,0,0,0,0,0,0,0,0,0,0,0,0,0,0,0,0,0,0,0,0,0,0,0,0,0,0,0,0,0,0,0,0,0,0,0,0,0,0,0,0,0,0,0,0,0,0,0,0,0,0,0,0,0,0,0,0,0,0,0,0,0,0,0,0,0,0,0,0,0,0,0,0,0,0,0,0,0,0,0,0,0,0,0,0,0,0a.55.55,0,0,1,.33-.54L48,203.13a2.13,2.13,0,0,1,1.92.08l5.68,3.28a.8.8,0,0,1,.47.6s0,0,0,0,0,0,0,0,0,0,0,0,0,0,0,0,0,0,0,0,0,0,0,0,0,0,0,0,0,0,0,0,0,0,0,0,0,0,0,0,0,0,0,0,0,0,0,0,0,0,0,0,0,0,0,0,0,0,0,0,0,0,0,0,0,0,0,0,0,0,0,0,0,0,0,0,0,0,0,0,0,0,0,0,0,0,0,0,0,0,0,0,0,0,0,0,0,0,0,0,0,0,0,0,0,0,0,0,0,0,0,0,0,0,0,0,0,0,0,0a.54.54,0,0,1-.33.54l-4.92,2.84a2.14,2.14,0,0,1-1.92-.08l-5.68-3.28a.81.81,0,0,1-.47-.61S42.75,207.7,42.75,207.69Z"/>
              <path class="cls-5" d="M61.41,208.66s0,0,0,0,0,0,0,0,0,0,0,0,0,0,0,0,0,0,0,0,0,0,0,0,0,0,0,0,0,0,0,0,0,0,0,0,0,0,0,0,0,0,0,0,0,0,0,0,0,0,0,0,0,0,0,0,0,0,0,0,0,0,0,0,0,0,0,0,0,0,0,0,0,0,0,0,0,0,0,0,0,0,0,0,0,0,0,0,0,0,0,0,0,0,0,0,0,0,0,0,0,0,0,0,0,0,0,0,0,0,0,0,0,0,0,0a.55.55,0,0,1,.33-.54l4.92-2.84a2.13,2.13,0,0,1,1.92.08l5.68,3.28a.8.8,0,0,1,.47.61s0,0,0,0,0,0,0,0,0,0,0,0,0,0,0,0,0,0,0,0,0,0,0,0,0,0,0,0,0,0,0,0,0,0,0,0,0,0,0,0,0,0,0,0,0,0,0,0,0,0,0,0,0,0,0,0,0,0,0,0,0,0,0,0,0,0,0,0,0,0,0,0,0,0,0,0,0,0,0,0,0,0,0,0,0,0,0,0,0,0,0,0,0,0,0,0,0,0,0,0,0,0,0,0,0,0,0,0,0,0,0,0,0,0,0,0,0,0,0,0a.55.55,0,0,1-.33.54l-4.92,2.84a2.13,2.13,0,0,1-1.92-.08l-5.68-3.28a.8.8,0,0,1-.47-.61S61.41,208.67,61.41,208.66Z"/>
              <path class="cls-5" d="M63.08,219.43s0,0,0,0a.22.22,0,0,1,0,0,.2.2,0,0,1,0,0,.23.23,0,0,1,0,0,.22.22,0,0,1,0,0,.2.2,0,0,1,0,0,.24.24,0,0,1,0,0,.23.23,0,0,1,0,0,.2.2,0,0,1,0,0,.22.22,0,0,1,0,0,.2.2,0,0,1,0,0,.2.2,0,0,1,0,0,.26.26,0,0,1,0,0,.19.19,0,0,1,0,0,.22.22,0,0,1,0,0,.23.23,0,0,1,0,0,.22.22,0,0,1,0,0,.22.22,0,0,1,0,0,.22.22,0,0,1,0,0,.22.22,0,0,1,0,0,.22.22,0,0,1,0,0,.22.22,0,0,1,0,0,.22.22,0,0,1,0,0,.22.22,0,0,1,0,0,.22.22,0,0,1,0,0,.22.22,0,0,1,0,0,.22.22,0,0,1,0,0,.22.22,0,0,1,0,0,.23.23,0,0,1,0,0,.55.55,0,0,1,.33-.54l4.92-2.84a2.13,2.13,0,0,1,1.92.08l5.68,3.28a.8.8,0,0,1,.46.61.22.22,0,0,1,0,0,.2.2,0,0,1,0,0,.22.22,0,0,1,0,0,.23.23,0,0,1,0,0,.22.22,0,0,1,0,0,.22.22,0,0,1,0,0,.22.22,0,0,1,0,0,.22.22,0,0,1,0,0,.23.23,0,0,1,0,0,.22.22,0,0,1,0,0,.22.22,0,0,1,0,0,.22.22,0,0,1,0,0,.22.22,0,0,1,0,0,.23.23,0,0,1,0,0,.22.22,0,0,1,0,0,.22.22,0,0,1,0,0,.22.22,0,0,1,0,0,.22.22,0,0,1,0,0,.22.22,0,0,1,0,0,.23.23,0,0,1,0,0,.22.22,0,0,1,0,0,.22.22,0,0,1,0,0,.22.22,0,0,1,0,0,.22.22,0,0,1,0,0,.23.23,0,0,1,0,0,.22.22,0,0,1,0,0,.22.22,0,0,1,0,0,.22.22,0,0,1,0,0,.22.22,0,0,1,0,0,.22.22,0,0,1,0,0,.55.55,0,0,1-.33.54l-4.92,2.84a2.13,2.13,0,0,1-1.92-.08l-5.68-3.28a.79.79,0,0,1-.47-.6S63.08,219.44,63.08,219.43Z"/>
              <path class="cls-5" d="M22.66,191.32s0,0,0,0,0,0,0,0,0,0,0,0,0,0,0,0,0,0,0,0,0,0,0,0,0,0,0,0,0,0,0,0,0,0,0,0,0,0,0,0,0,0,0,0,0,0,0,0,0,0,0,0,0,0,0,0,0,0,0,0,0,0,0,0,0,0,0,0,0,0,0,0,0,0,0,0,0,0,0,0,0,0,0,0,0,0,0,0,0,0,0,0,0,0,0,0,0,0,0,0,0,0,0,0,0,0,0,0,0,0,0,0,0,0,0,0a.55.55,0,0,1,.33-.54l4.92-2.84a2.14,2.14,0,0,1,1.92.08l5.68,3.28a.8.8,0,0,1,.46.61.31.31,0,0,1,0,0,.33.33,0,0,1,0,0,.33.33,0,0,1,0,0,.31.31,0,0,1,0,0,.31.31,0,0,1,0,0,.29.29,0,0,1,0,0,.33.33,0,0,1,0,0,.31.31,0,0,1,0,0,.31.31,0,0,1,0,0,.31.31,0,0,1,0,0,.31.31,0,0,1,0,0,.33.33,0,0,1,0,0,.31.31,0,0,1,0,0,.31.31,0,0,1,0,0,.31.31,0,0,1,0,0,.31.31,0,0,1,0,0,.33.33,0,0,1,0,0,.29.29,0,0,1,0,0,.31.31,0,0,1,0,0,.33.33,0,0,1,0,0,.31.31,0,0,1,0,0,.29.29,0,0,1,0,0,.33.33,0,0,1,0,0,.33.33,0,0,1,0,0,.29.29,0,0,1,0,0,.33.33,0,0,1,0,0,.29.29,0,0,1,0,0,.33.33,0,0,1,0,0,.29.29,0,0,1,0,0,.31.31,0,0,1,0,0,.55.55,0,0,1-.33.54l-4.92,2.84a2.13,2.13,0,0,1-1.92-.08L23.12,192a.81.81,0,0,1-.47-.6S22.66,191.33,22.66,191.32Z"/>
              <path class="cls-5" d="M150.43,125.62s0,0,0,0,0,0,0,0,0,0,0,0,0,0,0,0,0,0,0,0,0,0,0,0a.55.55,0,0,1-.33.54l-4.92,2.84a2.13,2.13,0,0,1-1.92-.08l-5.68-3.28a.8.8,0,0,1-.46-.6s0,0,0,0,0,0,0,0,0,0,0,0,0,0,0,0,0,0,0,0,0,0,0,0,0,0,0,0,0,0,0,0a.31.31,0,0,1,0,0s0,0,0,0,0,0,0,0,0,0,0,0,0,0,0,0,0,0,0,0,0,0,0,0,0,0,0,0,0,0,0,0,0,0,0,0,0,0,0,0,0,0,0,0,0,0,0,0,0,0,0,0,0,0,0,0,0,0,0,0,0,0,0,0,0,0,0,0,0,0,0,0,0,0,0,0,0,0,0,0,0,0,0,0a.55.55,0,0,1,.33-.55l4.92-2.84a2.14,2.14,0,0,1,1.92.08L150,124a.8.8,0,0,1,.47.61s0,0,0,0,0,0,0,0,0,0,0,0,0,0,0,0,0,0,0,0,0,0,0,0,0,0,0,0,0,0,0,0,0,0,0,0,0,0,0,0,0,0,0,0,0,0,0,0,0,0,0,0,0,0,0,0,0,0,0,0,0,0,0,0,0,0,0,0,0,0,0,0,0,0,0,0,0,0,0,0,0,0,0,0,0,0,0,0,0,0,0,0S150.43,125.6,150.43,125.62Z"/>
              <path class="cls-5" d="M60.68,177.43s0,0,0,0,0,0,0,0,0,0,0,0,0,0,0,0,0,0,0,0,0,0,0,0a.55.55,0,0,1-.33.54l-4.92,2.84a2.12,2.12,0,0,1-1.92-.08l-5.68-3.28a.8.8,0,0,1-.46-.6s0,0,0,0,0,0,0,0,0,0,0,0,0,0,0,0,0,0,0,0,0,0,0,0,0,0,0,0,0,0,0,0,0,0,0,0,0,0,0,0,0,0,0,0,0,0,0,0,0,0,0,0,0,0,0,0,0,0,0,0,0,0,0,0,0,0,0,0,0,0,0,0,0,0,0,0,0,0,0,0,0,0,0,0,0,0,0,0,0,0,0,0,0,0,0,0,0,0,0,0,0,0,0,0,0,0,0,0,0,0,0,0,0,0,0,0,0,0,0,0a.55.55,0,0,1,.33-.54l4.92-2.84a2.14,2.14,0,0,1,1.92.08l5.68,3.28a.8.8,0,0,1,.46.61s0,0,0,0,0,0,0,0,0,0,0,0,0,0,0,0,0,0,0,0,0,0,0,0,0,0,0,0,0,0,0,0,0,0,0,0,0,0,0,0,0,0,0,0,0,0,0,0,0,0,0,0,0,0,0,0,0,0,0,0,0,0,0,0,0,0,0,0,0,0,0,0,0,0,0,0,0,0,0,0,0,0,0,0,0,0,0,0,0,0,0,0S60.68,177.42,60.68,177.43Z"/>
              <path class="cls-5" d="M32.58,201.33s0,0,0,0,0,0,0,0,0,0,0,0,0,0,0,0,0,0,0,0,0,0,0,0,0,0,0,0,0,0,0,0,0,0,0,0,0,0,0,0,0,0,0,0,0,0,0,0,0,0,0,0,0,0,0,0,0,0,0,0,0,0,0,0,0,0,0,0a.55.55,0,0,1,.33-.54l4.92-2.84a2.13,2.13,0,0,1,1.92.08l5.68,3.28a.79.79,0,0,1,.46.61.23.23,0,0,1,0,0,.23.23,0,0,1,0,0,.23.23,0,0,1,0,0,.23.23,0,0,1,0,0,.23.23,0,0,1,0,0,.23.23,0,0,1,0,0,.23.23,0,0,1,0,0,.23.23,0,0,1,0,0,.24.24,0,0,1,0,0,.23.23,0,0,1,0,0,.23.23,0,0,1,0,0,.23.23,0,0,1,0,0,.23.23,0,0,1,0,0,.23.23,0,0,1,0,0,.24.24,0,0,1,0,0,.22.22,0,0,1,0,0,.23.23,0,0,1,0,0,.23.23,0,0,1,0,0,.23.23,0,0,1,0,0,.24.24,0,0,1,0,0,.23.23,0,0,1,0,0,.23.23,0,0,1,0,0,.23.23,0,0,1,0,0,.23.23,0,0,1,0,0,.23.23,0,0,1,0,0,.24.24,0,0,1,0,0,.23.23,0,0,1,0,0,.23.23,0,0,1,0,0,.23.23,0,0,1,0,0,.23.23,0,0,1,0,0,.55.55,0,0,1-.33.54l-4.92,2.84a2.13,2.13,0,0,1-1.92-.08L33,202.47a.81.81,0,0,1-.46-.61s0,0,0,0,0,0,0,0,0,0,0,0,0,0,0,0,0,0,0,0,0,0,0,0,0,0,0,0,0,0,0,0,0,0,0,0,0,0,0,0,0,0,0,0,0,0,0,0S32.58,201.35,32.58,201.33Z"/>
              <path class="cls-5" d="M51.24,202.3a.39.39,0,0,1,0,0,.37.37,0,0,1,0,0,.37.37,0,0,1,0,0s0,0,0,0a.39.39,0,0,1,0,0,.39.39,0,0,1,0,0,.39.39,0,0,1,0,0,.4.4,0,0,1,0,0,.39.39,0,0,1,0,0s0,0,0,0a.39.39,0,0,1,0,0,.4.4,0,0,1,0,0,.39.39,0,0,1,0,0,.39.39,0,0,1,0,0s0,0,0,0a.39.39,0,0,1,0,0,.4.4,0,0,1,0,0,.54.54,0,0,1,.33-.54l4.92-2.84a2.13,2.13,0,0,1,1.92.08l5.68,3.28a.81.81,0,0,1,.47.61s0,0,0,0,0,0,0,0,0,0,0,0,0,0,0,0,0,0,0,0,0,0,0,0,0,0,0,0,0,0,0,0,0,0,0,0,0,0,0,0,0,0,0,0,0,0,0,0,0,0,0,0,0,0,0,0,0,0,0,0,0,0,0,0,0,0,0,0,0,0,0,0,0,0,0,0,0,0,0,0,0,0,0,0,0,0,0,0,0,0,0,0,0,0,0,0,0,0,0,0,0,0,0,0,0,0,0,0,0,0,0,0,0,0,0,0,0,0,0,0a.55.55,0,0,1-.33.54l-4.92,2.84a2.14,2.14,0,0,1-1.92-.08l-5.68-3.28a.8.8,0,0,1-.46-.6s0,0,0,0,0,0,0,0a.39.39,0,0,1,0,0,.39.39,0,0,1,0,0,.37.37,0,0,1,0,0s0,0,0,0a.39.39,0,0,1,0,0,.4.4,0,0,1,0,0,.23.23,0,0,1,0,0,.39.39,0,0,1,0,0,.35.35,0,0,1,0,0s0,0,0,0A.24.24,0,0,1,51.24,202.3Z"/>
              <path class="cls-5" d="M164.79,133.23s0,0,0,0,0,0,0,0,0,0,0,0,0,0,0,0,0,0,0,0,0,0,0,0,0,0,0,0,0,0,0,0,0,0,0,0,0,0,0,0,0,0,0,0,0,0,0,0,0,0,0,0,0,0,0,0a.55.55,0,0,1-.33.54l-4.92,2.84a2.13,2.13,0,0,1-1.92-.08l-5.68-3.28a.8.8,0,0,1-.46-.61s0,0,0,0,0,0,0,0a.2.2,0,0,1,0,0,.22.22,0,0,1,0,0,.22.22,0,0,1,0,0,.23.23,0,0,1,0,0,.23.23,0,0,1,0,0,.2.2,0,0,1,0,0,.22.22,0,0,1,0,0,.22.22,0,0,1,0,0,.39.39,0,0,1,0,0,.23.23,0,0,1,0,0,.22.22,0,0,1,0,0,.22.22,0,0,1,0,0,.22.22,0,0,1,0,0,.22.22,0,0,1,0,0,.22.22,0,0,1,0,0,.23.23,0,0,1,0,0,.22.22,0,0,1,0,0,.22.22,0,0,1,0,0,.22.22,0,0,1,0,0,.22.22,0,0,1,0,0,.23.23,0,0,1,0,0,.22.22,0,0,1,0,0,.22.22,0,0,1,0,0,.2.2,0,0,1,0,0,.23.23,0,0,1,0,0,.23.23,0,0,1,0,0,.19.19,0,0,1,0,0,.23.23,0,0,1,0,0,.55.55,0,0,1,.33-.54l4.92-2.84a2.13,2.13,0,0,1,1.92.08l5.68,3.28a.8.8,0,0,1,.47.61s0,0,0,0,0,0,0,0,0,0,0,0,0,0,0,0,0,0,0,0,0,0,0,0,0,0,0,0,0,0,0,0,0,0,0,0,0,0,0,0,0,0,0,0,0,0,0,0,0,0,0,0,0,0,0,0,0,0,0,0S164.79,133.22,164.79,133.23Z"/>
              <path class="cls-5" d="M99,154.39s0,0,0,0,0,0,0,0,0,0,0,0,0,0,0,0,0,0,0,0,0,0,0,0,0,0,0,0,0,0,0,0,0,0,0,0,0,0,0,0,0,0,0,0,0,0,0,0,0,0,0,0,0,0,0,0,0,0,0,0,0,0,0,0,0,0,0,0,0,0,0,0,0,0,0,0,0,0,0,0,0,0,0,0,0,0,0,0,0,0,0,0,0,0,0,0,0,0,0,0,0,0,0,0,0,0,0,0,0,0,0,0,0,0,0,0a.55.55,0,0,1-.33.54L93.73,159a2.13,2.13,0,0,1-1.92-.08l-5.68-3.28a.79.79,0,0,1-.47-.6.22.22,0,0,1,0,0,.23.23,0,0,1,0,0,.22.22,0,0,1,0,0,.2.2,0,0,1,0,0,.24.24,0,0,1,0,0,.2.2,0,0,1,0,0,.22.22,0,0,1,0,0,.22.22,0,0,1,0,0,.22.22,0,0,1,0,0,.23.23,0,0,1,0,0,.22.22,0,0,1,0,0s0,0,0,0a.22.22,0,0,1,0,0,.22.22,0,0,1,0,0,.23.23,0,0,1,0,0,.22.22,0,0,1,0,0,.22.22,0,0,1,0,0,.22.22,0,0,1,0,0,.22.22,0,0,1,0,0,.23.23,0,0,1,0,0,.22.22,0,0,1,0,0,.22.22,0,0,1,0,0,.22.22,0,0,1,0,0,.22.22,0,0,1,0,0,.22.22,0,0,1,0,0,.22.22,0,0,1,0,0,.22.22,0,0,1,0,0,.22.22,0,0,1,0,0,.23.23,0,0,1,0,0,.22.22,0,0,1,0,0,.55.55,0,0,1,.33-.54l4.92-2.84a2.13,2.13,0,0,1,1.92.08l5.68,3.28a.79.79,0,0,1,.47.6S99,154.38,99,154.39Z"/>
              <path class="cls-5" d="M137.27,132.24s0,0,0,0,0,0,0,0,0,0,0,0,0,0,0,0,0,0,0,0,0,0,0,0,0,0,0,0,0,0,0,0,0,0,0,0,0,0,0,0,0,0,0,0,0,0,0,0,0,0,0,0,0,0,0,0,0,0,0,0,0,0,0,0,0,0,0,0,0,0,0,0,0,0,0,0,0,0,0,0,0,0,0,0,0,0,0,0,0,0,0,0,0,0,0,0,0,0,0,0,0,0,0,0,0,0,0,0,0,0,0,0,0,0,0,0,0,0,0,0a.55.55,0,0,1-.33.54L132,136.84a2.14,2.14,0,0,1-1.92-.08l-5.68-3.28a.8.8,0,0,1-.46-.6s0,0,0,0v0s0,0,0,0,0,0,0,0,0,0,0,0,0,0,0,0,0,0,0,0,0,0,0,0,0,0,0,0,0,0,0,0,0,0,0,0,0,0,0,0,0,0,0,0,0,0,0,0,0,0,0,0,0,0,0,0,0,0,0,0,0,0,0,0,0,0,0,0,0,0,0,0,0,0,0,0,0,0,0,0,0,0,0,0,0,0,0,0,0,0,0,0,0,0,0,0,0,0,0,0,0,0,0,0,0,0,0,0,0,0,0,0a.55.55,0,0,1,.33-.54l4.92-2.84a2.13,2.13,0,0,1,1.92.08l5.68,3.28A.8.8,0,0,1,137.27,132.24Z"/>
              <path class="cls-5" d="M129,137s0,0,0,0,0,0,0,0,0,0,0,0,0,0,0,0,0,0,0,0,0,0,0,0,0,0,0,0,0,0,0,0,0,0,0,0,0,0,0,0,0,0,0,0,0,0,0,0,0,0,0,0,0,0,0,0,0,0,0,0,0,0,0,0,0,0,0,0,0,0,0,0,0,0,0,0,0,0,0,0,0,0,0,0,0,0,0,0,0,0,0,0,0,0,0,0,0,0,0,0,0,0,0,0,0,0,0,0,0,0,0,0,0,0,0,0v0a.55.55,0,0,1-.33.54l-4.92,2.84a2.13,2.13,0,0,1-1.92-.08l-5.68-3.28a.8.8,0,0,1-.46-.6s0,0,0,0,0,0,0,0,0,0,0,0,0,0,0,0,0,0,0,0,0,0,0,0,0,0,0,0,0,0,0,0,0,0,0,0,0,0,0,0,0,0,0,0,0,0,0,0,0,0,0,0,0,0,0,0,0,0,0,0,0,0,0,0,0,0,0,0,0,0,0,0,0,0,0,0,0,0,0,0,0,0,0,0,0,0,0,0,0,0,0,0,0,0,0,0,0,0,0,0,0,0,0,0,0,0,0,0,0,0,0,0,0,0,0,0,0,0,0,0a.55.55,0,0,1,.33-.54L121,133a2.13,2.13,0,0,1,1.92.08l5.68,3.28A.8.8,0,0,1,129,137Z"/>
              <path class="cls-5" d="M120.79,141.76s0,0,0,0,0,0,0,0,0,0,0,0,0,0,0,0,0,0,0,0,0,0,0,0,0,0,0,0,0,0,0,0,0,0,0,0,0,0,0,0,0,0,0,0,0,0,0,0,0,0,0,0,0,0,0,0,0,0,0,0,0,0,0,0,0,0,0,0,0,0,0,0,0,0,0,0,0,0,0,0,0,0,0,0,0,0,0,0,0,0,0,0,0,0,0,0,0,0,0,0,0,0,0,0,0,0,0,0,0,0,0,0,0,0,0,0,0,0,0,0a.55.55,0,0,1-.33.54l-4.92,2.84a2.13,2.13,0,0,1-1.92-.08L107.95,143a.8.8,0,0,1-.47-.6s0,0,0,0,0,0,0,0,0,0,0,0,0,0,0,0,0,0,0,0,0,0,0,0,0,0,0,0,0,0,0,0,0,0,0,0,0,0,0,0,0,0,0,0,0,0,0,0,0,0,0,0,0,0,0,0,0,0,0,0,0,0,0,0,0,0,0,0,0,0,0,0,0,0,0,0,0,0,0,0,0,0,0,0,0,0,0,0,0,0,0,0,0,0,0,0,0,0,0,0,0,0,0,0,0,0,0,0,0,0,0,0,0,0,0,0,0,0,0,0a.55.55,0,0,1,.33-.54l4.92-2.84a2.14,2.14,0,0,1,1.92.08l5.68,3.28A.8.8,0,0,1,120.79,141.76Z"/>
              <path class="cls-5" d="M112.56,146.51s0,0,0,0,0,0,0,0,0,0,0,0,0,0,0,0,0,0,0,0,0,0,0,0,0,0,0,0,0,0,0,0,0,0,0,0,0,0,0,0,0,0,0,0,0,0,0,0,0,0,0,0,0,0,0,0,0,0,0,0,0,0,0,0,0,0,0,0v0s0,0,0,0,0,0,0,0,0,0,0,0,0,0,0,0,0,0,0,0,0,0,0,0,0,0,0,0,0,0,0,0,0,0,0,0,0,0,0,0,0,0,0,0v0a.54.54,0,0,1-.33.54l-4.92,2.84a2.12,2.12,0,0,1-1.92-.08l-5.68-3.28a.8.8,0,0,1-.47-.61s0,0,0,0,0,0,0,0,0,0,0,0,0,0,0,0,0,0,0,0,0,0,0,0,0,0,0,0,0,0,0,0,0,0,0,0,0,0,0,0,0,0,0,0,0,0,0,0,0,0,0,0,0,0,0,0,0,0,0,0,0,0,0,0,0,0,0,0,0,0,0,0,0,0,0,0,0,0,0,0,0,0,0,0,0,0,0,0,0,0,0,0,0,0,0,0,0,0,0,0,0,0,0,0,0,0,0,0,0,0,0,0,0,0,0,0,0,0,0,0a.54.54,0,0,1,.33-.54l4.92-2.84a2.14,2.14,0,0,1,1.92.08l5.68,3.28A.8.8,0,0,1,112.56,146.51Z"/>
              <path class="cls-5" d="M134.82,141.26l4.92-2.84a2.13,2.13,0,0,1,1.92.08l5.68,3.28a.8.8,0,0,1,.47.61.23.23,0,0,1,0,0,.23.23,0,0,1,0,0,.23.23,0,0,1,0,0,.23.23,0,0,1,0,0,.24.24,0,0,1,0,0,.22.22,0,0,1,0,0,.23.23,0,0,1,0,0,.24.24,0,0,1,0,0,.21.21,0,0,1,0,0,.24.24,0,0,1,0,0,.24.24,0,0,1,0,0,.2.2,0,0,1,0,0,.23.23,0,0,1,0,0,.26.26,0,0,1,0,0,.22.22,0,0,1,0,0,.24.24,0,0,1,0,0,.24.24,0,0,1,0,0,.2.2,0,0,1,0,0,.23.23,0,0,1,0,0,.24.24,0,0,1,0,0,.23.23,0,0,1,0,0,.23.23,0,0,1,0,0,.23.23,0,0,1,0,0,.23.23,0,0,1,0,0,.23.23,0,0,1,0,0,.24.24,0,0,1,0,0,.23.23,0,0,1,0,0,.23.23,0,0,1,0,0,.24.24,0,0,1,0,0s0,0,0,0a.55.55,0,0,1-.33.55L142.55,147a2.13,2.13,0,0,1-1.92-.08L135,143.63a.8.8,0,0,1-.47-.61s0,0,0,0,0,0,0,0,0,0,0,0,0,0,0,0,0,0,0,0,0,0,0,0,0,0,0,0,0,0,0,0,0,0,0,0,0,0,0,0,0,0,0,0,0,0,0,0,0,0,0,0,0,0,0,0,0,0,0,0,0,0,0,0,0,0,0,0,0,0,0,0,0,0,0,0,0,0,0,0,0,0,0,0,0,0,0,0,0,0,0,0,0,0,0,0,0,0,0,0,0,0,0,0,0,0,0,0,0,0,0,0,0,0,0,0,0,0,0,0A.54.54,0,0,1,134.82,141.26Z"/>
              <path class="cls-5" d="M126.33,146.17l4.92-2.84a2.13,2.13,0,0,1,1.92.08l5.68,3.28a.79.79,0,0,1,.46.61s0,0,0,0,0,0,0,0,0,0,0,0,0,0,0,0,0,0,0,0,0,0,0,0,0,0,0,0,0,0,0,0,0,0,0,0,0,0,0,0,0,0,0,0,0,0,0,0,0,0,0,0,0,0,0,0,0,0,0,0,0,0,0,0,0,0,0,0,0,0,0,0,0,0,0,0,0,0,0,0,0,0,0,0,0,0,0,0,0,0,0,0,0,0,0,0,0,0,0,0,0,0,0,0,0,0,0,0,0,0,0,0,0,0,0,0,0,0,0,0a.55.55,0,0,1-.33.54l-4.92,2.84a2.13,2.13,0,0,1-1.92-.08l-5.68-3.28a.8.8,0,0,1-.46-.61s0,0,0,0,0,0,0,0a.23.23,0,0,1,0,0,.2.2,0,0,1,0,0,.22.22,0,0,1,0,0,.23.23,0,0,1,0,0,.22.22,0,0,1,0,0,.22.22,0,0,1,0,0,.22.22,0,0,1,0,0,.22.22,0,0,1,0,0,.23.23,0,0,1,0,0,.22.22,0,0,1,0,0,.22.22,0,0,1,0,0,.22.22,0,0,1,0,0,.22.22,0,0,1,0,0,.23.23,0,0,1,0,0,.22.22,0,0,1,0,0,.2.2,0,0,1,0,0,.22.22,0,0,1,0,0,.23.23,0,0,1,0,0,.23.23,0,0,1,0,0,.22.22,0,0,1,0,0,.2.2,0,0,1,0,0,.22.22,0,0,1,0,0,.22.22,0,0,1,0,0,.22.22,0,0,1,0,0,.23.23,0,0,1,0,0,.22.22,0,0,1,0,0,.2.2,0,0,1,0,0,.22.22,0,0,1,0,0A.54.54,0,0,1,126.33,146.17Z"/>
              <path class="cls-5" d="M117.83,151.07l4.92-2.84a2.13,2.13,0,0,1,1.92.08l5.68,3.28a.8.8,0,0,1,.47.61s0,0,0,0,0,0,0,0,0,0,0,0,0,0,0,0,0,0,0,0,0,0,0,0,0,0,0,0,0,0,0,0,0,0,0,0,0,0,0,0,0,0,0,0,0,0,0,0,0,0,0,0,0,0,0,0,0,0,0,0,0,0,0,0,0,0,0,0,0,0,0,0,0,0,0,0,0,0,0,0,0,0,0,0,0,0,0,0,0,0,0,0,0,0,0,0,0,0,0,0,0,0,0,0,0,0,0,0,0,0,0,0,0,0,0,0,0,0,0,0a.55.55,0,0,1-.33.54l-4.92,2.84a2.13,2.13,0,0,1-1.92-.08L118,153.43a.8.8,0,0,1-.47-.6s0,0,0,0,0,0,0,0,0,0,0,0,0,0,0,0,0,0,0,0,0,0,0,0,0,0,0,0,0,0,0,0,0,0,0,0,0,0,0,0,0,0,0,0,0,0,0,0,0,0,0,0,0,0,0,0,0,0,0,0,0,0,0,0,0,0,0,0,0,0,0,0,0,0,0,0,0,0,0,0,0,0,0,0,0,0,0,0,0,0,0,0,0,0,0,0,0,0,0,0,0,0,0,0,0,0,0,0,0,0,0,0,0,0,0,0,0,0,0,0A.55.55,0,0,1,117.83,151.07Z"/>
              <path class="cls-5" d="M109.34,156l4.92-2.84a2.14,2.14,0,0,1,1.92.08l5.68,3.28a.8.8,0,0,1,.47.61s0,0,0,0,0,0,0,0,0,0,0,0,0,0,0,0,0,0,0,0,0,0,0,0,0,0,0,0,0,0,0,0,0,0,0,0,0,0,0,0,0,0,0,0,0,0,0,0,0,0,0,0,0,0,0,0,0,0,0,0,0,0,0,0,0,0,0,0,0,0,0,0,0,0,0,0,0,0,0,0,0,0,0,0,0,0,0,0,0,0,0,0,0,0,0,0,0,0,0,0,0,0,0,0,0,0,0,0,0,0,0,0,0,0,0,0,0,0,0,0a.55.55,0,0,1-.33.54l-4.92,2.84a2.13,2.13,0,0,1-1.92-.08l-5.68-3.28a.8.8,0,0,1-.46-.6s0,0,0,0,0,0,0,0,0,0,0,0,0,0,0,0,0,0,0,0,0,0,0,0,0,0,0,0,0,0,0,0,0,0,0,0,0,0,0,0,0,0,0,0,0,0,0,0,0,0,0,0,0,0,0,0,0,0,0,0,0,0,0,0,0,0,0,0,0,0,0,0,0,0,0,0,0,0,0,0,0,0,0,0,0,0,0,0,0,0,0,0,0,0,0,0,0,0,0,0,0,0,0,0,0,0,0,0,0,0,0,0,0,0,0,0,0,0,0,0A.55.55,0,0,1,109.34,156Z"/>
              <path class="cls-5" d="M100.85,160.88l4.92-2.84a2.13,2.13,0,0,1,1.92.08l5.68,3.28a.79.79,0,0,1,.46.61.2.2,0,0,1,0,0,.23.23,0,0,1,0,0,.23.23,0,0,1,0,0,.19.19,0,0,1,0,0,.24.24,0,0,1,0,0,.22.22,0,0,1,0,0,.22.22,0,0,1,0,0,.22.22,0,0,1,0,0,.2.2,0,0,1,0,0,.22.22,0,0,1,0,0,.24.24,0,0,1,0,0,.19.19,0,0,1,0,0,.23.23,0,0,1,0,0,.23.23,0,0,1,0,0,.2.2,0,0,1,0,0,.22.22,0,0,1,0,0,.23.23,0,0,1,0,0,.2.2,0,0,1,0,0,.23.23,0,0,1,0,0,.23.23,0,0,1,0,0,.22.22,0,0,1,0,0,.2.2,0,0,1,0,0,.23.23,0,0,1,0,0,.22.22,0,0,1,0,0,.22.22,0,0,1,0,0,.22.22,0,0,1,0,0,.22.22,0,0,1,0,0,.22.22,0,0,1,0,0,.23.23,0,0,1,0,0,.22.22,0,0,1,0,0,.55.55,0,0,1-.33.54l-4.92,2.84a2.13,2.13,0,0,1-1.92-.08L101,163.24a.8.8,0,0,1-.46-.61.29.29,0,0,1,0,0,.29.29,0,0,1,0,0,.29.29,0,0,1,0,0,.29.29,0,0,1,0,0,.31.31,0,0,1,0,0,.29.29,0,0,1,0,0,.29.29,0,0,1,0,0,.29.29,0,0,1,0,0,.29.29,0,0,1,0,0,.31.31,0,0,1,0,0,.29.29,0,0,1,0,0,.27.27,0,0,1,0,0,.31.31,0,0,1,0,0,.29.29,0,0,1,0,0,.29.29,0,0,1,0,0,.31.31,0,0,1,0,0,.29.29,0,0,1,0,0,.26.26,0,0,1,0,0,.33.33,0,0,1,0,0,.31.31,0,0,1,0,0,.26.26,0,0,1,0,0,.31.31,0,0,1,0,0,.27.27,0,0,1,0,0,.29.29,0,0,1,0,0,.31.31,0,0,1,0,0,.31.31,0,0,1,0,0,.27.27,0,0,1,0,0,.29.29,0,0,1,0,0,.29.29,0,0,1,0,0,.29.29,0,0,1,0,0A.55.55,0,0,1,100.85,160.88Z"/>
              <path class="cls-5" d="M105.34,166.91a.22.22,0,0,1,0,0,.22.22,0,0,1,0,0,.22.22,0,0,1,0,0,.2.2,0,0,1,0,0,.22.22,0,0,1,0,0,.23.23,0,0,1,0,0,.22.22,0,0,1,0,0,.22.22,0,0,1,0,0,.23.23,0,0,1,0,0,.2.2,0,0,1,0,0,.23.23,0,0,1,0,0,.22.22,0,0,1,0,0,.22.22,0,0,1,0,0,.22.22,0,0,1,0,0,.22.22,0,0,1,0,0,.23.23,0,0,1,0,0,.22.22,0,0,1,0,0,.22.22,0,0,1,0,0,.22.22,0,0,1,0,0,.22.22,0,0,1,0,0,.23.23,0,0,1,0,0,.22.22,0,0,1,0,0,.2.2,0,0,1,0,0,.23.23,0,0,1,0,0,.22.22,0,0,1,0,0,.23.23,0,0,1,0,0,.2.2,0,0,1,0,0,.23.23,0,0,1,0,0,.22.22,0,0,1,0,0s0,0,0,0a.55.55,0,0,1-.33.55l-4.92,2.84a2.13,2.13,0,0,1-1.92-.08l-5.68-3.28a.8.8,0,0,1-.46-.61s0,0,0,0,0,0,0,0,0,0,0,0,0,0,0,0,0,0,0,0,0,0,0,0,0,0,0,0,0,0,0,0,0,0,0,0,0,0,0,0,0,0,0,0,0,0,0,0,0,0,0,0,0,0,0,0,0,0,0,0,0,0,0,0,0,0,0,0,0,0,0,0,0,0,0,0,0,0,0,0,0,0,0,0,0,0,0,0,0,0,0,0,0,0,0,0,0,0,0,0,0,0,0,0,0,0,0,0,0,0,0,0,0,0,0,0,0,0,0,0a.55.55,0,0,1,.33-.54l4.92-2.84a2.13,2.13,0,0,1,1.92.08l5.68,3.28A.79.79,0,0,1,105.34,166.91Z"/>
              <path class="cls-5" d="M75.37,175.59l4.92-2.84a2.14,2.14,0,0,1,1.92.08l5.68,3.28a.8.8,0,0,1,.47.61s0,0,0,0,0,0,0,0,0,0,0,0,0,0,0,0,0,0,0,0,0,0,0,0,0,0,0,0,0,0,0,0,0,0,0,0,0,0,0,0,0,0,0,0,0,0,0,0,0,0,0,0,0,0,0,0,0,0,0,0,0,0,0,0,0,0,0,0,0,0,0,0,0,0,0,0,0,0,0,0,0,0,0,0,0,0,0,0,0,0,0,0,0,0,0,0,0,0,0,0,0,0,0,0,0,0,0,0,0,0,0,0,0,0,0,0,0,0,0,0a.55.55,0,0,1-.33.54l-4.92,2.84a2.13,2.13,0,0,1-1.92-.08L75.51,178a.8.8,0,0,1-.46-.61.4.4,0,0,1,0,0,.39.39,0,0,1,0,0,.39.39,0,0,1,0,0s0,0,0,0a.39.39,0,0,1,0,0,.39.39,0,0,1,0,0,.39.39,0,0,1,0,0,.37.37,0,0,1,0,0s0,0,0,0a.39.39,0,0,1,0,0,.39.39,0,0,1,0,0,.39.39,0,0,1,0,0,.4.4,0,0,1,0,0s0,0,0,0a.39.39,0,0,1,0,0,.39.39,0,0,1,0,0,.39.39,0,0,1,0,0,.37.37,0,0,1,0,0s0,0,0,0a.39.39,0,0,1,0,0,.4.4,0,0,1,0,0,.39.39,0,0,1,0,0,.39.39,0,0,1,0,0s0,0,0,0a.39.39,0,0,1,0,0,.4.4,0,0,1,0,0,.39.39,0,0,1,0,0,.39.39,0,0,1,0,0s0,0,0,0a.39.39,0,0,1,0,0A.54.54,0,0,1,75.37,175.59Z"/>
              <path class="cls-5" d="M66.88,180.49l4.92-2.84a2.13,2.13,0,0,1,1.92.08L79.39,181a.79.79,0,0,1,.47.61.27.27,0,0,1,0,0,.33.33,0,0,1,0,0,.29.29,0,0,1,0,0,.26.26,0,0,1,0,0,.33.33,0,0,1,0,0,.29.29,0,0,1,0,0,.27.27,0,0,1,0,0,.33.33,0,0,1,0,0,.29.29,0,0,1,0,0,.26.26,0,0,1,0,0,.33.33,0,0,1,0,0,.29.29,0,0,1,0,0,.27.27,0,0,1,0,0,.31.31,0,0,1,0,0,.27.27,0,0,1,0,0,.29.29,0,0,1,0,0,.33.33,0,0,1,0,0,.27.27,0,0,1,0,0,.29.29,0,0,1,0,0,.31.31,0,0,1,0,0,.29.29,0,0,1,0,0,.29.29,0,0,1,0,0,.29.29,0,0,1,0,0,.29.29,0,0,1,0,0,.29.29,0,0,1,0,0,.29.29,0,0,1,0,0,.31.31,0,0,1,0,0,.29.29,0,0,1,0,0,.29.29,0,0,1,0,0s0,0,0,0a.55.55,0,0,1-.33.54l-4.92,2.84a2.13,2.13,0,0,1-1.92-.08L67,182.85a.8.8,0,0,1-.46-.61s0,0,0,0,0,0,0,0,0,0,0,0,0,0,0,0,0,0,0,0,0,0,0,0,0,0,0,0,0,0,0,0,0,0,0,0,0,0,0,0,0,0,0,0,0,0,0,0,0,0,0,0,0,0,0,0,0,0,0,0,0,0,0,0,0,0,0,0,0,0,0,0,0,0,0,0,0,0,0,0,0,0,0,0,0,0,0,0,0,0,0,0,0,0,0,0,0,0,0,0,0,0,0,0,0,0,0,0,0,0,0,0,0,0,0,0,0,0,0,0A.55.55,0,0,1,66.88,180.49Z"/>
              <path class="cls-5" d="M58.38,185.39l4.92-2.84a2.13,2.13,0,0,1,1.92.08l5.68,3.28a.79.79,0,0,1,.47.61.23.23,0,0,1,0,0,.22.22,0,0,1,0,0,.23.23,0,0,1,0,0,.24.24,0,0,1,0,0,.23.23,0,0,1,0,0,.23.23,0,0,1,0,0,.23.23,0,0,1,0,0,.23.23,0,0,1,0,0,.24.24,0,0,1,0,0,.23.23,0,0,1,0,0,.23.23,0,0,1,0,0,.23.23,0,0,1,0,0,.23.23,0,0,1,0,0,.24.24,0,0,1,0,0,.23.23,0,0,1,0,0,.23.23,0,0,1,0,0,.23.23,0,0,1,0,0,.23.23,0,0,1,0,0,.24.24,0,0,1,0,0,.23.23,0,0,1,0,0,.23.23,0,0,1,0,0,.23.23,0,0,1,0,0,.23.23,0,0,1,0,0,.24.24,0,0,1,0,0,.23.23,0,0,1,0,0,.23.23,0,0,1,0,0,.23.23,0,0,1,0,0,.23.23,0,0,1,0,0,.24.24,0,0,1,0,0,.2.2,0,0,1,0,0,.55.55,0,0,1-.33.54l-4.92,2.84A2.13,2.13,0,0,1,64.2,191l-5.68-3.28a.79.79,0,0,1-.46-.6.22.22,0,0,1,0,0,.22.22,0,0,1,0,0,.22.22,0,0,1,0,0,.22.22,0,0,1,0,0,.23.23,0,0,1,0,0,.22.22,0,0,1,0,0,.22.22,0,0,1,0,0,.22.22,0,0,1,0,0,.22.22,0,0,1,0,0,.23.23,0,0,1,0,0,.22.22,0,0,1,0,0,.22.22,0,0,1,0,0,.22.22,0,0,1,0,0,.22.22,0,0,1,0,0,.23.23,0,0,1,0,0,.22.22,0,0,1,0,0,.22.22,0,0,1,0,0,.22.22,0,0,1,0,0,.22.22,0,0,1,0,0,.23.23,0,0,1,0,0,.22.22,0,0,1,0,0,.2.2,0,0,1,0,0,.23.23,0,0,1,0,0,.22.22,0,0,1,0,0,.23.23,0,0,1,0,0,.19.19,0,0,1,0,0,.24.24,0,0,1,0,0,.2.2,0,0,1,0,0,.2.2,0,0,1,0,0,.23.23,0,0,1,0,0A.54.54,0,0,1,58.38,185.39Z"/>
              <path class="cls-5" d="M49.89,190.3l4.92-2.84a2.13,2.13,0,0,1,1.92.08l5.68,3.28a.8.8,0,0,1,.46.6s0,0,0,0a.39.39,0,0,1,0,0,.4.4,0,0,1,0,0,.39.39,0,0,1,0,0,.39.39,0,0,1,0,0s0,0,0,0a.39.39,0,0,1,0,0,.4.4,0,0,1,0,0,.39.39,0,0,1,0,0,.39.39,0,0,1,0,0s0,0,0,0a.37.37,0,0,1,0,0s0,0,0,0a.39.39,0,0,1,0,0,.37.37,0,0,1,0,0s0,0,0,0a.4.4,0,0,1,0,0,.37.37,0,0,1,0,0s0,0,0,0a.39.39,0,0,1,0,0,.37.37,0,0,1,0,0s0,0,0,0a.35.35,0,0,1,0,0,.4.4,0,0,1,0,0s0,0,0,0a.39.39,0,0,1,0,0,.39.39,0,0,1,0,0,.4.4,0,0,1,0,0s0,0,0,0a.35.35,0,0,1,0,0,.55.55,0,0,1-.33.55L57.63,196a2.13,2.13,0,0,1-1.92-.08L50,192.66a.8.8,0,0,1-.46-.6s0,0,0,0,0,0,0,0,0,0,0,0,0,0,0,0,0,0,0,0,0,0,0,0,0,0,0,0,0,0,0,0,0,0,0,0,0,0,0,0,0,0,0,0,0,0,0,0,0,0,0,0,0,0,0,0,0,0,0,0,0,0,0,0,0,0,0,0,0,0,0,0,0,0,0,0,0,0,0,0,0,0,0,0,0,0,0,0,0,0,0,0,0,0,0,0,0,0,0,0,0,0,0,0,0,0,0,0,0,0,0,0,0,0,0,0,0,0,0,0A.55.55,0,0,1,49.89,190.3Z"/>
              <path class="cls-5" d="M102.52,171.65l4.92-2.84a2.13,2.13,0,0,1,1.92.08l5.68,3.28a.79.79,0,0,1,.46.61.22.22,0,0,1,0,0,.22.22,0,0,1,0,0,.2.2,0,0,1,0,0,.23.23,0,0,1,0,0,.22.22,0,0,1,0,0,.2.2,0,0,1,0,0,.24.24,0,0,1,0,0,.2.2,0,0,1,0,0,.22.22,0,0,1,0,0,.23.23,0,0,1,0,0,.22.22,0,0,1,0,0,.2.2,0,0,1,0,0,.23.23,0,0,1,0,0,.22.22,0,0,1,0,0,.22.22,0,0,1,0,0,.22.22,0,0,1,0,0,.22.22,0,0,1,0,0,.22.22,0,0,1,0,0,.23.23,0,0,1,0,0,.22.22,0,0,1,0,0,.22.22,0,0,1,0,0,.22.22,0,0,1,0,0,.22.22,0,0,1,0,0,.23.23,0,0,1,0,0,.22.22,0,0,1,0,0,.2.2,0,0,1,0,0,.22.22,0,0,1,0,0,.22.22,0,0,1,0,0,.24.24,0,0,1,0,0,.22.22,0,0,1,0,0,.54.54,0,0,1-.33.54l-4.92,2.84a2.13,2.13,0,0,1-1.92-.08L102.66,174a.8.8,0,0,1-.47-.61s0,0,0,0,0,0,0,0,0,0,0,0,0,0,0,0,0,0,0,0,0,0,0,0,0,0,0,0,0,0,0,0,0,0,0,0,0,0,0,0,0,0,0,0,0,0,0,0,0,0,0,0,0,0,0,0,0,0,0,0,0,0,0,0,0,0,0,0,0,0,0,0,0,0,0,0,0,0,0,0,0,0,0,0,0,0,0,0,0,0,0,0,0,0,0,0,0,0,0,0,0,0,0,0,0,0,0,0,0,0,0,0,0,0,0,0,0,0,0,0A.55.55,0,0,1,102.52,171.65Z"/>
              <path class="cls-5" d="M100.87,173.79l5.68,3.28a.8.8,0,0,1,.46.6.24.24,0,0,1,0,0,.23.23,0,0,1,0,0,.23.23,0,0,1,0,0,.23.23,0,0,1,0,0,.23.23,0,0,1,0,0,.24.24,0,0,1,0,0,.23.23,0,0,1,0,0,.23.23,0,0,1,0,0,.23.23,0,0,1,0,0,.23.23,0,0,1,0,0,.24.24,0,0,1,0,0,.23.23,0,0,1,0,0,.23.23,0,0,1,0,0,.23.23,0,0,1,0,0,.21.21,0,0,1,0,0s0,0,0,0,0,0,0,0a.23.23,0,0,1,0,0,.22.22,0,0,1,0,0s0,0,0,0,0,0,0,0a.23.23,0,0,1,0,0,.2.2,0,0,1,0,0,.26.26,0,0,1,0,0,.23.23,0,0,1,0,0,.22.22,0,0,1,0,0,.24.24,0,0,1,0,0,.23.23,0,0,1,0,0,.23.23,0,0,1,0,0,.22.22,0,0,1,0,0,.55.55,0,0,1-.33.55l-4.92,2.84a2.13,2.13,0,0,1-1.92-.08l-5.68-3.28a.79.79,0,0,1-.47-.6s0,0,0,0,0,0,0,0,0,0,0,0,0,0,0,0,0,0,0,0,0,0,0,0,0,0,0,0,0,0,0,0,0,0,0,0,0,0,0,0,0,0,0,0,0,0,0,0,0,0,0,0,0,0,0,0,0,0,0,0,0,0,0,0,0,0,0,0,0,0,0,0,0,0,0,0,0,0,0,0,0,0,0,0,0,0,0,0,0,0,0,0,0,0,0,0,0,0,0,0,0,0,0,0,0,0,0,0,0,0,0,0,0,0,0,0,0,0,0,0a.55.55,0,0,1,.33-.54l4.92-2.84A2.13,2.13,0,0,1,100.87,173.79Z"/>
              <path class="cls-5" d="M60.06,196.17,65,193.33a2.13,2.13,0,0,1,1.92.08l5.68,3.28a.79.79,0,0,1,.46.61.23.23,0,0,1,0,0,.23.23,0,0,1,0,0,.23.23,0,0,1,0,0,.24.24,0,0,1,0,0,.23.23,0,0,1,0,0,.23.23,0,0,1,0,0,.23.23,0,0,1,0,0,.23.23,0,0,1,0,0,.24.24,0,0,1,0,0,.23.23,0,0,1,0,0,.23.23,0,0,1,0,0,.23.23,0,0,1,0,0,.23.23,0,0,1,0,0,.24.24,0,0,1,0,0,.23.23,0,0,1,0,0,.23.23,0,0,1,0,0,.23.23,0,0,1,0,0,.23.23,0,0,1,0,0,.23.23,0,0,1,0,0,.23.23,0,0,1,0,0,.23.23,0,0,1,0,0,.24.24,0,0,1,0,0,.2.2,0,0,1,0,0,.26.26,0,0,1,0,0,.23.23,0,0,1,0,0,.21.21,0,0,1,0,0,.24.24,0,0,1,0,0,.23.23,0,0,1,0,0,.23.23,0,0,1,0,0,.23.23,0,0,1,0,0,.55.55,0,0,1-.33.54l-4.92,2.84a2.13,2.13,0,0,1-1.92-.08l-5.68-3.28a.8.8,0,0,1-.47-.6s0,0,0,0,0,0,0,0,0,0,0,0,0,0,0,0,0,0,0,0,0,0,0,0,0,0,0,0,0,0,0,0,0,0,0,0,0,0,0,0,0,0,0,0,0,0,0,0,0,0,0,0,0,0,0,0,0,0,0,0,0,0,0,0,0,0,0,0,0,0,0,0,0,0,0,0,0,0,0,0,0,0,0,0,0,0,0,0,0,0,0,0,0,0,0,0,0,0,0,0,0,0,0,0,0,0,0,0,0,0,0,0,0,0,0,0,0,0,0,0A.55.55,0,0,1,60.06,196.17Z"/>
              <path class="cls-5" d="M53.24,211.84,58.16,209a2.13,2.13,0,0,1,1.92.08l5.68,3.28a.8.8,0,0,1,.47.61s0,0,0,0,0,0,0,0,0,0,0,0,0,0,0,0,0,0,0,0,0,0,0,0,0,0,0,0,0,0,0,0,0,0,0,0,0,0,0,0,0,0,0,0,0,0,0,0,0,0,0,0,0,0,0,0,0,0,0,0,0,0,0,0,0,0,0,0,0,0,0,0,0,0,0,0,0,0,0,0,0,0,0,0,0,0,0,0,0,0,0,0,0,0,0,0,0,0,0,0,0,0,0,0,0,0,0,0,0,0,0,0,0,0,0,0a.37.37,0,0,1,0,0,.55.55,0,0,1-.33.54L61,217.56a2.13,2.13,0,0,1-1.92-.08l-5.68-3.28a.79.79,0,0,1-.46-.6.23.23,0,0,1,0,0,.24.24,0,0,1,0,0,.24.24,0,0,1,0,0,.22.22,0,0,1,0,0,.23.23,0,0,1,0,0,.23.23,0,0,1,0,0,.24.24,0,0,1,0,0,.23.23,0,0,1,0,0,.23.23,0,0,1,0,0,.23.23,0,0,1,0,0,.23.23,0,0,1,0,0,.23.23,0,0,1,0,0,.24.24,0,0,1,0,0,.23.23,0,0,1,0,0,.23.23,0,0,1,0,0,.23.23,0,0,1,0,0,.24.24,0,0,1,0,0,.22.22,0,0,1,0,0,.24.24,0,0,1,0,0,.23.23,0,0,1,0,0,.23.23,0,0,1,0,0,.23.23,0,0,1,0,0,.24.24,0,0,1,0,0,.2.2,0,0,1,0,0,.26.26,0,0,1,0,0,.23.23,0,0,1,0,0,.21.21,0,0,1,0,0,.26.26,0,0,1,0,0,.23.23,0,0,1,0,0,.2.2,0,0,1,0,0A.55.55,0,0,1,53.24,211.84Z"/>
              <path class="cls-5" d="M90.74,159.11s0,0,0,0,0,0,0,0,0,0,0,0,0,0,0,0,0,0,0,0,0,0,0,0,0,0,0,0,0,0,0,0,0,0,0,0,0,0,0,0,0,0,0,0,0,0,0,0,0,0,0,0,0,0,0,0,0,0,0,0,0,0,0,0,0,0,0,0,0,0,0,0,0,0,0,0,0,0,0,0,0,0,0,0,0,0,0,0,0,0,0,0,0,0,0,0,0,0,0,0,0,0,0,0,0,0,0,0,0,0,0,0,0,0,0,0,0,0,0,0a.55.55,0,0,1-.33.54l-4.92,2.84a2.14,2.14,0,0,1-1.92-.08l-5.68-3.28a.8.8,0,0,1-.47-.6.22.22,0,0,1,0,0s0,0,0,0,0,0,0,0a.19.19,0,0,1,0,0,.23.23,0,0,1,0,0s0,0,0,0,0,0,0,0a.22.22,0,0,1,0,0,.23.23,0,0,1,0,0s0,0,0,0,0,0,0,0,0,0,0,0,0,0,0,0,0,0,0,0,0,0,0,0,0,0,0,0,0,0,0,0,0,0,0,0,0,0,0,0,0,0,0,0,0,0,0,0a.22.22,0,0,1,0,0s0,0,0,0,0,0,0,0,0,0,0,0,0,0,0,0,0,0,0,0,0,0,0,0a.2.2,0,0,1,0,0s0,0,0,0a.55.55,0,0,1,.33-.54l4.92-2.84a2.13,2.13,0,0,1,1.92.08l5.68,3.28A.8.8,0,0,1,90.74,159.11Z"/>
              <path class="cls-5" d="M82.5,163.86a.22.22,0,0,1,0,0,.22.22,0,0,1,0,0,.22.22,0,0,1,0,0,.22.22,0,0,1,0,0,.22.22,0,0,1,0,0,.22.22,0,0,1,0,0,.23.23,0,0,1,0,0,.2.2,0,0,1,0,0,.23.23,0,0,1,0,0,.22.22,0,0,1,0,0,.22.22,0,0,1,0,0,.22.22,0,0,1,0,0,.22.22,0,0,1,0,0,.23.23,0,0,1,0,0,.22.22,0,0,1,0,0,.22.22,0,0,1,0,0,.22.22,0,0,1,0,0,.22.22,0,0,1,0,0,.23.23,0,0,1,0,0,.22.22,0,0,1,0,0,.22.22,0,0,1,0,0,.22.22,0,0,1,0,0,.2.2,0,0,1,0,0,.24.24,0,0,1,0,0,.22.22,0,0,1,0,0,.19.19,0,0,1,0,0,.22.22,0,0,1,0,0,.24.24,0,0,1,0,0,.23.23,0,0,1,0,0,.19.19,0,0,1,0,0,.55.55,0,0,1-.33.54l-4.92,2.84a2.13,2.13,0,0,1-1.92-.08l-5.68-3.28a.8.8,0,0,1-.47-.6.26.26,0,0,1,0,0,.27.27,0,0,1,0,0,.31.31,0,0,1,0,0,.23.23,0,0,1,0,0,.33.33,0,0,1,0,0,.33.33,0,0,1,0,0,.29.29,0,0,1,0,0,.23.23,0,0,1,0,0,.31.31,0,0,1,0,0,.33.33,0,0,1,0,0,.31.31,0,0,1,0,0,.31.31,0,0,1,0,0,.31.31,0,0,1,0,0,.31.31,0,0,1,0,0,.33.33,0,0,1,0,0,.31.31,0,0,1,0,0,.31.31,0,0,1,0,0,.31.31,0,0,1,0,0,.23.23,0,0,1,0,0,.33.33,0,0,1,0,0,.31.31,0,0,1,0,0,.31.31,0,0,1,0,0,.31.31,0,0,1,0,0,.31.31,0,0,1,0,0,.33.33,0,0,1,0,0,.31.31,0,0,1,0,0,.29.29,0,0,1,0,0,.31.31,0,0,1,0,0,.31.31,0,0,1,0,0,.33.33,0,0,1,0,0,.55.55,0,0,1,.33-.54l4.92-2.84a2.13,2.13,0,0,1,1.92.08L82,163.26A.8.8,0,0,1,82.5,163.86Z"/>
              <path class="cls-5" d="M74.26,168.62s0,0,0,0,0,0,0,0,0,0,0,0,0,0,0,0,0,0,0,0,0,0,0,0,0,0,0,0,0,0,0,0,0,0,0,0,0,0,0,0,0,0,0,0,0,0,0,0,0,0,0,0,0,0,0,0,0,0,0,0,0,0,0,0,0,0,0,0,0,0,0,0,0,0,0,0,0,0,0,0,0,0,0,0,0,0,0,0,0,0,0,0,0,0,0,0,0,0,0,0,0,0,0,0,0,0,0,0,0,0,0,0,0,0,0,0,0,0,0,0a.55.55,0,0,1-.33.54L69,173.22a2.14,2.14,0,0,1-1.92-.08l-5.68-3.28a.8.8,0,0,1-.46-.6.26.26,0,0,1,0,0,.21.21,0,0,1,0,0,.23.23,0,0,1,0,0,.23.23,0,0,1,0,0,.23.23,0,0,1,0,0,.23.23,0,0,1,0,0,.24.24,0,0,1,0,0,.23.23,0,0,1,0,0,.23.23,0,0,1,0,0,.23.23,0,0,1,0,0,.23.23,0,0,1,0,0,.23.23,0,0,1,0,0,.24.24,0,0,1,0,0,.23.23,0,0,1,0,0,.22.22,0,0,1,0,0,.24.24,0,0,1,0,0,.23.23,0,0,1,0,0,.24.24,0,0,1,0,0,.23.23,0,0,1,0,0,.23.23,0,0,1,0,0,.2.2,0,0,1,0,0,.26.26,0,0,1,0,0,.24.24,0,0,1,0,0,.23.23,0,0,1,0,0,.23.23,0,0,1,0,0,.21.21,0,0,1,0,0,.24.24,0,0,1,0,0,.24.24,0,0,1,0,0,.23.23,0,0,1,0,0,.2.2,0,0,1,0,0,.55.55,0,0,1,.33-.54l4.92-2.84a2.13,2.13,0,0,1,1.92.08L73.8,168A.79.79,0,0,1,74.26,168.62Z"/>
              <path class="cls-5" d="M52.44,181.22s0,0,0,0,0,0,0,0,0,0,0,0,0,0,0,0,0,0,0,0,0,0,0,0,0,0,0,0,0,0,0,0,0,0,0,0,0,0,0,0,0,0,0,0,0,0,0,0,0,0,0,0,0,0,0,0,0,0,0,0,0,0,0,0,0,0,0,0,0,0,0,0,0,0,0,0,0,0,0,0,0,0,0,0a.37.37,0,0,1,0,0s0,0,0,0,0,0,0,0,0,0,0,0,0,0,0,0,0,0,0,0,0,0,0,0,0,0,0,0,0,0,0,0a.55.55,0,0,1-.33.54l-4.92,2.84a2.13,2.13,0,0,1-1.92-.08l-5.68-3.28a.8.8,0,0,1-.46-.61.24.24,0,0,1,0,0,.23.23,0,0,1,0,0,.23.23,0,0,1,0,0,.2.2,0,0,1,0,0,.24.24,0,0,1,0,0,.24.24,0,0,1,0,0,.23.23,0,0,1,0,0,.23.23,0,0,1,0,0,.22.22,0,0,1,0,0,.23.23,0,0,1,0,0,.26.26,0,0,1,0,0,.23.23,0,0,1,0,0,.23.23,0,0,1,0,0,.23.23,0,0,1,0,0,.21.21,0,0,1,0,0,.24.24,0,0,1,0,0,.23.23,0,0,1,0,0,.23.23,0,0,1,0,0,.23.23,0,0,1,0,0,.23.23,0,0,1,0,0,.24.24,0,0,1,0,0,.23.23,0,0,1,0,0,.23.23,0,0,1,0,0,.23.23,0,0,1,0,0,.23.23,0,0,1,0,0,.23.23,0,0,1,0,0,.24.24,0,0,1,0,0,.23.23,0,0,1,0,0,.22.22,0,0,1,0,0,.24.24,0,0,1,0,0,.55.55,0,0,1,.33-.54l4.92-2.84a2.14,2.14,0,0,1,1.92.08L52,180.61A.8.8,0,0,1,52.44,181.22Z"/>
              <path class="cls-5" d="M44.2,186a.2.2,0,0,1,0,0,.23.23,0,0,1,0,0,.22.22,0,0,1,0,0,.2.2,0,0,1,0,0,.23.23,0,0,1,0,0,.22.22,0,0,1,0,0,.22.22,0,0,1,0,0,.22.22,0,0,1,0,0,.22.22,0,0,1,0,0,.23.23,0,0,1,0,0,.22.22,0,0,1,0,0,.22.22,0,0,1,0,0,.22.22,0,0,1,0,0,.22.22,0,0,1,0,0,.23.23,0,0,1,0,0,.22.22,0,0,1,0,0,.2.2,0,0,1,0,0,.22.22,0,0,1,0,0,.22.22,0,0,1,0,0,.23.23,0,0,1,0,0,.23.23,0,0,1,0,0,.2.2,0,0,1,0,0,.22.22,0,0,1,0,0,.22.22,0,0,1,0,0,.23.23,0,0,1,0,0,.22.22,0,0,1,0,0,.22.22,0,0,1,0,0,.2.2,0,0,1,0,0,.22.22,0,0,1,0,0,.23.23,0,0,1,0,0,.55.55,0,0,1-.33.54L39,190.57a2.13,2.13,0,0,1-1.92-.08l-5.68-3.28a.8.8,0,0,1-.46-.6.26.26,0,0,1,0,0,.21.21,0,0,1,0,0s0,0,0,0,0,0,0,0a.24.24,0,0,1,0,0,.24.24,0,0,1,0,0,.23.23,0,0,1,0,0,.2.2,0,0,1,0,0,.26.26,0,0,1,0,0,.23.23,0,0,1,0,0,.23.23,0,0,1,0,0,.22.22,0,0,1,0,0,.23.23,0,0,1,0,0,.24.24,0,0,1,0,0,.23.23,0,0,1,0,0,.23.23,0,0,1,0,0,.23.23,0,0,1,0,0,.23.23,0,0,1,0,0,.24.24,0,0,1,0,0,.23.23,0,0,1,0,0,.23.23,0,0,1,0,0,.23.23,0,0,1,0,0,.23.23,0,0,1,0,0,.24.24,0,0,1,0,0,.23.23,0,0,1,0,0,.22.22,0,0,1,0,0,.23.23,0,0,1,0,0,.24.24,0,0,1,0,0,.23.23,0,0,1,0,0,.24.24,0,0,1,0,0,.54.54,0,0,1,.33-.54L36.14,182a2.14,2.14,0,0,1,1.92.08l5.68,3.28A.8.8,0,0,1,44.2,186Z"/>
            </g>
            <g>
              <path class="cls-6" d="M137.44,123.27l4.92-2.84a2.14,2.14,0,0,1,1.92.08l5.68,3.28c.57.33.63.82.14,1.11l-4.92,2.84a2.13,2.13,0,0,1-1.92-.08l-5.68-3.28C137,124.05,137,123.56,137.44,123.27Z"/>
              <path class="cls-6" d="M136.94,132.5,132,135.34a2.13,2.13,0,0,1-1.92-.08L124.42,132c-.57-.33-.63-.82-.14-1.11L129.2,128a2.13,2.13,0,0,1,1.92.08l5.68,3.28C137.37,131.72,137.43,132.21,136.94,132.5Z"/>
              <path class="cls-6" d="M128.7,137.26l-4.92,2.84a2.13,2.13,0,0,1-1.92-.08l-5.68-3.28c-.57-.33-.63-.82-.14-1.11l4.92-2.84a2.13,2.13,0,0,1,1.92.08l5.68,3.28C129.13,136.48,129.19,137,128.7,137.26Z"/>
              <path class="cls-6" d="M120.46,142l-4.92,2.84a2.13,2.13,0,0,1-1.92-.08l-5.68-3.28c-.57-.33-.63-.82-.14-1.11l4.92-2.84a2.13,2.13,0,0,1,1.92.08l5.68,3.28C120.9,141.23,121,141.73,120.46,142Z"/>
              <path class="cls-6" d="M112.23,146.77l-4.92,2.84a2.13,2.13,0,0,1-1.92-.08l-5.68-3.28c-.57-.33-.63-.82-.14-1.11l4.92-2.84a2.14,2.14,0,0,1,1.92.08l5.68,3.28C112.66,146,112.72,146.48,112.23,146.77Z"/>
              <path class="cls-6" d="M151.8,131.21l4.92-2.84a2.14,2.14,0,0,1,1.92.08l5.68,3.28c.57.33.63.83.14,1.11l-4.92,2.84a2.13,2.13,0,0,1-1.92-.08l-5.68-3.28C151.37,132,151.31,131.5,151.8,131.21Z"/>
              <path class="cls-6" d="M143.31,136.11l4.92-2.84a2.13,2.13,0,0,1,1.92.08l5.68,3.28c.57.33.63.82.14,1.11L151,140.58a2.13,2.13,0,0,1-1.92-.08l-5.68-3.28C142.88,136.89,142.82,136.4,143.31,136.11Z"/>
              <path class="cls-6" d="M135,142.13c-.57-.33-.63-.83-.14-1.11l4.92-2.84a2.13,2.13,0,0,1,1.92.08l5.68,3.28c.57.33.63.82.14,1.11l-4.92,2.84a2.14,2.14,0,0,1-1.92-.08Z"/>
              <path class="cls-6" d="M126.46,147c-.57-.33-.63-.82-.14-1.11l4.92-2.84a2.13,2.13,0,0,1,1.92.08l5.68,3.28c.57.33.63.83.14,1.11l-4.92,2.84a2.13,2.13,0,0,1-1.92-.08Z"/>
              <path class="cls-6" d="M118,151.93c-.57-.33-.63-.82-.14-1.11l4.92-2.84a2.13,2.13,0,0,1,1.92.08l5.68,3.28c.57.33.63.82.14,1.11l-4.92,2.84a2.12,2.12,0,0,1-1.92-.08Z"/>
              <path class="cls-6" d="M116.18,153l5.68,3.28c.57.33.63.82.14,1.11l-4.92,2.84a2.14,2.14,0,0,1-1.92-.08l-5.68-3.28c-.57-.33-.63-.83-.14-1.11l4.92-2.84A2.14,2.14,0,0,1,116.18,153Z"/>
              <path class="cls-6" d="M113.5,162.26l-4.92,2.84a2.13,2.13,0,0,1-1.92-.08L101,161.74c-.57-.33-.63-.82-.14-1.11l4.92-2.84a2.14,2.14,0,0,1,1.92.08l5.68,3.28C113.93,161.48,114,162,113.5,162.26Z"/>
              <path class="cls-6" d="M92.36,165.53l4.92-2.84a2.13,2.13,0,0,1,1.92.08l5.68,3.28c.57.33.63.82.14,1.11L100.09,170a2.13,2.13,0,0,1-1.92-.08l-5.68-3.28C91.93,166.31,91.86,165.82,92.36,165.53Z"/>
              <path class="cls-6" d="M83.86,170.44l4.92-2.84a2.13,2.13,0,0,1,1.92.08L96.38,171c.57.33.63.82.14,1.11l-4.92,2.84a2.14,2.14,0,0,1-1.92-.08L84,171.54C83.43,171.22,83.37,170.72,83.86,170.44Z"/>
              <path class="cls-6" d="M75.37,175.34l4.92-2.84a2.13,2.13,0,0,1,1.92.08l5.68,3.28c.57.33.63.82.14,1.11l-4.92,2.84a2.14,2.14,0,0,1-1.92-.08l-5.68-3.28C74.94,176.12,74.88,175.62,75.37,175.34Z"/>
              <path class="cls-6" d="M66.88,180.24l4.92-2.84a2.13,2.13,0,0,1,1.92.08l5.68,3.28c.57.33.63.82.14,1.11l-4.92,2.84a2.14,2.14,0,0,1-1.92-.08L67,181.35C66.45,181,66.38,180.53,66.88,180.24Z"/>
              <path class="cls-6" d="M58.38,185.15l4.92-2.84a2.13,2.13,0,0,1,1.92.08l5.68,3.28c.57.33.63.82.14,1.11l-4.92,2.84a2.13,2.13,0,0,1-1.92-.08l-5.68-3.28C58,185.93,57.89,185.43,58.38,185.15Z"/>
              <path class="cls-6" d="M49.89,190l4.92-2.84a2.13,2.13,0,0,1,1.92.08l5.68,3.28c.57.33.63.82.14,1.11l-4.92,2.84a2.13,2.13,0,0,1-1.92-.08L50,191.16C49.46,190.83,49.4,190.33,49.89,190Z"/>
              <path class="cls-6" d="M41.4,195l4.92-2.84a2.13,2.13,0,0,1,1.92.08l5.68,3.28c.57.33.63.82.14,1.11l-4.92,2.84a2.12,2.12,0,0,1-1.92-.08l-5.68-3.28C41,195.73,40.91,195.24,41.4,195Z"/>
              <path class="cls-6" d="M32.91,199.86,37.83,197a2.13,2.13,0,0,1,1.92.08l5.68,3.28c.57.33.63.82.14,1.11l-4.92,2.84a2.13,2.13,0,0,1-1.92-.08L33,201C32.48,200.64,32.41,200.14,32.91,199.86Z"/>
              <path class="cls-6" d="M162,137.08l4.92-2.84a2.13,2.13,0,0,1,1.92.08l5.68,3.28c.57.33.63.82.14,1.11l-4.92,2.84a2.12,2.12,0,0,1-1.92-.08l-5.68-3.28C161.54,137.86,161.48,137.36,162,137.08Z"/>
              <path class="cls-6" d="M153.48,142l4.92-2.84a2.13,2.13,0,0,1,1.92.08L166,142.5c.57.33.63.82.14,1.11l-4.92,2.84a2.13,2.13,0,0,1-1.92-.08l-5.68-3.28C153,142.77,153,142.27,153.48,142Z"/>
              <path class="cls-6" d="M145.12,148c-.57-.33-.63-.82-.14-1.11L149.9,144a2.13,2.13,0,0,1,1.92.08l5.68,3.28c.57.33.63.82.14,1.11l-4.92,2.84a2.13,2.13,0,0,1-1.92-.08Z"/>
              <path class="cls-6" d="M136.63,152.9c-.57-.33-.63-.82-.14-1.11l4.92-2.84a2.13,2.13,0,0,1,1.92.08l5.68,3.28c.57.33.63.82.14,1.11l-4.92,2.84a2.14,2.14,0,0,1-1.92-.08Z"/>
              <path class="cls-6" d="M128.14,157.8c-.57-.33-.63-.82-.14-1.11l4.92-2.84a2.13,2.13,0,0,1,1.92.08l5.68,3.28c.57.33.63.82.14,1.11l-4.92,2.84a2.13,2.13,0,0,1-1.92-.08Z"/>
              <path class="cls-6" d="M119.65,162.71c-.57-.33-.63-.82-.14-1.11l4.92-2.84a2.13,2.13,0,0,1,1.92.08l5.68,3.28c.57.33.63.82.14,1.11l-4.92,2.84a2.13,2.13,0,0,1-1.92-.08Z"/>
              <path class="cls-6" d="M123.67,168.13,118.75,171a2.13,2.13,0,0,1-1.92-.08l-5.68-3.28c-.57-.33-.63-.82-.14-1.11l4.92-2.84a2.14,2.14,0,0,1,1.92.08l5.68,3.28C124.1,167.35,124.16,167.84,123.67,168.13Z"/>
              <path class="cls-6" d="M102.52,171.4l4.92-2.84a2.13,2.13,0,0,1,1.92.08l5.68,3.28c.57.33.63.82.14,1.11l-4.92,2.84a2.14,2.14,0,0,1-1.92-.08l-5.68-3.28C102.09,172.18,102,171.69,102.52,171.4Z"/>
              <path class="cls-6" d="M94,176.31l4.92-2.84a2.13,2.13,0,0,1,1.92.08l5.68,3.28c.57.33.63.82.14,1.11l-4.92,2.84a2.13,2.13,0,0,1-1.92-.08l-5.68-3.28C93.6,177.09,93.54,176.59,94,176.31Z"/>
              <path class="cls-6" d="M85.54,181.21l4.92-2.84a2.13,2.13,0,0,1,1.92.08l5.68,3.28c.57.33.63.82.14,1.11l-4.92,2.84a2.13,2.13,0,0,1-1.92-.08l-5.68-3.28C85.11,182,85,181.49,85.54,181.21Z"/>
              <path class="cls-6" d="M77,186.11,82,183.27a2.13,2.13,0,0,1,1.92.08l5.68,3.28c.57.33.63.82.14,1.11l-4.92,2.84a2.14,2.14,0,0,1-1.92-.08l-5.68-3.28C76.61,186.89,76.55,186.4,77,186.11Z"/>
              <path class="cls-6" d="M68.55,191l4.92-2.84a2.14,2.14,0,0,1,1.92.08l5.68,3.28c.57.33.63.82.14,1.11l-4.92,2.84a2.13,2.13,0,0,1-1.92-.08l-5.68-3.28C68.12,191.8,68.06,191.3,68.55,191Z"/>
              <path class="cls-6" d="M60.06,195.92,65,193.08a2.13,2.13,0,0,1,1.92.08l5.68,3.28c.57.33.63.82.14,1.11l-4.92,2.84a2.14,2.14,0,0,1-1.92-.08L60.2,197C59.63,196.7,59.57,196.2,60.06,195.92Z"/>
              <path class="cls-6" d="M51.57,200.82,56.49,198a2.13,2.13,0,0,1,1.92.08l5.68,3.28c.57.33.63.82.14,1.11l-4.92,2.84a2.14,2.14,0,0,1-1.92-.08l-5.68-3.28C51.14,201.6,51.08,201.11,51.57,200.82Z"/>
              <path class="cls-6" d="M43.07,205.73,48,202.89a2.13,2.13,0,0,1,1.92.08l5.68,3.28c.57.33.63.82.14,1.11l-4.92,2.84a2.13,2.13,0,0,1-1.92-.08l-5.68-3.28C42.64,206.51,42.58,206,43.07,205.73Z"/>
              <path class="cls-6" d="M172.14,143l4.92-2.84a2.14,2.14,0,0,1,1.92.08l5.68,3.28c.57.33.63.82.14,1.11l-4.92,2.84a2.13,2.13,0,0,1-1.92-.08l-5.68-3.28C171.71,143.73,171.65,143.23,172.14,143Z"/>
              <path class="cls-6" d="M163.65,147.85l4.92-2.84a2.13,2.13,0,0,1,1.92.08l5.68,3.28c.57.33.63.82.14,1.11l-4.92,2.84a2.13,2.13,0,0,1-1.92-.08L163.78,149C163.22,148.63,163.15,148.14,163.65,147.85Z"/>
              <path class="cls-6" d="M155.15,152.76l4.92-2.84A2.14,2.14,0,0,1,162,150l5.68,3.28c.57.33.63.83.14,1.11l-4.92,2.84a2.14,2.14,0,0,1-1.92-.08l-5.68-3.28C154.72,153.54,154.66,153,155.15,152.76Z"/>
              <path class="cls-6" d="M146.66,157.66l4.92-2.84a2.13,2.13,0,0,1,1.92.08l5.68,3.28c.57.33.63.82.14,1.11l-4.92,2.84a2.14,2.14,0,0,1-1.92-.08l-5.68-3.28C146.23,158.44,146.17,157.94,146.66,157.66Z"/>
              <path class="cls-6" d="M138.17,162.56l4.92-2.84a2.13,2.13,0,0,1,1.92.08l5.68,3.28c.57.33.63.82.14,1.11L145.9,167A2.13,2.13,0,0,1,144,167l-5.68-3.28C137.74,163.35,137.68,162.85,138.17,162.56Z"/>
              <path class="cls-6" d="M129.67,167.47l4.92-2.84a2.13,2.13,0,0,1,1.92.08l5.68,3.28c.57.33.63.82.14,1.11l-4.92,2.84a2.13,2.13,0,0,1-1.92-.08l-5.68-3.28C129.25,168.25,129.18,167.75,129.67,167.47Z"/>
              <path class="cls-6" d="M133.84,174l-4.92,2.84a2.12,2.12,0,0,1-1.92-.08l-5.68-3.28c-.57-.33-.63-.82-.14-1.11l4.92-2.84a2.13,2.13,0,0,1,1.92.08l5.68,3.28C134.27,173.22,134.33,173.71,133.84,174Z"/>
              <path class="cls-6" d="M112.69,177.27l4.92-2.84a2.13,2.13,0,0,1,1.92.08l5.68,3.28c.57.33.63.82.14,1.11l-4.92,2.84a2.13,2.13,0,0,1-1.92-.08l-5.68-3.28C112.26,178.05,112.2,177.56,112.69,177.27Z"/>
              <path class="cls-6" d="M104.2,182.18l4.92-2.84a2.13,2.13,0,0,1,1.92.08l5.68,3.28c.57.33.63.82.14,1.11l-4.92,2.84a2.13,2.13,0,0,1-1.92-.08l-5.68-3.28C103.77,183,103.71,182.46,104.2,182.18Z"/>
              <path class="cls-6" d="M95.7,187.08l4.92-2.84a2.13,2.13,0,0,1,1.92.08l5.68,3.28c.57.33.63.82.14,1.11l-4.92,2.84a2.14,2.14,0,0,1-1.92-.08l-5.68-3.28C95.27,187.86,95.21,187.36,95.7,187.08Z"/>
              <path class="cls-6" d="M87.21,192l4.92-2.84a2.14,2.14,0,0,1,1.92.08l5.68,3.28c.57.33.63.82.14,1.11l-4.92,2.84a2.14,2.14,0,0,1-1.92-.08l-5.68-3.28C86.78,192.76,86.72,192.27,87.21,192Z"/>
              <path class="cls-6" d="M78.72,196.89,83.64,194a2.13,2.13,0,0,1,1.92.08l5.68,3.28c.57.33.63.82.14,1.11l-4.92,2.84a2.14,2.14,0,0,1-1.92-.08L78.86,198C78.29,197.67,78.23,197.17,78.72,196.89Z"/>
              <path class="cls-6" d="M70.23,201.79l4.92-2.84a2.14,2.14,0,0,1,1.92.08l5.68,3.28c.57.33.63.82.14,1.11L78,206.26a2.14,2.14,0,0,1-1.92-.08l-5.68-3.28C69.8,202.57,69.73,202.07,70.23,201.79Z"/>
              <path class="cls-6" d="M61.73,206.69l4.92-2.84a2.13,2.13,0,0,1,1.92.08l5.68,3.28c.57.33.63.82.14,1.11l-4.92,2.84a2.14,2.14,0,0,1-1.92-.08l-5.68-3.28C61.3,207.47,61.24,207,61.73,206.69Z"/>
              <path class="cls-6" d="M53.24,211.6l4.92-2.84a2.13,2.13,0,0,1,1.92.08l5.68,3.28c.57.33.63.82.14,1.11L61,216.06a2.14,2.14,0,0,1-1.92-.08l-5.68-3.28C52.81,212.38,52.75,211.88,53.24,211.6Z"/>
              <path class="cls-6" d="M182.31,148.82l4.92-2.84a2.13,2.13,0,0,1,1.92.08l5.68,3.28c.57.33.63.82.14,1.11L190,153.29a2.14,2.14,0,0,1-1.92-.08l-5.68-3.28C181.88,149.6,181.81,149.11,182.31,148.82Z"/>
              <path class="cls-6" d="M173.81,153.72l4.92-2.84a2.13,2.13,0,0,1,1.92.08l5.68,3.28c.57.33.63.82.14,1.11l-4.92,2.84a2.13,2.13,0,0,1-1.92-.08L174,154.83C173.38,154.5,173.32,154,173.81,153.72Z"/>
              <path class="cls-6" d="M122.74,184.05a.53.53,0,0,1,.12-.91l4.92-2.84,3.57-2.06,4.92-2.84,3.57-2.06,4.92-2.84,3.57-2.06,4.92-2.84,3.57-2.06,4.92-2.84,8.49-4.9a2.13,2.13,0,0,1,1.92.08l5.68,3.28c.57.33.63.82.14,1.11l-8.49,4.9L164.56,168,161,170.06l-4.92,2.84L152.5,175l-4.92,2.84L144,179.87l-4.92,2.84-3.57,2.06-4.92,2.84a2.13,2.13,0,0,1-1.92-.08L123,184.25C122.79,184.13,122.73,184.1,122.74,184.05Z"/>
              <path class="cls-6" d="M114.37,188l4.92-2.84a2.14,2.14,0,0,1,1.92.08l5.68,3.28c.57.33.63.82.14,1.11l-4.92,2.84a2.13,2.13,0,0,1-1.92-.08l-5.68-3.28C113.93,188.83,113.87,188.33,114.37,188Z"/>
              <path class="cls-6" d="M105.87,192.95l4.92-2.84a2.13,2.13,0,0,1,1.92.08l5.68,3.28c.57.33.63.82.14,1.11l-4.92,2.84a2.14,2.14,0,0,1-1.92-.08L106,194.06C105.44,193.73,105.38,193.23,105.87,192.95Z"/>
              <path class="cls-6" d="M97.38,197.85,102.3,195a2.14,2.14,0,0,1,1.92.08l5.68,3.28c.57.33.63.82.14,1.11l-4.92,2.84a2.14,2.14,0,0,1-1.92-.08L97.52,199C96.95,198.63,96.89,198.14,97.38,197.85Z"/>
              <path class="cls-6" d="M88.89,202.76l4.92-2.84a2.13,2.13,0,0,1,1.92.08l5.68,3.28c.57.33.63.82.14,1.11l-4.92,2.84a2.13,2.13,0,0,1-1.92-.08L89,203.86C88.46,203.54,88.39,203,88.89,202.76Z"/>
              <path class="cls-6" d="M80.39,207.66l4.92-2.84a2.13,2.13,0,0,1,1.92.08l5.68,3.28c.57.33.63.82.14,1.11l-4.92,2.84a2.14,2.14,0,0,1-1.92-.08l-5.68-3.28C80,208.44,79.9,207.94,80.39,207.66Z"/>
              <path class="cls-6" d="M71.9,212.56l4.92-2.84a2.13,2.13,0,0,1,1.92.08l5.68,3.28c.57.33.63.82.14,1.11L79.64,217a2.13,2.13,0,0,1-1.92-.08L72,213.67C71.47,213.34,71.41,212.85,71.9,212.56Z"/>
              <path class="cls-6" d="M63.41,217.47l4.92-2.84a2.14,2.14,0,0,1,1.92.08L75.93,218c.57.33.63.82.14,1.11l-4.92,2.84a2.13,2.13,0,0,1-1.92-.08l-5.68-3.28C63,218.25,62.92,217.75,63.41,217.47Z"/>
              <path class="cls-6" d="M98.65,154.61l-4.92,2.84a2.13,2.13,0,0,1-1.92-.08l-5.68-3.28c-.57-.33-.63-.82-.14-1.11l4.92-2.84a2.13,2.13,0,0,1,1.92.08l5.68,3.28C99.08,153.83,99.14,154.32,98.65,154.61Z"/>
              <path class="cls-6" d="M77.75,157.74l4.92-2.84a2.14,2.14,0,0,1,1.92.08l5.68,3.28c.57.33.63.82.14,1.11l-4.92,2.84a2.13,2.13,0,0,1-1.92-.08l-5.68-3.28C77.32,158.52,77.26,158,77.75,157.74Z"/>
              <path class="cls-6" d="M69.52,162.49l4.92-2.84a2.14,2.14,0,0,1,1.92.08L82,163c.57.33.63.82.14,1.11L77.25,167a2.12,2.12,0,0,1-1.92-.08l-5.68-3.28C69.09,163.27,69,162.78,69.52,162.49Z"/>
              <path class="cls-6" d="M61.28,167.25l4.92-2.84a2.13,2.13,0,0,1,1.92.08l5.68,3.28c.57.33.63.83.14,1.11L69,171.72a2.14,2.14,0,0,1-1.92-.08l-5.68-3.28C60.85,168,60.79,167.53,61.28,167.25Z"/>
              <path class="cls-6" d="M60.35,176.72l-4.92,2.84a2.13,2.13,0,0,1-1.92-.08l-5.68-3.28c-.57-.33-.63-.82-.14-1.11l4.92-2.84a2.13,2.13,0,0,1,1.92.08l5.68,3.28C60.78,175.94,60.85,176.43,60.35,176.72Z"/>
              <path class="cls-6" d="M52.11,181.47l-4.92,2.84a2.13,2.13,0,0,1-1.92-.08L39.6,181c-.57-.33-.63-.82-.13-1.11L44.38,177a2.14,2.14,0,0,1,1.92.08L52,180.36C52.54,180.69,52.61,181.19,52.11,181.47Z"/>
              <path class="cls-6" d="M43.88,186.23,39,189.07A2.13,2.13,0,0,1,37,189l-5.68-3.28c-.57-.33-.63-.82-.14-1.11l4.92-2.84a2.13,2.13,0,0,1,1.92.08l5.68,3.28C44.31,185.45,44.37,185.94,43.88,186.23Z"/>
              <path class="cls-6" d="M35.64,191l-4.92,2.84a2.13,2.13,0,0,1-1.92-.08l-5.68-3.28c-.57-.33-.63-.82-.14-1.11l4.92-2.84a2.13,2.13,0,0,1,1.92.08l5.68,3.28C36.07,190.2,36.13,190.7,35.64,191Z"/>
            </g>
          </g>
        </g>
        <g class="cls-7">
          <path class="cls-8" d="M95.73,77.29c-1-6.42-7.31-8.17-15.11-4.19-9,4.61-16.84,15.22-17.46,23.7-5.59,3.68-9.8,10.4-9.64,15.36.17,5.2,5.08,6.55,11,3l.82-.49,0-1.45-.82.49c-5,3-9.12,1.81-9.25-2.6S59,100.75,64,97.77a1.64,1.64,0,0,0,.8-1.18c.18-6.89,6-15.82,13.55-20.68,8.11-5.24,15.21-3.86,15.86,3.07.06.37.44.44.88.17,5-3,9.12-1.83,9.27,2.57s-3.78,10.38-8.75,13.37l-.82.49,0,1.45.82-.49c5.61-3.36,10.14-10,10.35-15.16C106.19,76,101.61,74.12,95.73,77.29Z"/>
          <path class="cls-8" d="M81.15,114.15l-.35-11-1.64,1,.35,11a6.1,6.1,0,0,0-2.37,4.28c.05,1.6,1.56,2,3.37.93s3.23-3.26,3.18-4.86C83.66,114.14,82.58,113.63,81.15,114.15Zm-.68,4.75c-.9.54-1.66.33-1.68-.47A3.21,3.21,0,0,1,80.38,116c.9-.54,1.66-.33,1.68.47A3.22,3.22,0,0,1,80.47,118.9Z"/>
          <path class="cls-8" d="M68.21,101.14C66.4,102.22,65,104.4,65,106c0,1.35,1.12,1.86,2.55,1.33L67.7,111l1.64-1-.12-3.71a6.1,6.1,0,0,0,2.37-4.28C71.53,100.47,70,100.06,68.21,101.14Zm.14,4.35c-.9.54-1.66.33-1.68-.47a3.21,3.21,0,0,1,1.59-2.43c.9-.54,1.66-.33,1.68.47A3.22,3.22,0,0,1,68.35,105.49Z"/>
          <path class="cls-8" d="M103.15,97.19a7,7,0,0,0-3.1,4.07l-6.66,4-.15.09c-.41.21-.72.07-.7-.32l-.16-5.07-1.64,1,.16,5.07s0,.08,0,.12c.08,1.14,1.21,1.4,2.52.58l6.66-4c.4,1,1.72,1.19,3.24.27,1.81-1.08,3.23-3.26,3.18-4.86S105,96.11,103.15,97.19Zm.14,4.35c-.9.54-1.66.33-1.68-.47a3.21,3.21,0,0,1,1.59-2.43c.9-.54,1.66-.33,1.68.47A3.22,3.22,0,0,1,103.29,101.54Z"/>
          <path class="cls-8" d="M69.61,118.76l-.23-7.24-1.64,1,.23,7.23a.57.57,0,0,1,0,.13,1.54,1.54,0,0,1-.8,1.09l-6.66,4c-.4-1-1.72-1.19-3.24-.27-1.81,1.08-3.23,3.26-3.18,4.86s1.56,2,3.37.93a7,7,0,0,0,3.1-4.07l6.66-4,.14-.08A4.61,4.61,0,0,0,69.61,118.76ZM57.42,129c-.9.54-1.66.33-1.68-.47a3.21,3.21,0,0,1,1.59-2.43c.9-.54,1.66-.33,1.68.47A3.22,3.22,0,0,1,57.42,129Z"/>
          <path class="cls-8" d="M91.15,87.4c-1.81,1.08-3.23,3.26-3.18,4.86,0,1.35,1.12,1.86,2.55,1.33l.19,5.89,1.64-1-.19-5.89a6.1,6.1,0,0,0,2.37-4.28C94.47,86.73,93,86.32,91.15,87.4Zm.14,4.35c-.9.54-1.66.33-1.68-.47a3.21,3.21,0,0,1,1.59-2.43c.9-.54,1.66-.33,1.68.47A3.21,3.21,0,0,1,91.29,91.75Z"/>
          <path class="cls-8" d="M74.7,102.64c-.33-.09-.85.22-1.16.69L71.15,107l1.19.33,1-1.57.27,8.39,1.64-1L75,104.76l1.09.3,1.13-1.72Z"/>
          <path class="cls-8" d="M87.79,105.13l-1,1.57-.27-8.39-1.64,1,.27,8.39-1.09-.3-1.13,1.72,2.53.7a.79.79,0,0,0,.59-.13,1.84,1.84,0,0,0,.57-.56L89,105.46Z"/>
          <path class="cls-8" d="M79.54,89.92c-1.81,1.08-3.23,3.26-3.18,4.86,0,1.35,1.12,1.86,2.55,1.33l.21,6.61,1.64-1-.21-6.61a6.1,6.1,0,0,0,2.37-4.28C82.86,89.26,81.35,88.84,79.54,89.92Zm.14,4.35c-.9.54-1.66.33-1.68-.47a3.21,3.21,0,0,1,1.59-2.43c.9-.54,1.66-.33,1.68.47A3.21,3.21,0,0,1,79.68,94.27Z"/>
        </g>
      </g>
    </g>
  </g>
</svg>
