<svg xmlns="http://www.w3.org/2000/svg" viewBox="0 0 69.98 69.98">
  <defs>
    <style>
      .cls-1 {
        fill: none;
        stroke: #495f7f;
        stroke-miterlimit: 10;
        stroke-width: 2px;
      }

      .cls-1, .cls-2 {
        opacity: 0.41;
      }

      .cls-3 {
        fill: #495f7f;
      }
    </style>
  </defs>
  <title>Asset 8</title>
  <g id="Layer_2" data-name="Layer 2">
    <g id="section">
      <g>
        <rect class="cls-1" x="1" y="1" width="67.98" height="67.98"/>
        <g class="cls-2">
          <g id="Safari">
            <path class="cls-3" d="M35,15.87A19.12,19.12,0,1,0,54.4,35,19.27,19.27,0,0,0,35,15.87Zm0,35.51A16.39,16.39,0,1,1,51.62,35,16.51,16.51,0,0,1,35,51.38ZM31.3,32.49a4.32,4.32,0,0,0-.26.36,4,4,0,0,0-.44,3L27.71,46.72l7.49-7.78a4,4,0,0,0,3.41-2.85l.54.26,3.12-14.47L30.83,32.26Zm2.14,1.72a1.33,1.33,0,0,1,.45-.45l2.11,1a1.31,1.31,0,0,1-.16.78,1.4,1.4,0,0,1-1.89.5A1.36,1.36,0,0,1,33.44,34.21Z"/>
          </g>
        </g>
      </g>
    </g>
  </g>
</svg>
